{"glyphs":{"0":{"ha":863,"x_min":35,"x_max":828,"o":"m 431 -4 q 204 58 292 -4 q 76 236 117 121 q 35 507 35 351 q 78 777 35 663 q 210 956 122 892 q 431 1019 297 1019 q 652 956 564 1019 q 784 777 740 892 q 828 507 828 663 q 787 236 828 351 q 658 58 746 121 q 431 -4 571 -4 m 190 526 q 209 445 190 483 q 280 384 228 407 q 431 361 332 361 q 583 384 531 361 q 653 445 635 407 q 672 526 672 483 q 653 606 672 571 q 583 663 635 642 q 431 685 531 685 q 280 663 332 685 q 209 606 228 642 q 190 526 190 571 z "},"1":{"ha":650,"x_min":19,"x_max":588,"o":"m 444 -3 q 339 39 376 -3 q 301 142 301 81 l 301 639 l 274 639 q 232 582 264 607 q 151 557 200 557 q 59 592 99 557 q 19 692 19 628 q 42 774 19 740 q 99 839 64 807 l 200 929 q 299 998 253 976 q 404 1019 344 1019 q 494 999 453 1019 q 562 934 536 978 q 588 819 588 890 l 588 142 q 551 39 588 81 q 444 -3 515 -3 z "},"2":{"ha":863,"x_min":35,"x_max":811,"o":"m 271 0 q 155 14 208 0 q 68 67 101 28 q 35 182 35 106 q 64 289 35 246 q 136 363 93 332 q 219 418 179 393 l 435 553 q 504 608 488 586 q 521 657 521 631 q 506 697 521 681 q 439 714 492 714 q 331 703 388 714 q 221 692 274 692 q 97 728 144 692 q 49 838 49 765 q 99 947 49 907 q 234 1003 149 986 q 425 1019 319 1019 q 690 956 596 1019 q 783 757 783 892 q 730 599 783 664 q 582 471 676 533 l 325 301 l 643 301 q 766 263 721 301 q 811 150 811 225 q 766 38 811 75 q 643 0 721 0 l 271 0 z "},"3":{"ha":838,"x_min":38,"x_max":800,"o":"m 413 1 q 227 18 313 3 q 90 74 142 33 q 38 186 38 114 q 77 299 38 260 q 176 339 117 339 q 309 329 251 339 q 435 319 367 319 q 513 338 493 319 q 533 388 533 356 q 424 456 533 456 l 344 456 q 276 478 297 456 q 256 533 256 501 q 276 589 256 567 q 344 611 297 611 l 424 611 q 492 631 475 611 q 508 682 508 651 q 490 721 508 707 q 426 735 472 735 q 314 721 371 735 q 196 707 257 707 q 85 735 131 707 q 40 844 40 764 q 73 934 40 900 q 161 987 106 968 q 284 1013 217 1006 q 422 1019 351 1019 q 604 995 522 1019 q 735 917 686 971 q 785 769 785 863 q 720 606 785 668 q 550 544 656 544 l 550 514 q 677 491 621 514 q 767 418 733 468 q 800 285 800 368 q 747 127 800 190 q 607 33 694 64 q 413 1 519 1 z "},"4":{"ha":963,"x_min":38,"x_max":942,"o":"m 632 0 q 526 40 563 0 q 490 139 490 79 l 490 286 l 469 286 q 439 224 463 256 q 371 171 415 192 q 257 150 326 150 q 151 172 201 150 q 69 237 100 193 q 38 346 38 281 q 59 445 38 397 q 128 564 81 493 l 306 831 q 433 972 369 925 q 574 1019 496 1019 q 673 1001 628 1019 q 746 936 718 982 q 774 811 774 890 l 774 454 q 789 456 774 454 q 822 458 804 458 q 906 431 869 458 q 942 335 942 404 q 906 239 942 267 q 822 211 869 211 q 789 214 804 211 q 774 217 774 217 l 774 139 q 738 40 774 79 q 632 0 703 0 m 314 475 q 311 451 304 461 q 332 442 318 442 l 490 442 l 490 719 l 475 719 l 314 475 z "},"5":{"ha":844,"x_min":33,"x_max":810,"o":"m 524 603 q 672 578 607 603 q 773 492 736 553 q 810 322 810 432 q 776 163 810 226 q 684 65 742 100 q 554 15 626 29 q 404 0 482 0 q 131 44 228 0 q 33 194 33 88 q 83 310 33 269 q 213 342 133 351 q 346 326 274 335 q 499 319 418 318 q 577 337 553 319 q 601 388 601 354 q 577 449 601 428 q 499 471 553 471 l 219 471 q 104 499 144 471 q 64 599 64 526 l 64 828 q 87 939 64 900 q 151 993 110 978 q 244 1008 192 1008 l 621 1008 q 747 968 711 1008 q 783 863 783 928 q 747 755 783 797 q 621 713 711 713 q 477 744 549 713 q 357 832 406 776 l 329 832 l 329 603 l 524 603 z "},"6":{"ha":819,"x_min":28,"x_max":790,"o":"m 231 564 q 287 579 231 564 q 436 594 343 594 q 616 574 536 594 q 743 497 696 554 q 790 332 790 440 q 706 90 790 179 q 433 0 621 0 q 217 46 308 0 q 77 194 126 92 q 28 464 28 296 q 74 754 28 629 q 214 949 119 879 q 454 1019 308 1019 q 690 974 615 1019 q 764 847 764 929 q 730 743 764 782 q 640 704 696 704 q 540 717 593 704 q 431 729 488 729 q 317 704 361 729 q 251 642 272 679 q 231 564 231 604 m 246 394 q 284 339 246 356 q 428 322 322 322 q 572 339 535 322 q 608 394 608 356 q 572 447 608 432 q 428 463 535 463 q 284 447 322 463 q 246 394 246 432 z "},"7":{"ha":838,"x_min":25,"x_max":813,"o":"m 596 800 q 501 748 557 776 q 368 699 444 719 q 192 678 292 678 q 67 724 108 678 q 25 842 25 771 q 67 961 25 914 q 192 1008 108 1008 l 600 1008 q 758 960 703 1008 q 813 810 813 911 q 796 719 813 758 q 751 646 779 681 q 692 574 724 611 q 632 490 661 536 q 563 332 589 422 q 525 144 536 242 q 478 33 517 71 q 367 -7 440 -6 q 244 35 292 -8 q 199 156 197 78 q 241 403 201 290 q 349 585 281 515 q 435 660 389 626 q 524 717 482 693 q 592 754 565 742 q 618 767 618 767 l 596 800 z "},"8":{"ha":888,"x_min":32,"x_max":857,"o":"m 444 -4 q 226 26 319 -4 q 83 119 133 57 q 32 276 32 182 q 62 414 32 358 q 140 501 92 469 q 244 538 189 532 l 244 558 q 111 616 160 568 q 63 757 63 664 q 160 948 63 876 q 444 1019 257 1019 q 728 948 632 1019 q 825 757 825 876 q 777 616 825 664 q 644 558 729 568 l 644 538 q 749 501 701 532 q 827 414 797 469 q 857 276 857 358 q 806 119 857 182 q 663 26 756 57 q 444 -4 569 -4 m 275 697 q 313 647 275 661 q 444 633 351 633 q 575 647 538 633 q 613 697 613 661 q 575 747 613 733 q 444 760 538 760 q 313 747 351 760 q 275 697 275 733 m 251 390 q 293 340 251 354 q 444 325 335 325 q 598 340 557 325 q 639 390 639 354 q 598 440 639 426 q 444 454 557 454 q 293 440 335 454 q 251 390 251 426 z "},"9":{"ha":819,"x_min":28,"x_max":792,"o":"m 583 476 q 507 451 557 465 q 364 438 457 438 q 240 448 300 438 q 133 487 181 458 q 56 568 85 515 q 28 706 28 621 q 79 888 28 818 q 215 988 131 957 q 393 1019 299 1019 q 585 983 508 1019 q 708 878 663 946 q 772 720 753 811 q 792 521 792 629 q 679 135 792 269 q 372 0 567 0 q 126 45 201 0 q 50 186 50 90 q 89 293 50 247 q 190 339 128 339 q 293 330 247 339 q 386 321 339 321 q 538 367 493 321 q 583 476 583 413 m 208 653 q 222 614 208 628 q 274 594 236 600 q 381 589 311 589 q 523 602 483 589 q 563 653 563 615 q 523 703 563 689 q 381 718 483 718 q 274 712 311 718 q 222 692 236 706 q 208 653 208 678 z "},"A":{"ha":985,"x_min":8,"x_max":975,"o":"m 157 0 q 36 85 64 14 q 47 267 8 157 l 231 788 q 288 911 256 860 q 370 990 321 963 q 493 1018 419 1018 q 660 957 604 1018 q 754 788 717 896 l 936 267 q 951 85 975 157 q 832 0 926 14 q 699 18 756 -10 q 632 108 643 46 q 630 178 624 150 q 642 222 636 206 q 642 249 646 236 q 621 263 639 263 l 363 263 q 341 249 344 263 q 343 222 338 236 q 354 178 349 206 q 353 108 360 150 q 288 18 342 46 q 157 0 233 -10 m 594 457 l 522 683 q 513 705 519 697 q 493 713 507 713 q 473 705 479 713 q 463 683 467 697 l 392 457 l 594 457 z "},"Á":{"ha":985,"x_min":8,"x_max":975,"o":"m 157 0 q 36 85 64 14 q 47 267 8 157 l 231 788 q 288 911 256 860 q 370 990 321 963 q 493 1018 419 1018 q 660 957 604 1018 q 754 788 717 896 l 936 267 q 951 85 975 157 q 832 0 926 14 q 699 18 756 -10 q 632 108 643 46 q 630 178 624 150 q 642 222 636 206 q 642 249 646 236 q 621 263 639 263 l 363 263 q 341 249 344 263 q 343 222 338 236 q 354 178 349 206 q 353 108 360 150 q 288 18 342 46 q 157 0 233 -10 m 594 457 l 522 683 q 513 705 519 697 q 493 713 507 713 q 473 705 479 713 q 463 683 467 697 l 392 457 l 594 457 m 338 1114 q 338 1183 324 1153 q 389 1236 353 1214 q 476 1287 433 1263 q 576 1342 518 1311 q 688 1364 633 1374 q 765 1299 742 1354 q 774 1196 793 1242 q 692 1125 754 1150 q 569 1081 636 1101 q 453 1053 501 1061 q 384 1060 415 1047 q 338 1114 353 1074 z "},"Â":{"ha":985,"x_min":8,"x_max":975,"o":"m 157 0 q 36 85 64 14 q 47 267 8 157 l 231 788 q 288 911 256 860 q 370 990 321 963 q 493 1018 419 1018 q 660 957 604 1018 q 754 788 717 896 l 936 267 q 951 85 975 157 q 832 0 926 14 q 699 18 756 -10 q 632 108 643 46 q 630 178 624 150 q 642 222 636 206 q 642 249 646 236 q 621 263 639 263 l 363 263 q 341 249 344 263 q 343 222 338 236 q 354 178 349 206 q 353 108 360 150 q 288 18 342 46 q 157 0 233 -10 m 594 457 l 522 683 q 513 705 519 697 q 493 713 507 713 q 473 705 479 713 q 463 683 467 697 l 392 457 l 594 457 m 215 1154 q 231 1215 215 1186 q 269 1267 246 1244 q 375 1356 317 1315 q 494 1396 433 1396 q 624 1354 556 1396 q 740 1239 692 1313 q 762 1172 761 1207 q 744 1107 763 1136 q 688 1064 725 1078 q 592 1070 636 1046 q 522 1165 547 1094 q 484 1262 503 1224 q 438 1283 465 1300 q 425 1256 422 1274 q 436 1213 428 1239 q 444 1153 444 1188 q 411 1078 444 1104 q 326 1053 378 1053 q 242 1084 268 1053 q 215 1154 215 1115 z "},"Ä":{"ha":985,"x_min":8,"x_max":975,"o":"m 157 0 q 36 85 64 14 q 47 267 8 157 l 231 788 q 288 911 256 860 q 370 990 321 963 q 493 1018 419 1018 q 660 957 604 1018 q 754 788 717 896 l 936 267 q 951 85 975 157 q 832 0 926 14 q 699 18 756 -10 q 632 108 643 46 q 630 178 624 150 q 642 222 636 206 q 642 249 646 236 q 621 263 639 263 l 363 263 q 341 249 344 263 q 343 222 338 236 q 354 178 349 206 q 353 108 360 150 q 288 18 342 46 q 157 0 233 -10 m 594 457 l 522 683 q 513 705 519 697 q 493 713 507 713 q 473 705 479 713 q 463 683 467 697 l 392 457 l 594 457 m 215 1169 q 250 1258 215 1224 q 344 1292 285 1292 q 437 1258 403 1292 q 471 1171 471 1225 q 438 1084 471 1115 q 344 1053 406 1053 q 249 1084 283 1053 q 215 1169 215 1115 m 514 1169 q 549 1258 514 1224 q 644 1292 585 1292 q 735 1258 701 1292 q 769 1171 769 1225 q 738 1084 769 1115 q 644 1053 706 1053 q 547 1084 581 1053 q 514 1169 514 1115 z "},"À":{"ha":985,"x_min":8,"x_max":975,"o":"m 157 0 q 36 85 64 14 q 47 267 8 157 l 231 788 q 288 911 256 860 q 370 990 321 963 q 493 1018 419 1018 q 660 957 604 1018 q 754 788 717 896 l 936 267 q 951 85 975 157 q 832 0 926 14 q 699 18 756 -10 q 632 108 643 46 q 630 178 624 150 q 642 222 636 206 q 642 249 646 236 q 621 263 639 263 l 363 263 q 341 249 344 263 q 343 222 338 236 q 354 178 349 206 q 353 108 360 150 q 288 18 342 46 q 157 0 233 -10 m 594 457 l 522 683 q 513 705 519 697 q 493 713 507 713 q 473 705 479 713 q 463 683 467 697 l 392 457 l 594 457 m 233 1299 q 311 1364 257 1354 q 424 1342 365 1374 q 524 1287 482 1311 q 610 1236 567 1263 q 661 1183 646 1214 q 663 1114 676 1153 q 615 1060 647 1074 q 546 1053 583 1047 q 431 1081 499 1061 q 307 1125 363 1101 q 226 1196 246 1150 q 233 1299 207 1242 z "},"Å":{"ha":985,"x_min":8,"x_max":975,"o":"m 157 0 q 36 85 64 14 q 47 267 8 157 l 231 788 q 288 911 256 860 q 370 990 321 963 q 493 1018 419 1018 q 660 957 604 1018 q 754 788 717 896 l 936 267 q 951 85 975 157 q 832 0 926 14 q 699 18 756 -10 q 632 108 643 46 q 630 178 624 150 q 642 222 636 206 q 642 249 646 236 q 621 263 639 263 l 363 263 q 341 249 344 263 q 343 222 338 236 q 354 178 349 206 q 353 108 360 150 q 288 18 342 46 q 157 0 233 -10 m 594 457 l 522 683 q 513 705 519 697 q 493 713 507 713 q 473 705 479 713 q 463 683 467 697 l 392 457 l 594 457 m 311 1211 q 364 1327 311 1285 q 493 1369 417 1369 q 622 1327 569 1369 q 674 1211 674 1285 q 624 1093 674 1133 q 493 1053 575 1053 q 361 1093 411 1053 q 311 1211 311 1133 m 407 1188 q 426 1160 407 1169 q 493 1151 446 1151 q 560 1160 542 1151 q 578 1188 578 1169 q 560 1214 578 1206 q 493 1222 542 1222 q 426 1214 446 1222 q 407 1188 407 1206 z "},"Ã":{"ha":985,"x_min":8,"x_max":975,"o":"m 157 0 q 36 85 64 14 q 47 267 8 157 l 231 788 q 288 911 256 860 q 370 990 321 963 q 493 1018 419 1018 q 660 957 604 1018 q 754 788 717 896 l 936 267 q 951 85 975 157 q 832 0 926 14 q 699 18 756 -10 q 632 108 643 46 q 630 178 624 150 q 642 222 636 206 q 642 249 646 236 q 621 263 639 263 l 363 263 q 341 249 344 263 q 343 222 338 236 q 354 178 349 206 q 353 108 360 150 q 288 18 342 46 q 157 0 233 -10 m 594 457 l 522 683 q 513 705 519 697 q 493 713 507 713 q 473 705 479 713 q 463 683 467 697 l 392 457 l 594 457 m 322 1326 q 402 1307 371 1326 q 472 1257 433 1288 q 518 1222 500 1235 q 550 1210 536 1208 q 573 1226 565 1213 q 589 1260 581 1239 q 638 1313 604 1296 q 713 1324 671 1331 q 776 1286 753 1317 q 799 1214 799 1256 q 759 1098 799 1143 q 658 1053 719 1053 q 585 1072 617 1053 q 501 1129 553 1090 q 463 1160 475 1151 q 438 1165 451 1168 q 419 1151 424 1161 q 407 1125 414 1140 q 355 1067 389 1085 q 278 1058 321 1050 q 213 1100 235 1067 q 192 1179 192 1133 q 227 1283 192 1240 q 322 1326 263 1326 z "},"Æ":{"ha":1369,"x_min":6,"x_max":1357,"o":"m 161 0 q 33 87 61 15 q 53 267 6 158 l 257 722 q 340 879 299 815 q 431 976 381 943 q 553 1008 482 1008 q 644 992 607 1008 q 705 951 682 975 q 735 908 728 928 l 749 908 q 774 978 749 949 q 858 1008 800 1008 l 1186 1008 q 1298 974 1263 1008 q 1333 871 1333 940 q 1298 771 1333 808 q 1186 733 1263 733 l 947 733 q 896 675 896 733 l 896 568 q 980 590 943 578 q 1053 610 1017 601 q 1135 619 1090 619 q 1267 519 1267 619 q 1135 417 1267 419 q 1053 424 1090 417 q 979 444 1017 432 q 894 467 942 457 l 894 282 q 910 245 894 256 q 957 253 925 235 q 1035 301 1003 281 q 1099 332 1067 321 q 1174 343 1131 343 q 1310 296 1264 343 q 1357 172 1357 249 q 1308 47 1357 90 q 1149 3 1258 3 l 800 3 q 670 26 722 3 q 606 108 618 49 q 606 177 597 149 q 621 222 614 206 q 623 250 628 238 q 601 263 618 263 l 382 263 q 358 250 363 263 q 357 222 353 238 q 367 176 364 206 q 364 106 371 146 q 296 15 351 42 q 161 0 240 -12 m 615 457 l 615 676 q 609 710 615 696 q 583 724 603 724 q 554 710 564 724 q 536 676 544 696 l 435 457 l 615 457 z "},"B":{"ha":894,"x_min":31,"x_max":874,"o":"m 344 1 q 226 19 281 4 q 129 72 171 35 q 65 174 88 108 q 42 340 42 239 q 69 511 42 439 q 133 626 96 583 q 201 679 171 669 l 194 706 l 171 706 q 70 747 107 706 q 32 857 33 788 q 69 969 31 926 q 171 1011 107 1011 l 553 1011 q 769 940 703 1011 q 836 754 836 868 q 794 601 836 663 q 667 528 751 540 l 667 507 q 816 444 758 503 q 874 269 874 385 q 801 72 874 144 q 564 0 729 -1 l 344 1 m 307 625 q 318 585 307 594 q 360 575 329 575 l 488 575 q 568 591 540 575 q 596 654 596 607 q 568 718 596 703 q 488 733 540 733 l 360 733 q 318 725 329 733 q 307 685 307 717 l 307 625 m 307 346 q 319 304 307 315 q 363 293 331 293 l 506 293 q 589 313 560 293 q 618 382 618 332 q 589 451 618 432 q 506 469 560 469 l 363 469 q 319 460 331 469 q 307 419 307 450 l 307 346 z "},"C":{"ha":919,"x_min":43,"x_max":892,"o":"m 522 -3 q 277 53 386 -3 q 106 221 168 110 q 43 494 43 332 q 106 775 43 657 q 280 956 169 893 q 532 1019 390 1019 q 783 974 696 1019 q 871 838 871 928 q 833 723 871 768 q 731 678 796 678 q 623 692 675 678 q 501 707 571 707 q 361 656 413 707 q 310 521 310 604 q 361 384 310 439 q 501 329 413 329 q 588 337 549 329 q 666 353 628 344 q 749 361 704 361 q 857 313 822 361 q 892 194 892 265 q 840 80 892 124 q 705 17 789 36 q 522 -3 621 -3 z "},"Ç":{"ha":919,"x_min":43,"x_max":892,"o":"m 640 -124 q 584 -254 639 -208 q 446 -300 529 -300 q 335 -269 375 -300 q 294 -181 294 -237 q 331 -89 294 -119 q 431 -68 368 -58 q 493 -65 474 -76 q 518 -28 513 -54 q 513 -3 521 -11 q 272 57 378 0 q 104 224 165 114 q 43 494 43 333 q 106 775 43 657 q 280 956 169 893 q 532 1019 390 1019 q 783 974 696 1019 q 871 838 871 928 q 833 723 871 768 q 731 678 796 678 q 623 692 675 678 q 501 707 571 707 q 361 656 413 707 q 310 521 310 604 q 361 384 310 439 q 501 329 413 329 q 588 337 549 329 q 666 353 628 344 q 749 361 704 361 q 857 313 822 361 q 892 194 892 265 q 853 92 892 132 q 747 29 814 51 q 599 0 681 7 q 640 -124 640 -49 m 490 0 l 500 1 q 490 0 496 1 z "},"D":{"ha":918,"x_min":31,"x_max":883,"o":"m 407 1011 q 677 949 572 1011 q 833 774 782 888 q 883 506 883 661 q 771 122 883 244 q 426 0 658 0 l 365 0 q 239 14 297 0 q 136 65 181 28 q 67 168 92 101 q 42 340 42 235 q 69 511 42 439 q 133 626 96 583 q 201 679 171 669 l 194 706 l 171 706 q 70 747 107 706 q 32 857 33 788 q 69 969 31 926 q 171 1011 107 1011 l 407 1011 m 307 358 q 320 318 307 329 q 360 307 333 307 l 435 307 q 544 338 506 307 q 599 416 583 368 q 615 518 615 464 q 599 622 615 572 q 544 704 583 672 q 435 736 506 736 l 360 736 q 320 724 333 736 q 307 682 307 713 l 307 358 z "},"Ð":{"ha":969,"x_min":32,"x_max":935,"o":"m 458 1011 q 728 949 624 1011 q 884 774 833 888 q 935 506 935 661 q 822 122 935 244 q 478 0 710 0 l 417 0 q 294 15 353 0 q 190 65 236 29 q 119 162 144 100 q 93 319 93 224 q 103 406 93 369 q 132 469 114 443 l 103 469 q 50 491 68 469 q 32 549 32 513 q 103 626 32 626 l 244 626 l 244 706 l 222 706 q 122 747 158 706 q 82 857 85 788 q 119 969 81 926 q 222 1011 158 1011 l 458 1011 m 357 358 q 371 318 357 329 q 411 307 385 307 l 486 307 q 596 338 557 307 q 651 416 635 368 q 667 518 667 464 q 651 622 667 572 q 596 704 635 672 q 486 736 557 736 l 411 736 q 371 724 385 736 q 357 682 357 713 l 357 626 l 515 626 q 592 549 592 626 q 573 491 592 513 q 515 469 554 469 l 357 469 l 357 358 z "},"E":{"ha":853,"x_min":31,"x_max":840,"o":"m 383 3 q 253 15 315 3 q 145 63 192 28 q 72 166 99 99 q 44 343 44 233 q 71 513 44 442 q 134 625 97 583 q 201 676 171 667 l 194 703 l 171 703 q 70 744 107 703 q 32 856 33 785 q 69 967 31 925 q 171 1008 107 1008 l 669 1008 q 818 869 818 1008 q 782 769 818 807 q 669 732 746 732 l 382 732 q 331 672 331 732 l 331 568 q 476 604 400 583 q 619 625 551 625 q 717 597 685 625 q 750 519 750 568 q 717 441 750 469 q 619 411 685 413 q 475 431 551 410 q 329 467 399 451 l 329 285 q 344 248 329 258 q 390 256 358 238 q 526 320 460 296 q 657 344 593 344 q 794 297 747 344 q 840 174 840 250 q 791 47 840 92 q 632 3 742 3 l 383 3 z "},"É":{"ha":853,"x_min":31,"x_max":840,"o":"m 383 3 q 253 15 315 3 q 145 63 192 28 q 72 166 99 99 q 44 343 44 233 q 71 513 44 442 q 134 625 97 583 q 201 676 171 667 l 194 703 l 171 703 q 70 744 107 703 q 32 856 33 785 q 69 967 31 925 q 171 1008 107 1008 l 669 1008 q 818 869 818 1008 q 782 769 818 807 q 669 732 746 732 l 382 732 q 331 672 331 732 l 331 568 q 476 604 400 583 q 619 625 551 625 q 717 597 685 625 q 750 519 750 568 q 717 441 750 469 q 619 411 685 413 q 475 431 551 410 q 329 467 399 451 l 329 285 q 344 248 329 258 q 390 256 358 238 q 526 320 460 296 q 657 344 593 344 q 794 297 747 344 q 840 174 840 250 q 791 47 840 92 q 632 3 742 3 l 383 3 m 299 1114 q 299 1183 285 1153 q 350 1236 314 1214 q 437 1287 394 1263 q 538 1342 479 1311 q 649 1364 594 1374 q 726 1299 703 1354 q 735 1196 754 1242 q 653 1125 715 1150 q 530 1081 597 1101 q 414 1053 463 1061 q 345 1060 376 1047 q 299 1114 314 1074 z "},"Ê":{"ha":853,"x_min":31,"x_max":840,"o":"m 383 3 q 253 15 315 3 q 145 63 192 28 q 72 166 99 99 q 44 343 44 233 q 71 513 44 442 q 134 625 97 583 q 201 676 171 667 l 194 703 l 171 703 q 70 744 107 703 q 32 856 33 785 q 69 967 31 925 q 171 1008 107 1008 l 669 1008 q 818 869 818 1008 q 782 769 818 807 q 669 732 746 732 l 382 732 q 331 672 331 732 l 331 568 q 476 604 400 583 q 619 625 551 625 q 717 597 685 625 q 750 519 750 568 q 717 441 750 469 q 619 411 685 413 q 475 431 551 410 q 329 467 399 451 l 329 285 q 344 248 329 258 q 390 256 358 238 q 526 320 460 296 q 657 344 593 344 q 794 297 747 344 q 840 174 840 250 q 791 47 840 92 q 632 3 742 3 l 383 3 m 176 1154 q 192 1215 176 1186 q 231 1267 207 1244 q 336 1356 278 1315 q 456 1396 394 1396 q 585 1354 517 1396 q 701 1239 653 1313 q 723 1172 722 1207 q 705 1107 724 1136 q 649 1064 686 1078 q 553 1070 597 1046 q 483 1165 508 1094 q 445 1262 464 1224 q 399 1283 426 1300 q 386 1256 383 1274 q 397 1213 389 1239 q 406 1153 406 1188 q 372 1078 406 1104 q 288 1053 339 1053 q 203 1084 229 1053 q 176 1154 176 1115 z "},"Ë":{"ha":853,"x_min":31,"x_max":840,"o":"m 383 3 q 253 15 315 3 q 145 63 192 28 q 72 166 99 99 q 44 343 44 233 q 71 513 44 442 q 134 625 97 583 q 201 676 171 667 l 194 703 l 171 703 q 70 744 107 703 q 32 856 33 785 q 69 967 31 925 q 171 1008 107 1008 l 669 1008 q 818 869 818 1008 q 782 769 818 807 q 669 732 746 732 l 382 732 q 331 672 331 732 l 331 568 q 476 604 400 583 q 619 625 551 625 q 717 597 685 625 q 750 519 750 568 q 717 441 750 469 q 619 411 685 413 q 475 431 551 410 q 329 467 399 451 l 329 285 q 344 248 329 258 q 390 256 358 238 q 526 320 460 296 q 657 344 593 344 q 794 297 747 344 q 840 174 840 250 q 791 47 840 92 q 632 3 742 3 l 383 3 m 176 1169 q 211 1258 176 1224 q 306 1292 246 1292 q 398 1258 364 1292 q 432 1171 432 1225 q 399 1084 432 1115 q 306 1053 367 1053 q 210 1084 244 1053 q 176 1169 176 1115 m 475 1169 q 510 1258 475 1224 q 606 1292 546 1292 q 697 1258 663 1292 q 731 1171 731 1225 q 699 1084 731 1115 q 606 1053 667 1053 q 508 1084 542 1053 q 475 1169 475 1115 z "},"È":{"ha":853,"x_min":31,"x_max":840,"o":"m 383 3 q 253 15 315 3 q 145 63 192 28 q 72 166 99 99 q 44 343 44 233 q 71 513 44 442 q 134 625 97 583 q 201 676 171 667 l 194 703 l 171 703 q 70 744 107 703 q 32 856 33 785 q 69 967 31 925 q 171 1008 107 1008 l 669 1008 q 818 869 818 1008 q 782 769 818 807 q 669 732 746 732 l 382 732 q 331 672 331 732 l 331 568 q 476 604 400 583 q 619 625 551 625 q 717 597 685 625 q 750 519 750 568 q 717 441 750 469 q 619 411 685 413 q 475 431 551 410 q 329 467 399 451 l 329 285 q 344 248 329 258 q 390 256 358 238 q 526 320 460 296 q 657 344 593 344 q 794 297 747 344 q 840 174 840 250 q 791 47 840 92 q 632 3 742 3 l 383 3 m 194 1299 q 272 1364 218 1354 q 385 1342 326 1374 q 485 1287 443 1311 q 571 1236 528 1263 q 622 1183 607 1214 q 624 1114 638 1153 q 576 1060 608 1074 q 507 1053 544 1047 q 392 1081 460 1061 q 268 1125 324 1101 q 188 1196 207 1150 q 194 1299 168 1242 z "},"F":{"ha":824,"x_min":31,"x_max":806,"o":"m 192 0 q 84 38 124 0 q 44 147 44 75 l 44 343 q 89 567 44 490 q 201 676 133 643 l 194 703 l 171 703 q 70 744 107 703 q 32 856 33 785 q 69 967 31 925 q 171 1008 107 1008 l 657 1008 q 806 869 806 1008 q 769 769 806 807 q 657 732 733 732 l 386 732 q 335 672 335 732 l 335 572 q 471 614 400 590 q 607 638 542 638 q 715 603 676 638 q 753 500 753 569 q 715 398 753 432 q 607 363 676 364 q 470 384 542 361 q 333 425 399 407 l 332 147 q 294 38 332 75 q 192 0 256 0 z "},"G":{"ha":982,"x_min":33,"x_max":957,"o":"m 397 -8 q 204 56 286 -8 q 78 234 122 121 q 33 490 33 347 q 73 724 33 624 q 181 892 113 825 q 341 994 250 960 q 533 1028 432 1028 q 809 976 719 1028 q 899 842 899 924 q 866 729 899 778 q 768 681 833 681 q 684 689 724 681 q 603 705 644 697 q 513 713 563 713 q 355 650 403 713 q 307 493 307 588 q 338 368 307 417 q 422 297 369 319 q 538 274 474 274 q 636 297 590 274 q 694 385 682 321 l 626 385 q 551 415 578 385 q 525 492 525 444 q 551 568 525 539 q 626 597 578 597 l 793 597 q 920 549 883 597 q 957 407 957 501 l 957 147 q 918 38 957 75 q 815 0 879 0 q 708 38 747 0 q 669 147 669 75 l 669 233 l 644 233 q 581 49 644 107 q 410 -8 517 -8 l 397 -8 z "},"H":{"ha":933,"x_min":44,"x_max":890,"o":"m 192 4 q 86 43 128 4 q 44 142 44 82 l 44 876 q 85 978 44 938 q 190 1019 125 1019 q 299 978 260 1019 q 338 879 338 938 l 338 622 l 596 622 l 596 876 q 636 978 596 938 q 744 1019 676 1019 q 851 978 813 1019 q 890 879 890 938 l 890 142 q 849 43 890 82 q 747 4 808 4 q 638 43 681 4 q 596 142 596 82 l 596 418 l 338 418 l 338 142 q 297 43 338 82 q 192 4 256 4 z "},"I":{"ha":382,"x_min":44,"x_max":338,"o":"m 189 -3 q 85 36 125 -3 q 44 135 44 75 l 44 869 q 84 972 44 931 q 189 1014 124 1014 q 298 973 258 1014 q 338 872 338 932 l 338 135 q 295 36 338 75 q 189 -3 253 -3 z "},"Í":{"ha":382,"x_min":22,"x_max":492,"o":"m 189 -3 q 85 36 125 -3 q 44 135 44 75 l 44 869 q 84 972 44 931 q 189 1014 124 1014 q 298 973 258 1014 q 338 872 338 932 l 338 135 q 295 36 338 75 q 189 -3 253 -3 m 36 1114 q 37 1183 22 1153 q 88 1236 51 1214 q 174 1287 132 1263 q 275 1342 217 1311 q 386 1364 332 1374 q 464 1299 440 1354 q 472 1196 492 1242 q 390 1125 453 1150 q 267 1081 335 1101 q 151 1053 200 1061 q 83 1060 114 1047 q 36 1114 51 1074 z "},"Î":{"ha":382,"x_min":-86,"x_max":461,"o":"m 189 -3 q 85 36 125 -3 q 44 135 44 75 l 44 869 q 84 972 44 931 q 189 1014 124 1014 q 298 973 258 1014 q 338 872 338 932 l 338 135 q 295 36 338 75 q 189 -3 253 -3 m -86 1154 q -71 1215 -86 1186 q -32 1267 -56 1244 q 74 1356 15 1315 q 193 1396 132 1396 q 322 1354 254 1396 q 439 1239 390 1313 q 460 1172 460 1207 q 442 1107 461 1136 q 386 1064 424 1078 q 290 1070 335 1046 q 221 1165 246 1094 q 183 1262 201 1224 q 136 1283 164 1300 q 124 1256 121 1274 q 135 1213 126 1239 q 143 1153 143 1188 q 110 1078 143 1104 q 25 1053 76 1053 q -60 1084 -33 1053 q -86 1154 -86 1115 z "},"Ï":{"ha":382,"x_min":-86,"x_max":468,"o":"m 189 -3 q 85 36 125 -3 q 44 135 44 75 l 44 869 q 84 972 44 931 q 189 1014 124 1014 q 298 973 258 1014 q 338 872 338 932 l 338 135 q 295 36 338 75 q 189 -3 253 -3 m -86 1169 q -51 1258 -86 1224 q 43 1292 -17 1292 q 135 1258 101 1292 q 169 1171 169 1225 q 137 1084 169 1115 q 43 1053 104 1053 q -52 1084 -18 1053 q -86 1169 -86 1115 m 213 1169 q 248 1258 213 1224 q 343 1292 283 1292 q 434 1258 400 1292 q 468 1171 468 1225 q 436 1084 468 1115 q 343 1053 404 1053 q 246 1084 279 1053 q 213 1169 213 1115 z "},"Ì":{"ha":382,"x_min":-94,"x_max":375,"o":"m 189 -3 q 85 36 125 -3 q 44 135 44 75 l 44 869 q 84 972 44 931 q 189 1014 124 1014 q 298 973 258 1014 q 338 872 338 932 l 338 135 q 295 36 338 75 q 189 -3 253 -3 m -68 1299 q 10 1364 -44 1354 q 122 1342 64 1374 q 223 1287 181 1311 q 308 1236 265 1263 q 360 1183 344 1214 q 361 1114 375 1153 q 314 1060 346 1074 q 244 1053 282 1047 q 129 1081 197 1061 q 6 1125 61 1101 q -75 1196 -56 1150 q -68 1299 -94 1242 z "},"J":{"ha":808,"x_min":25,"x_max":765,"o":"m 407 -10 q 217 27 304 -10 q 77 141 129 64 q 25 338 25 218 q 65 463 25 419 q 172 506 104 506 q 280 469 242 506 q 318 358 318 432 q 342 267 318 292 q 401 243 367 243 q 458 267 436 243 q 481 358 481 292 l 481 454 q 499 571 481 525 q 543 642 518 617 q 588 676 568 668 l 581 703 l 232 703 q 126 742 165 703 q 83 853 86 782 q 124 965 82 922 q 232 1008 165 1008 l 632 1008 q 731 965 697 1008 q 765 851 765 921 l 765 338 q 719 141 765 218 q 591 27 672 64 q 407 -10 510 -10 z "},"K":{"ha":896,"x_min":46,"x_max":876,"o":"m 353 626 l 561 921 q 682 1010 617 1000 q 800 979 747 1021 q 846 908 835 953 q 839 814 857 864 q 767 719 821 764 l 535 532 l 535 503 q 639 492 579 503 q 747 442 699 481 q 815 375 786 413 q 860 283 843 338 q 876 144 876 228 q 840 35 876 76 q 731 -6 803 -6 q 620 35 658 -6 q 582 144 582 76 q 558 266 582 221 q 493 332 533 311 q 406 353 453 353 l 338 353 l 338 135 q 297 36 338 75 q 192 -3 256 -3 q 87 36 128 -3 q 46 135 46 75 l 46 869 q 86 972 46 931 q 192 1014 126 1014 q 299 973 261 1014 q 338 872 338 932 l 338 629 l 353 626 z "},"L":{"ha":826,"x_min":44,"x_max":814,"o":"m 44 876 q 84 976 44 940 q 186 1011 124 1011 q 290 976 251 1011 q 329 876 329 940 l 329 285 q 343 248 329 258 q 389 256 357 238 q 513 320 458 296 q 632 344 567 344 q 768 297 722 344 q 814 174 814 250 q 765 47 814 92 q 607 3 715 3 l 321 3 q 168 24 229 3 q 76 103 107 46 q 44 268 44 160 l 44 876 z "},"M":{"ha":1153,"x_min":44,"x_max":1108,"o":"m 186 0 q 79 43 114 0 q 44 158 44 86 l 44 806 q 102 961 44 911 q 240 1011 160 1011 q 370 961 317 1011 q 449 803 424 911 l 557 332 l 593 332 l 701 803 q 781 961 726 911 q 913 1011 836 1011 q 1051 961 993 1011 q 1108 806 1108 911 l 1108 158 q 1073 43 1108 86 q 965 0 1038 0 q 858 43 896 0 q 821 158 821 86 l 821 532 q 817 558 821 546 q 799 569 814 569 q 781 558 786 569 q 772 532 775 546 l 719 182 q 697 84 710 125 q 656 22 683 43 q 575 0 628 0 q 495 22 524 0 q 453 84 467 43 q 432 182 440 125 l 378 532 q 371 558 376 546 q 351 569 365 569 q 333 558 338 569 q 329 532 329 546 l 329 158 q 292 43 329 86 q 186 0 256 0 z "},"N":{"ha":953,"x_min":44,"x_max":908,"o":"m 186 0 q 81 43 117 0 q 44 158 44 86 l 44 810 q 72 927 44 882 q 142 993 99 972 q 238 1014 186 1014 q 367 974 314 1014 q 449 832 419 933 l 599 319 l 621 319 l 621 853 q 658 969 621 926 q 765 1011 696 1011 q 873 969 838 1011 q 908 853 908 926 l 908 225 q 857 53 908 108 q 713 -3 806 -3 q 565 47 618 -3 q 485 194 513 97 l 386 532 q 376 558 383 546 q 356 569 368 569 q 335 558 340 569 q 329 532 329 546 l 329 158 q 293 43 329 86 q 186 0 257 0 z "},"Ñ":{"ha":953,"x_min":44,"x_max":908,"o":"m 186 0 q 81 43 117 0 q 44 158 44 86 l 44 810 q 72 927 44 882 q 142 993 99 972 q 238 1014 186 1014 q 367 974 314 1014 q 449 832 419 933 l 599 319 l 621 319 l 621 853 q 658 969 621 926 q 765 1011 696 1011 q 873 969 838 1011 q 908 853 908 926 l 908 225 q 857 53 908 108 q 713 -3 806 -3 q 565 47 618 -3 q 485 194 513 97 l 386 532 q 376 558 383 546 q 356 569 368 569 q 335 558 340 569 q 329 532 329 546 l 329 158 q 293 43 329 86 q 186 0 257 0 m 306 1326 q 385 1307 354 1326 q 456 1257 417 1288 q 501 1222 483 1235 q 533 1210 519 1208 q 556 1226 549 1213 q 572 1260 564 1239 q 621 1313 588 1296 q 696 1324 654 1331 q 759 1286 736 1317 q 782 1214 782 1256 q 742 1098 782 1143 q 642 1053 703 1053 q 568 1072 600 1053 q 485 1129 536 1090 q 447 1160 458 1151 q 421 1165 435 1168 q 402 1151 407 1161 q 390 1125 397 1140 q 338 1067 372 1085 q 261 1058 304 1050 q 197 1100 218 1067 q 175 1179 175 1133 q 210 1283 175 1240 q 306 1326 246 1326 z "},"O":{"ha":981,"x_min":33,"x_max":951,"o":"m 493 -4 q 242 61 344 -4 q 86 242 139 126 q 33 507 33 357 q 86 772 33 656 q 242 953 139 888 q 493 1019 344 1019 q 744 953 642 1019 q 899 772 846 888 q 951 507 951 656 q 899 242 951 357 q 744 61 846 126 q 493 -4 642 -4 m 208 529 q 229 448 208 486 q 311 387 250 410 q 493 364 372 364 q 674 387 614 364 q 756 448 735 410 q 776 529 776 486 q 756 609 776 574 q 674 666 735 644 q 493 688 614 688 q 311 666 372 688 q 229 609 250 644 q 208 529 208 574 z "},"Ó":{"ha":981,"x_min":33,"x_max":951,"o":"m 493 -4 q 242 61 344 -4 q 86 242 139 126 q 33 507 33 357 q 86 772 33 656 q 242 953 139 888 q 493 1019 344 1019 q 744 953 642 1019 q 899 772 846 888 q 951 507 951 656 q 899 242 951 357 q 744 61 846 126 q 493 -4 642 -4 m 208 529 q 229 448 208 486 q 311 387 250 410 q 493 364 372 364 q 674 387 614 364 q 756 448 735 410 q 776 529 776 486 q 756 609 776 574 q 674 666 735 644 q 493 688 614 688 q 311 666 372 688 q 229 609 250 644 q 208 529 208 574 m 335 1114 q 335 1183 321 1153 q 386 1236 350 1214 q 473 1287 431 1263 q 574 1342 515 1311 q 685 1364 631 1374 q 763 1299 739 1354 q 771 1196 790 1242 q 689 1125 751 1150 q 566 1081 633 1101 q 450 1053 499 1061 q 381 1060 413 1047 q 335 1114 350 1074 z "},"Ô":{"ha":981,"x_min":33,"x_max":951,"o":"m 493 -4 q 242 61 344 -4 q 86 242 139 126 q 33 507 33 357 q 86 772 33 656 q 242 953 139 888 q 493 1019 344 1019 q 744 953 642 1019 q 899 772 846 888 q 951 507 951 656 q 899 242 951 357 q 744 61 846 126 q 493 -4 642 -4 m 208 529 q 229 448 208 486 q 311 387 250 410 q 493 364 372 364 q 674 387 614 364 q 756 448 735 410 q 776 529 776 486 q 756 609 776 574 q 674 666 735 644 q 493 688 614 688 q 311 666 372 688 q 229 609 250 644 q 208 529 208 574 m 213 1154 q 228 1215 213 1186 q 267 1267 243 1244 q 372 1356 314 1315 q 492 1396 431 1396 q 621 1354 553 1396 q 738 1239 689 1313 q 759 1172 758 1207 q 741 1107 760 1136 q 685 1064 722 1078 q 589 1070 633 1046 q 519 1165 544 1094 q 481 1262 500 1224 q 435 1283 463 1300 q 422 1256 419 1274 q 433 1213 425 1239 q 442 1153 442 1188 q 408 1078 442 1104 q 324 1053 375 1053 q 239 1084 265 1053 q 213 1154 213 1115 z "},"Ö":{"ha":981,"x_min":33,"x_max":951,"o":"m 493 -4 q 242 61 344 -4 q 86 242 139 126 q 33 507 33 357 q 86 772 33 656 q 242 953 139 888 q 493 1019 344 1019 q 744 953 642 1019 q 899 772 846 888 q 951 507 951 656 q 899 242 951 357 q 744 61 846 126 q 493 -4 642 -4 m 208 529 q 229 448 208 486 q 311 387 250 410 q 493 364 372 364 q 674 387 614 364 q 756 448 735 410 q 776 529 776 486 q 756 609 776 574 q 674 666 735 644 q 493 688 614 688 q 311 666 372 688 q 229 609 250 644 q 208 529 208 574 m 213 1169 q 247 1258 213 1224 q 342 1292 282 1292 q 434 1258 400 1292 q 468 1171 468 1225 q 435 1084 468 1115 q 342 1053 403 1053 q 247 1084 281 1053 q 213 1169 213 1115 m 511 1169 q 547 1258 511 1224 q 642 1292 582 1292 q 733 1258 699 1292 q 767 1171 767 1225 q 735 1084 767 1115 q 642 1053 703 1053 q 544 1084 578 1053 q 511 1169 511 1115 z "},"Ò":{"ha":981,"x_min":33,"x_max":951,"o":"m 493 -4 q 242 61 344 -4 q 86 242 139 126 q 33 507 33 357 q 86 772 33 656 q 242 953 139 888 q 493 1019 344 1019 q 744 953 642 1019 q 899 772 846 888 q 951 507 951 656 q 899 242 951 357 q 744 61 846 126 q 493 -4 642 -4 m 208 529 q 229 448 208 486 q 311 387 250 410 q 493 364 372 364 q 674 387 614 364 q 756 448 735 410 q 776 529 776 486 q 756 609 776 574 q 674 666 735 644 q 493 688 614 688 q 311 666 372 688 q 229 609 250 644 q 208 529 208 574 m 231 1299 q 308 1364 254 1354 q 421 1342 363 1374 q 522 1287 479 1311 q 607 1236 564 1263 q 658 1183 643 1214 q 660 1114 674 1153 q 613 1060 644 1074 q 543 1053 581 1047 q 428 1081 496 1061 q 304 1125 360 1101 q 224 1196 243 1150 q 231 1299 204 1242 z "},"Ø":{"ha":985,"x_min":33,"x_max":951,"o":"m 493 -4 q 376 8 431 -4 q 276 43 322 21 l 249 0 q 181 -47 224 -39 q 97 -28 139 -56 q 44 47 50 4 q 68 124 39 90 l 119 182 q 33 507 33 313 q 86 772 33 656 q 242 953 139 888 q 493 1019 344 1019 q 681 983 596 1019 l 713 1044 q 783 1096 736 1085 q 874 1075 829 1107 q 919 999 917 1046 q 892 915 922 951 l 844 861 q 924 703 897 793 q 951 507 951 613 q 899 242 951 357 q 744 61 846 126 q 493 -4 642 -4 m 192 528 q 210 445 192 485 q 288 382 228 406 q 406 537 351 461 q 511 694 460 613 l 493 694 q 338 681 397 694 q 246 645 278 668 q 203 592 214 622 q 192 528 192 563 m 493 353 q 685 377 621 353 q 772 441 750 401 q 794 528 794 481 q 774 611 794 574 q 688 671 753 649 q 569 514 624 590 q 460 353 514 438 l 493 353 z "},"Õ":{"ha":981,"x_min":33,"x_max":951,"o":"m 493 -4 q 242 61 344 -4 q 86 242 139 126 q 33 507 33 357 q 86 772 33 656 q 242 953 139 888 q 493 1019 344 1019 q 744 953 642 1019 q 899 772 846 888 q 951 507 951 656 q 899 242 951 357 q 744 61 846 126 q 493 -4 642 -4 m 208 529 q 229 448 208 486 q 311 387 250 410 q 493 364 372 364 q 674 387 614 364 q 756 448 735 410 q 776 529 776 486 q 756 609 776 574 q 674 666 735 644 q 493 688 614 688 q 311 666 372 688 q 229 609 250 644 q 208 529 208 574 m 319 1326 q 399 1307 368 1326 q 469 1257 431 1288 q 515 1222 497 1235 q 547 1210 533 1208 q 570 1226 563 1213 q 586 1260 578 1239 q 635 1313 601 1296 q 710 1324 668 1331 q 773 1286 750 1317 q 796 1214 796 1256 q 756 1098 796 1143 q 656 1053 717 1053 q 582 1072 614 1053 q 499 1129 550 1090 q 460 1160 472 1151 q 435 1165 449 1168 q 416 1151 421 1161 q 404 1125 411 1140 q 352 1067 386 1085 q 275 1058 318 1050 q 210 1100 232 1067 q 189 1179 189 1133 q 224 1283 189 1240 q 319 1326 260 1326 z "},"Œ":{"ha":1411,"x_min":33,"x_max":1399,"o":"m 433 -4 q 201 61 289 -4 q 73 242 113 126 q 33 507 33 357 q 75 772 33 656 q 207 953 117 888 q 442 1019 297 1019 q 583 999 526 1019 q 672 951 639 979 q 721 901 706 924 l 735 901 q 787 976 746 943 q 913 1008 828 1008 l 1229 1008 q 1341 974 1306 1008 q 1376 869 1376 939 q 1341 769 1376 807 q 1229 732 1306 732 l 990 732 q 939 672 939 732 l 939 568 q 1023 591 986 578 q 1097 615 1060 604 q 1178 625 1133 625 q 1276 597 1243 625 q 1308 519 1308 568 q 1276 441 1308 469 q 1178 411 1243 413 q 1097 420 1133 411 q 1022 443 1060 429 q 938 467 985 457 l 938 285 q 953 248 938 258 q 999 256 968 238 q 1080 303 1044 283 q 1150 333 1115 322 q 1228 344 1185 344 q 1358 297 1318 344 q 1399 174 1399 250 q 1349 47 1399 92 q 1192 3 1300 3 l 900 3 q 775 44 815 3 q 735 144 735 85 l 721 144 q 669 74 701 108 q 581 18 638 40 q 433 -4 525 -4 m 197 529 q 216 439 197 479 q 284 375 235 399 q 426 351 333 351 q 573 375 522 351 q 642 439 624 399 q 660 529 660 479 q 642 617 660 579 q 573 678 624 656 q 426 700 522 700 q 284 678 333 700 q 216 617 235 656 q 197 529 197 579 z "},"P":{"ha":874,"x_min":31,"x_max":853,"o":"m 332 321 l 332 147 q 294 38 332 75 q 193 0 256 0 l 192 0 q 84 38 124 0 q 44 147 44 75 l 44 343 q 89 567 44 490 q 201 676 133 643 l 194 703 l 171 703 q 70 744 107 703 q 32 856 33 785 q 69 968 31 925 q 171 1011 107 1011 l 536 1011 q 765 927 676 1011 q 853 663 853 843 q 807 457 853 532 q 686 351 761 382 q 524 321 611 321 l 332 321 m 314 589 q 326 549 314 558 q 368 539 338 539 l 497 539 q 582 566 556 539 q 608 643 608 593 q 582 719 608 693 q 497 746 556 746 l 368 746 q 326 738 338 746 q 314 697 314 729 l 314 589 z "},"Þ":{"ha":842,"x_min":25,"x_max":819,"o":"m 313 269 l 313 147 q 274 38 313 75 q 172 0 236 0 l 171 0 q 65 38 104 0 q 25 147 25 75 l 25 957 q 62 1064 25 1026 q 169 1101 99 1101 q 276 1064 239 1101 q 313 957 313 1026 l 313 947 l 517 947 q 673 915 604 947 q 781 811 742 883 q 819 619 819 739 q 774 412 819 489 q 657 302 729 335 q 504 269 585 269 l 313 269 m 294 563 q 306 522 294 532 q 347 513 317 513 l 478 513 q 576 610 576 513 q 551 684 576 661 q 478 707 526 707 l 347 707 q 306 699 317 707 q 294 658 294 690 l 294 563 z "},"Q":{"ha":985,"x_min":33,"x_max":951,"o":"m 33 526 q 86 781 33 669 q 242 956 139 892 q 493 1019 344 1019 q 744 956 642 1019 q 899 781 846 892 q 951 526 951 669 q 911 299 951 400 q 792 133 871 199 q 599 44 714 67 q 631 6 606 17 q 704 -6 656 -6 q 785 -19 749 -6 q 845 -66 822 -33 q 868 -156 868 -99 q 845 -244 868 -211 q 785 -292 822 -278 q 704 -306 749 -306 q 571 -272 624 -306 q 492 -179 518 -237 q 467 -51 467 -121 l 467 35 q 230 106 326 42 q 83 278 133 169 q 33 526 33 386 m 493 389 q 674 411 614 389 q 756 469 735 433 q 776 547 776 506 q 756 624 776 590 q 674 679 735 658 q 493 700 614 700 q 311 679 372 700 q 229 624 250 658 q 208 547 208 590 q 229 469 208 506 q 311 411 250 433 q 493 389 372 389 z "},"R":{"ha":893,"x_min":36,"x_max":874,"o":"m 721 0 q 611 42 651 0 q 568 153 571 85 q 509 320 563 271 q 367 369 456 369 l 339 369 l 339 147 q 300 38 339 75 q 197 0 261 0 q 90 38 129 0 q 51 147 51 75 l 51 343 q 95 567 51 490 q 207 676 139 643 l 200 703 l 178 703 q 77 744 114 703 q 38 856 40 785 q 75 968 36 925 q 178 1011 114 1011 l 532 1011 q 772 939 681 1011 q 864 708 864 867 q 836 572 864 626 q 765 488 808 517 q 675 453 722 458 l 675 435 q 817 343 761 414 q 874 153 874 272 q 833 38 874 76 q 721 0 792 0 m 332 582 q 343 542 332 551 q 385 532 354 532 l 515 532 q 600 558 574 532 q 626 632 626 585 q 600 707 626 681 q 515 733 574 733 l 385 733 q 343 725 354 733 q 332 685 332 717 l 332 582 z "},"S":{"ha":894,"x_min":25,"x_max":869,"o":"m 472 -4 q 316 12 394 -4 q 172 59 238 28 q 65 135 106 90 q 25 240 25 181 q 74 363 25 317 q 188 406 122 408 q 290 384 239 404 q 395 344 342 364 q 503 325 449 325 q 578 339 557 325 q 599 376 599 353 q 569 422 599 404 q 496 450 540 440 l 428 467 q 239 523 322 492 q 108 606 156 554 q 60 746 60 658 q 113 902 60 842 q 256 990 165 963 q 457 1018 346 1018 q 657 994 571 1018 q 791 926 743 971 q 839 818 839 882 q 802 712 839 750 q 704 674 765 674 q 620 688 664 674 q 528 715 576 701 q 426 728 481 728 q 353 713 378 728 q 328 675 328 699 q 361 632 328 646 q 471 599 394 618 l 549 581 q 717 524 644 557 q 829 436 789 490 q 869 294 869 382 q 819 123 869 189 q 681 26 769 57 q 472 -4 592 -4 z "},"ẞ":{"ha":938,"x_min":44,"x_max":894,"o":"m 190 0 q 83 38 122 0 q 44 147 44 75 l 44 814 q 88 962 44 913 q 238 1011 132 1011 l 649 1011 q 801 977 751 1011 q 850 853 850 943 q 832 776 850 817 q 791 699 814 736 q 751 631 768 661 l 692 525 l 692 508 q 783 488 736 508 q 863 415 831 468 q 894 261 894 363 q 828 63 894 126 q 632 0 761 0 l 521 0 q 401 52 439 0 q 363 174 363 104 q 401 292 363 244 q 521 340 439 340 l 619 340 q 703 404 703 340 q 619 468 703 468 l 582 468 q 531 487 550 468 q 511 533 513 506 q 525 585 510 561 l 574 657 q 585 715 597 693 q 536 736 572 736 l 414 736 q 349 719 367 736 q 332 650 332 703 l 332 147 q 293 38 332 75 q 190 0 254 0 z "},"T":{"ha":938,"x_min":13,"x_max":925,"o":"m 169 703 q 56 743 100 703 q 13 854 13 783 q 52 966 13 924 q 169 1008 92 1008 l 768 1008 q 885 966 846 1008 q 925 854 925 924 q 881 743 925 783 q 768 703 838 703 q 692 713 721 703 q 646 738 664 724 q 611 763 628 753 q 569 774 594 774 l 557 749 q 576 713 563 736 q 603 648 590 690 q 615 533 615 606 l 615 132 q 573 38 615 75 q 469 0 531 0 q 365 38 407 0 q 322 132 322 75 l 322 533 q 335 648 322 606 q 362 713 347 690 q 382 749 376 736 l 368 774 q 326 763 343 774 q 292 738 310 753 q 246 713 274 724 q 169 703 218 703 z "},"U":{"ha":922,"x_min":44,"x_max":879,"o":"m 467 -4 q 308 18 383 -3 q 172 86 232 39 q 78 213 113 133 q 44 408 44 292 l 44 879 q 88 978 44 946 q 190 1011 132 1011 q 292 978 247 1011 q 336 879 336 946 l 336 474 q 383 329 336 375 q 503 288 429 283 q 615 347 581 293 q 633 492 649 401 q 612 594 624 553 q 588 669 600 636 q 568 734 576 701 q 556 811 560 767 q 594 958 547 904 q 717 1011 640 1011 q 836 960 793 1011 q 879 804 879 908 l 879 408 q 847 212 879 292 q 756 84 814 132 q 624 16 699 36 q 467 -4 550 -4 z "},"Ú":{"ha":922,"x_min":44,"x_max":879,"o":"m 467 -4 q 308 18 383 -3 q 172 86 232 39 q 78 213 113 133 q 44 408 44 292 l 44 879 q 88 978 44 946 q 190 1011 132 1011 q 292 978 247 1011 q 336 879 336 946 l 336 474 q 383 329 336 375 q 503 288 429 283 q 615 347 581 293 q 633 492 649 401 q 612 594 624 553 q 588 669 600 636 q 568 734 576 701 q 556 811 560 767 q 594 958 547 904 q 717 1011 640 1011 q 836 960 793 1011 q 879 804 879 908 l 879 408 q 847 212 879 292 q 756 84 814 132 q 624 16 699 36 q 467 -4 550 -4 m 306 1114 q 306 1183 292 1153 q 357 1236 321 1214 q 444 1287 401 1263 q 544 1342 486 1311 q 656 1364 601 1374 q 733 1299 710 1354 q 742 1196 761 1242 q 660 1125 722 1150 q 537 1081 604 1101 q 421 1053 469 1061 q 352 1060 383 1047 q 306 1114 321 1074 z "},"Û":{"ha":922,"x_min":44,"x_max":879,"o":"m 467 -4 q 308 18 383 -3 q 172 86 232 39 q 78 213 113 133 q 44 408 44 292 l 44 879 q 88 978 44 946 q 190 1011 132 1011 q 292 978 247 1011 q 336 879 336 946 l 336 474 q 383 329 336 375 q 503 288 429 283 q 615 347 581 293 q 633 492 649 401 q 612 594 624 553 q 588 669 600 636 q 568 734 576 701 q 556 811 560 767 q 594 958 547 904 q 717 1011 640 1011 q 836 960 793 1011 q 879 804 879 908 l 879 408 q 847 212 879 292 q 756 84 814 132 q 624 16 699 36 q 467 -4 550 -4 m 183 1154 q 199 1215 183 1186 q 238 1267 214 1244 q 343 1356 285 1315 q 463 1396 401 1396 q 592 1354 524 1396 q 708 1239 660 1313 q 730 1172 729 1207 q 712 1107 731 1136 q 656 1064 693 1078 q 560 1070 604 1046 q 490 1165 515 1094 q 452 1262 471 1224 q 406 1283 433 1300 q 393 1256 390 1274 q 404 1213 396 1239 q 413 1153 413 1188 q 379 1078 413 1104 q 294 1053 346 1053 q 210 1084 236 1053 q 183 1154 183 1115 z "},"Ü":{"ha":922,"x_min":44,"x_max":879,"o":"m 467 -4 q 308 18 383 -3 q 172 86 232 39 q 78 213 113 133 q 44 408 44 292 l 44 879 q 88 978 44 946 q 190 1011 132 1011 q 292 978 247 1011 q 336 879 336 946 l 336 474 q 383 329 336 375 q 503 288 429 283 q 615 347 581 293 q 633 492 649 401 q 612 594 624 553 q 588 669 600 636 q 568 734 576 701 q 556 811 560 767 q 594 958 547 904 q 717 1011 640 1011 q 836 960 793 1011 q 879 804 879 908 l 879 408 q 847 212 879 292 q 756 84 814 132 q 624 16 699 36 q 467 -4 550 -4 m 183 1169 q 218 1258 183 1224 q 313 1292 253 1292 q 405 1258 371 1292 q 439 1171 439 1225 q 406 1084 439 1115 q 313 1053 374 1053 q 217 1084 251 1053 q 183 1169 183 1115 m 482 1169 q 517 1258 482 1224 q 613 1292 553 1292 q 703 1258 669 1292 q 738 1171 738 1225 q 706 1084 738 1115 q 613 1053 674 1053 q 515 1084 549 1053 q 482 1169 482 1115 z "},"Ù":{"ha":922,"x_min":44,"x_max":879,"o":"m 467 -4 q 308 18 383 -3 q 172 86 232 39 q 78 213 113 133 q 44 408 44 292 l 44 879 q 88 978 44 946 q 190 1011 132 1011 q 292 978 247 1011 q 336 879 336 946 l 336 474 q 383 329 336 375 q 503 288 429 283 q 615 347 581 293 q 633 492 649 401 q 612 594 624 553 q 588 669 600 636 q 568 734 576 701 q 556 811 560 767 q 594 958 547 904 q 717 1011 640 1011 q 836 960 793 1011 q 879 804 879 908 l 879 408 q 847 212 879 292 q 756 84 814 132 q 624 16 699 36 q 467 -4 550 -4 m 201 1299 q 279 1364 225 1354 q 392 1342 333 1374 q 492 1287 450 1311 q 578 1236 535 1263 q 629 1183 614 1214 q 631 1114 644 1153 q 583 1060 615 1074 q 514 1053 551 1047 q 399 1081 467 1061 q 275 1125 331 1101 q 194 1196 214 1150 q 201 1299 175 1242 z "},"V":{"ha":976,"x_min":19,"x_max":944,"o":"m 518 -4 q 365 32 425 -4 q 266 136 304 68 q 197 301 228 204 l 42 800 q 45 922 19 869 q 138 993 71 974 q 249 985 199 1011 q 317 899 299 960 l 468 418 q 528 315 492 340 q 608 303 565 289 q 665 353 653 315 q 658 469 678 392 q 615 688 626 608 q 604 813 604 767 q 647 947 604 890 q 778 1003 689 1003 q 905 947 865 1003 q 944 813 944 890 q 932 718 944 767 q 903 618 919 669 l 779 244 q 724 113 754 169 q 647 26 694 57 q 518 -4 599 -4 z "},"W":{"ha":1292,"x_min":22,"x_max":1260,"o":"m 436 -4 q 303 38 351 -4 q 226 152 254 79 q 172 318 197 225 l 38 818 q 44 927 22 876 q 132 994 67 978 q 240 986 193 1011 q 304 899 288 961 l 429 442 q 465 354 446 382 q 525 336 483 326 q 567 379 564 346 q 553 474 569 413 l 464 811 q 469 931 446 881 q 560 997 492 982 q 672 980 629 1014 q 729 885 714 946 l 842 442 q 881 350 860 374 q 938 336 903 326 q 975 380 976 347 q 965 475 974 413 q 944 635 953 572 q 930 739 935 697 q 925 815 925 781 q 971 948 925 893 q 1096 1003 1017 1003 q 1218 953 1176 1003 q 1260 818 1260 904 q 1244 701 1260 763 q 1213 586 1228 640 l 1135 318 q 1083 153 1108 226 q 1014 38 1057 81 q 892 -4 971 -4 q 742 56 796 -4 q 658 251 688 115 l 649 251 q 575 56 621 115 q 436 -4 529 -4 z "},"Ẃ":{"ha":1292,"x_min":22,"x_max":1260,"o":"m 436 -4 q 303 38 351 -4 q 226 152 254 79 q 172 318 197 225 l 38 818 q 44 927 22 876 q 132 994 67 978 q 240 986 193 1011 q 304 899 288 961 l 429 442 q 465 354 446 382 q 525 336 483 326 q 567 379 564 346 q 553 474 569 413 l 464 811 q 469 931 446 881 q 560 997 492 982 q 672 980 629 1014 q 729 885 714 946 l 842 442 q 881 350 860 374 q 938 336 903 326 q 975 380 976 347 q 965 475 974 413 q 944 635 953 572 q 930 739 935 697 q 925 815 925 781 q 971 948 925 893 q 1096 1003 1017 1003 q 1218 953 1176 1003 q 1260 818 1260 904 q 1244 701 1260 763 q 1213 586 1228 640 l 1135 318 q 1083 153 1108 226 q 1014 38 1057 81 q 892 -4 971 -4 q 742 56 796 -4 q 658 251 688 115 l 649 251 q 575 56 621 115 q 436 -4 529 -4 m 490 1114 q 491 1183 476 1153 q 542 1236 506 1214 q 628 1287 586 1263 q 729 1342 671 1311 q 840 1364 786 1374 q 918 1299 894 1354 q 926 1196 946 1242 q 844 1125 907 1150 q 722 1081 789 1101 q 606 1053 654 1061 q 537 1060 568 1047 q 490 1114 506 1074 z "},"Ŵ":{"ha":1292,"x_min":22,"x_max":1260,"o":"m 436 -4 q 303 38 351 -4 q 226 152 254 79 q 172 318 197 225 l 38 818 q 44 927 22 876 q 132 994 67 978 q 240 986 193 1011 q 304 899 288 961 l 429 442 q 465 354 446 382 q 525 336 483 326 q 567 379 564 346 q 553 474 569 413 l 464 811 q 469 931 446 881 q 560 997 492 982 q 672 980 629 1014 q 729 885 714 946 l 842 442 q 881 350 860 374 q 938 336 903 326 q 975 380 976 347 q 965 475 974 413 q 944 635 953 572 q 930 739 935 697 q 925 815 925 781 q 971 948 925 893 q 1096 1003 1017 1003 q 1218 953 1176 1003 q 1260 818 1260 904 q 1244 701 1260 763 q 1213 586 1228 640 l 1135 318 q 1083 153 1108 226 q 1014 38 1057 81 q 892 -4 971 -4 q 742 56 796 -4 q 658 251 688 115 l 649 251 q 575 56 621 115 q 436 -4 529 -4 m 368 1154 q 383 1215 368 1186 q 422 1267 399 1244 q 528 1356 469 1315 q 647 1396 586 1396 q 776 1354 708 1396 q 893 1239 844 1313 q 915 1172 914 1207 q 897 1107 915 1136 q 840 1064 878 1078 q 744 1070 789 1046 q 675 1165 700 1094 q 637 1262 656 1224 q 590 1283 618 1300 q 578 1256 575 1274 q 589 1213 581 1239 q 597 1153 597 1188 q 564 1078 597 1104 q 479 1053 531 1053 q 394 1084 421 1053 q 368 1154 368 1115 z "},"Ẅ":{"ha":1292,"x_min":22,"x_max":1260,"o":"m 436 -4 q 303 38 351 -4 q 226 152 254 79 q 172 318 197 225 l 38 818 q 44 927 22 876 q 132 994 67 978 q 240 986 193 1011 q 304 899 288 961 l 429 442 q 465 354 446 382 q 525 336 483 326 q 567 379 564 346 q 553 474 569 413 l 464 811 q 469 931 446 881 q 560 997 492 982 q 672 980 629 1014 q 729 885 714 946 l 842 442 q 881 350 860 374 q 938 336 903 326 q 975 380 976 347 q 965 475 974 413 q 944 635 953 572 q 930 739 935 697 q 925 815 925 781 q 971 948 925 893 q 1096 1003 1017 1003 q 1218 953 1176 1003 q 1260 818 1260 904 q 1244 701 1260 763 q 1213 586 1228 640 l 1135 318 q 1083 153 1108 226 q 1014 38 1057 81 q 892 -4 971 -4 q 742 56 796 -4 q 658 251 688 115 l 649 251 q 575 56 621 115 q 436 -4 529 -4 m 368 1169 q 403 1258 368 1224 q 497 1292 438 1292 q 590 1258 556 1292 q 624 1171 624 1225 q 591 1084 624 1115 q 497 1053 558 1053 q 402 1084 436 1053 q 368 1169 368 1115 m 667 1169 q 702 1258 667 1224 q 797 1292 738 1292 q 888 1258 854 1292 q 922 1171 922 1225 q 890 1084 922 1115 q 797 1053 858 1053 q 700 1084 733 1053 q 667 1169 667 1115 z "},"Ẁ":{"ha":1292,"x_min":22,"x_max":1260,"o":"m 436 -4 q 303 38 351 -4 q 226 152 254 79 q 172 318 197 225 l 38 818 q 44 927 22 876 q 132 994 67 978 q 240 986 193 1011 q 304 899 288 961 l 429 442 q 465 354 446 382 q 525 336 483 326 q 567 379 564 346 q 553 474 569 413 l 464 811 q 469 931 446 881 q 560 997 492 982 q 672 980 629 1014 q 729 885 714 946 l 842 442 q 881 350 860 374 q 938 336 903 326 q 975 380 976 347 q 965 475 974 413 q 944 635 953 572 q 930 739 935 697 q 925 815 925 781 q 971 948 925 893 q 1096 1003 1017 1003 q 1218 953 1176 1003 q 1260 818 1260 904 q 1244 701 1260 763 q 1213 586 1228 640 l 1135 318 q 1083 153 1108 226 q 1014 38 1057 81 q 892 -4 971 -4 q 742 56 796 -4 q 658 251 688 115 l 649 251 q 575 56 621 115 q 436 -4 529 -4 m 386 1299 q 464 1364 410 1354 q 576 1342 518 1374 q 677 1287 635 1311 q 763 1236 719 1263 q 814 1183 799 1214 q 815 1114 829 1153 q 768 1060 800 1074 q 699 1053 736 1047 q 583 1081 651 1061 q 460 1125 515 1101 q 379 1196 399 1150 q 386 1299 360 1242 z "},"X":{"ha":943,"x_min":19,"x_max":921,"o":"m 72 292 q 186 409 124 360 q 325 506 249 458 q 249 575 290 544 q 167 638 208 606 q 89 715 126 671 q 39 812 53 761 q 40 910 25 863 q 100 988 54 957 q 201 1013 150 1022 q 299 965 253 1004 q 378 865 344 925 q 438 765 408 813 q 494 676 467 717 q 549 745 532 713 q 578 817 565 778 q 617 907 592 856 q 674 978 638 951 q 757 1010 711 1006 q 847 986 803 1014 q 906 913 892 960 q 908 814 921 867 q 856 714 894 761 q 748 620 811 661 q 615 547 685 579 q 750 426 685 483 q 868 294 815 369 q 917 143 921 219 q 849 24 914 67 q 708 7 781 -19 q 582 114 636 33 q 495 253 529 194 q 429 365 461 313 q 410 301 418 338 q 390 218 403 265 q 346 108 376 171 q 276 26 321 54 q 181 -1 232 -3 q 82 36 129 1 q 31 110 43 67 q 31 202 19 154 q 72 292 42 250 z "},"Y":{"ha":972,"x_min":17,"x_max":956,"o":"m 57 743 q 39 898 17 829 q 124 994 61 967 q 253 995 188 1022 q 350 882 319 968 q 372 783 365 839 q 388 674 379 726 q 419 588 397 622 q 486 554 440 554 q 554 588 532 554 q 585 674 576 622 q 601 783 594 726 q 622 882 607 839 q 719 995 654 968 q 849 994 785 1022 q 933 898 911 967 q 915 743 956 829 q 860 659 894 699 q 786 578 826 619 q 706 485 746 536 q 632 369 665 435 l 632 132 q 590 38 632 75 q 486 0 549 0 q 383 38 425 0 q 340 132 340 75 l 340 369 q 268 485 308 435 q 188 578 228 536 q 113 659 147 619 q 57 743 78 699 z "},"Ý":{"ha":972,"x_min":17,"x_max":956,"o":"m 57 743 q 39 898 17 829 q 124 994 61 967 q 253 995 188 1022 q 350 882 319 968 q 372 783 365 839 q 388 674 379 726 q 419 588 397 622 q 486 554 440 554 q 554 588 532 554 q 585 674 576 622 q 601 783 594 726 q 622 882 607 839 q 719 995 654 968 q 849 994 785 1022 q 933 898 911 967 q 915 743 956 829 q 860 659 894 699 q 786 578 826 619 q 706 485 746 536 q 632 369 665 435 l 632 132 q 590 38 632 75 q 486 0 549 0 q 383 38 425 0 q 340 132 340 75 l 340 369 q 268 485 308 435 q 188 578 228 536 q 113 659 147 619 q 57 743 78 699 m 331 1114 q 331 1183 317 1153 q 382 1236 346 1214 q 469 1287 426 1263 q 569 1342 511 1311 q 681 1364 626 1374 q 758 1299 735 1354 q 767 1196 786 1242 q 685 1125 747 1150 q 562 1081 629 1101 q 446 1053 494 1061 q 377 1060 408 1047 q 331 1114 346 1074 z "},"Ŷ":{"ha":972,"x_min":17,"x_max":956,"o":"m 57 743 q 39 898 17 829 q 124 994 61 967 q 253 995 188 1022 q 350 882 319 968 q 372 783 365 839 q 388 674 379 726 q 419 588 397 622 q 486 554 440 554 q 554 588 532 554 q 585 674 576 622 q 601 783 594 726 q 622 882 607 839 q 719 995 654 968 q 849 994 785 1022 q 933 898 911 967 q 915 743 956 829 q 860 659 894 699 q 786 578 826 619 q 706 485 746 536 q 632 369 665 435 l 632 132 q 590 38 632 75 q 486 0 549 0 q 383 38 425 0 q 340 132 340 75 l 340 369 q 268 485 308 435 q 188 578 228 536 q 113 659 147 619 q 57 743 78 699 m 208 1154 q 224 1215 208 1186 q 263 1267 239 1244 q 368 1356 310 1315 q 488 1396 426 1396 q 617 1354 549 1396 q 733 1239 685 1313 q 755 1172 754 1207 q 737 1107 756 1136 q 681 1064 718 1078 q 585 1070 629 1046 q 515 1165 540 1094 q 477 1262 496 1224 q 431 1283 458 1300 q 418 1256 415 1274 q 429 1213 421 1239 q 438 1153 438 1188 q 404 1078 438 1104 q 319 1053 371 1053 q 235 1084 261 1053 q 208 1154 208 1115 z "},"Ÿ":{"ha":972,"x_min":17,"x_max":956,"o":"m 57 743 q 39 898 17 829 q 124 994 61 967 q 253 995 188 1022 q 350 882 319 968 q 372 783 365 839 q 388 674 379 726 q 419 588 397 622 q 486 554 440 554 q 554 588 532 554 q 585 674 576 622 q 601 783 594 726 q 622 882 607 839 q 719 995 654 968 q 849 994 785 1022 q 933 898 911 967 q 915 743 956 829 q 860 659 894 699 q 786 578 826 619 q 706 485 746 536 q 632 369 665 435 l 632 132 q 590 38 632 75 q 486 0 549 0 q 383 38 425 0 q 340 132 340 75 l 340 369 q 268 485 308 435 q 188 578 228 536 q 113 659 147 619 q 57 743 78 699 m 208 1169 q 243 1258 208 1224 q 338 1292 278 1292 q 430 1258 396 1292 q 464 1171 464 1225 q 431 1084 464 1115 q 338 1053 399 1053 q 242 1084 276 1053 q 208 1169 208 1115 m 507 1169 q 542 1258 507 1224 q 638 1292 578 1292 q 728 1258 694 1292 q 763 1171 763 1225 q 731 1084 763 1115 q 638 1053 699 1053 q 540 1084 574 1053 q 507 1169 507 1115 z "},"Ỳ":{"ha":972,"x_min":17,"x_max":956,"o":"m 57 743 q 39 898 17 829 q 124 994 61 967 q 253 995 188 1022 q 350 882 319 968 q 372 783 365 839 q 388 674 379 726 q 419 588 397 622 q 486 554 440 554 q 554 588 532 554 q 585 674 576 622 q 601 783 594 726 q 622 882 607 839 q 719 995 654 968 q 849 994 785 1022 q 933 898 911 967 q 915 743 956 829 q 860 659 894 699 q 786 578 826 619 q 706 485 746 536 q 632 369 665 435 l 632 132 q 590 38 632 75 q 486 0 549 0 q 383 38 425 0 q 340 132 340 75 l 340 369 q 268 485 308 435 q 188 578 228 536 q 113 659 147 619 q 57 743 78 699 m 226 1299 q 304 1364 250 1354 q 417 1342 358 1374 q 517 1287 475 1311 q 603 1236 560 1263 q 654 1183 639 1214 q 656 1114 669 1153 q 608 1060 640 1074 q 539 1053 576 1047 q 424 1081 492 1061 q 300 1125 356 1101 q 219 1196 239 1150 q 226 1299 200 1242 z "},"Z":{"ha":857,"x_min":25,"x_max":832,"o":"m 196 3 q 69 49 113 3 q 25 169 25 96 q 42 244 25 213 q 85 301 60 276 q 133 349 110 326 l 468 676 l 460 703 l 182 703 q 77 742 118 703 q 33 853 36 782 q 75 965 32 922 q 182 1008 118 1008 l 644 1008 q 763 968 724 1008 q 801 854 801 928 q 772 755 801 801 q 707 674 743 708 l 351 324 q 336 288 335 307 q 353 260 338 269 q 394 260 369 250 q 481 300 440 279 q 560 335 521 321 q 643 350 600 350 q 785 299 738 350 q 832 175 832 249 q 785 52 832 101 q 643 3 738 3 l 196 3 z "},"a":{"ha":765,"x_min":25,"x_max":731,"o":"m 243 0 q 83 56 140 0 q 25 211 25 111 q 92 356 25 311 q 263 401 158 401 q 374 393 324 401 q 464 369 424 385 l 468 369 l 468 390 q 444 441 468 422 q 385 458 421 460 q 326 454 350 458 q 265 440 301 450 q 150 443 199 424 q 83 519 101 463 q 91 619 67 579 q 165 682 115 660 q 262 717 208 703 q 378 731 315 731 q 645 642 560 731 q 731 347 731 554 l 731 132 q 696 38 731 75 q 600 0 661 0 q 501 38 533 0 q 468 129 468 75 l 468 161 l 440 161 q 427 88 440 125 q 373 25 414 50 q 243 0 332 0 m 257 304 q 274 271 257 281 q 350 261 292 261 q 424 271 403 261 q 444 304 444 281 q 424 335 444 326 q 350 344 403 344 q 274 335 292 344 q 257 304 257 326 z "},"á":{"ha":765,"x_min":25,"x_max":731,"o":"m 243 0 q 83 56 140 0 q 25 211 25 111 q 92 356 25 311 q 263 401 158 401 q 374 393 324 401 q 464 369 424 385 l 468 369 l 468 390 q 444 441 468 422 q 385 458 421 460 q 326 454 350 458 q 265 440 301 450 q 150 443 199 424 q 83 519 101 463 q 91 619 67 579 q 165 682 115 660 q 262 717 208 703 q 378 731 315 731 q 645 642 560 731 q 731 347 731 554 l 731 132 q 696 38 731 75 q 600 0 661 0 q 501 38 533 0 q 468 129 468 75 l 468 161 l 440 161 q 427 88 440 125 q 373 25 414 50 q 243 0 332 0 m 257 304 q 274 271 257 281 q 350 261 292 261 q 424 271 403 261 q 444 304 444 281 q 424 335 444 326 q 350 344 403 344 q 274 335 292 344 q 257 304 257 326 m 282 938 q 360 983 321 961 q 450 1033 399 1004 q 551 1053 503 1063 q 622 993 600 1044 q 629 901 646 942 q 556 836 613 860 q 444 797 506 815 q 339 772 382 779 q 276 778 306 767 q 233 826 247 790 q 235 890 221 863 q 282 938 249 918 z "},"â":{"ha":765,"x_min":25,"x_max":731,"o":"m 243 0 q 83 56 140 0 q 25 211 25 111 q 92 356 25 311 q 263 401 158 401 q 374 393 324 401 q 464 369 424 385 l 468 369 l 468 390 q 444 441 468 422 q 385 458 421 460 q 326 454 350 458 q 265 440 301 450 q 150 443 199 424 q 83 519 101 463 q 91 619 67 579 q 165 682 115 660 q 262 717 208 703 q 378 731 315 731 q 645 642 560 731 q 731 347 731 554 l 731 132 q 696 38 731 75 q 600 0 661 0 q 501 38 533 0 q 468 129 468 75 l 468 161 l 440 161 q 427 88 440 125 q 373 25 414 50 q 243 0 332 0 m 257 304 q 274 271 257 281 q 350 261 292 261 q 424 271 403 261 q 444 304 444 281 q 424 335 444 326 q 350 344 403 344 q 274 335 292 344 q 257 304 257 326 m 218 771 q 141 798 165 771 q 117 860 117 825 q 131 915 117 888 q 167 964 146 942 q 265 1046 210 1008 q 376 1083 319 1083 q 494 1045 431 1083 q 603 938 557 1007 q 619 850 632 894 q 554 785 606 806 q 467 788 508 767 q 401 872 425 810 q 364 959 381 924 q 324 979 347 994 q 310 953 308 969 q 321 915 313 938 q 329 860 329 892 q 297 792 329 813 q 218 771 265 771 z "},"ä":{"ha":765,"x_min":25,"x_max":731,"o":"m 243 0 q 83 56 140 0 q 25 211 25 111 q 92 356 25 311 q 263 401 158 401 q 374 393 324 401 q 464 369 424 385 l 468 369 l 468 390 q 444 441 468 422 q 385 458 421 460 q 326 454 350 458 q 265 440 301 450 q 150 443 199 424 q 83 519 101 463 q 91 619 67 579 q 165 682 115 660 q 262 717 208 703 q 378 731 315 731 q 645 642 560 731 q 731 347 731 554 l 731 132 q 696 38 731 75 q 600 0 661 0 q 501 38 533 0 q 468 129 468 75 l 468 161 l 440 161 q 427 88 440 125 q 373 25 414 50 q 243 0 332 0 m 257 304 q 274 271 257 281 q 350 261 292 261 q 424 271 403 261 q 444 304 444 281 q 424 335 444 326 q 350 344 403 344 q 274 335 292 344 q 257 304 257 326 m 240 771 q 148 801 181 771 q 115 883 115 832 q 149 969 115 936 q 240 1003 182 1003 q 328 970 296 1003 q 361 885 361 938 q 330 802 361 833 q 240 771 299 771 m 390 883 q 424 969 390 936 q 515 1003 457 1003 q 603 970 571 1003 q 636 885 636 938 q 605 802 636 833 q 515 771 574 771 q 423 801 456 771 q 390 883 390 832 z "},"à":{"ha":765,"x_min":25,"x_max":731,"o":"m 243 0 q 83 56 140 0 q 25 211 25 111 q 92 356 25 311 q 263 401 158 401 q 374 393 324 401 q 464 369 424 385 l 468 369 l 468 390 q 444 441 468 422 q 385 458 421 460 q 326 454 350 458 q 265 440 301 450 q 150 443 199 424 q 83 519 101 463 q 91 619 67 579 q 165 682 115 660 q 262 717 208 703 q 378 731 315 731 q 645 642 560 731 q 731 347 731 554 l 731 132 q 696 38 731 75 q 600 0 661 0 q 501 38 533 0 q 468 129 468 75 l 468 161 l 440 161 q 427 88 440 125 q 373 25 414 50 q 243 0 332 0 m 257 304 q 274 271 257 281 q 350 261 292 261 q 424 271 403 261 q 444 304 444 281 q 424 335 444 326 q 350 344 403 344 q 274 335 292 344 q 257 304 257 326 m 475 939 q 522 892 508 919 q 524 828 536 864 q 481 780 510 792 q 418 774 451 768 q 313 799 375 781 q 201 838 251 817 q 128 902 146 861 q 135 994 111 943 q 206 1055 157 1046 q 307 1035 254 1064 q 398 984 360 1006 q 475 939 436 963 z "},"å":{"ha":765,"x_min":25,"x_max":731,"o":"m 243 0 q 83 56 140 0 q 25 211 25 111 q 92 356 25 311 q 263 401 158 401 q 374 393 324 401 q 464 369 424 385 l 468 369 l 468 390 q 444 441 468 422 q 385 458 421 460 q 326 454 350 458 q 265 440 301 450 q 150 443 199 424 q 83 519 101 463 q 91 619 67 579 q 165 682 115 660 q 262 717 208 703 q 378 731 315 731 q 645 642 560 731 q 731 347 731 554 l 731 132 q 696 38 731 75 q 600 0 661 0 q 501 38 533 0 q 468 129 468 75 l 468 161 l 440 161 q 427 88 440 125 q 373 25 414 50 q 243 0 332 0 m 257 304 q 274 271 257 281 q 350 261 292 261 q 424 271 403 261 q 444 304 444 281 q 424 335 444 326 q 350 344 403 344 q 274 335 292 344 q 257 304 257 326 m 376 771 q 250 810 297 771 q 203 924 203 849 q 253 1035 203 994 q 376 1075 303 1075 q 500 1035 450 1075 q 550 924 550 994 q 502 810 550 849 q 376 771 454 771 m 294 910 q 313 883 294 892 q 376 875 331 875 q 440 883 422 875 q 457 910 457 892 q 440 935 457 926 q 376 943 422 943 q 313 935 331 943 q 294 910 294 926 z "},"ã":{"ha":765,"x_min":25,"x_max":731,"o":"m 243 0 q 83 56 140 0 q 25 211 25 111 q 92 356 25 311 q 263 401 158 401 q 374 393 324 401 q 464 369 424 385 l 468 369 l 468 390 q 444 441 468 422 q 385 458 421 460 q 326 454 350 458 q 265 440 301 450 q 150 443 199 424 q 83 519 101 463 q 91 619 67 579 q 165 682 115 660 q 262 717 208 703 q 378 731 315 731 q 645 642 560 731 q 731 347 731 554 l 731 132 q 696 38 731 75 q 600 0 661 0 q 501 38 533 0 q 468 129 468 75 l 468 161 l 440 161 q 427 88 440 125 q 373 25 414 50 q 243 0 332 0 m 257 304 q 274 271 257 281 q 350 261 292 261 q 424 271 403 261 q 444 304 444 281 q 424 335 444 326 q 350 344 403 344 q 274 335 292 344 q 257 304 257 326 m 232 999 q 299 985 268 999 q 365 944 331 972 q 408 912 393 924 q 436 901 422 900 q 456 915 449 904 q 471 944 463 925 q 572 1001 499 1014 q 628 970 608 994 q 647 901 647 946 q 615 808 647 844 q 538 771 582 771 q 468 784 500 771 q 397 828 436 797 q 360 855 374 847 q 336 860 347 863 q 297 824 310 856 q 258 776 285 792 q 194 768 231 760 q 138 806 157 776 q 118 869 118 835 q 150 960 118 922 q 232 999 182 999 z "},"æ":{"ha":1150,"x_min":25,"x_max":1125,"o":"m 269 0 q 86 56 147 0 q 25 211 25 111 q 92 356 25 311 q 263 401 158 401 q 401 391 353 401 q 489 369 449 381 l 493 369 l 493 390 q 467 444 493 422 q 386 467 440 467 q 314 460 354 467 q 217 442 274 454 q 110 443 154 428 q 46 514 65 458 q 51 616 28 569 q 121 686 75 663 q 203 718 158 706 q 308 731 247 731 q 465 691 400 731 q 558 599 529 651 q 617 664 576 633 q 713 713 657 694 q 835 732 769 732 q 981 701 917 732 q 1084 615 1046 671 q 1122 483 1122 560 q 1093 397 1122 418 q 1003 375 1064 375 l 701 375 q 730 312 701 339 q 826 285 758 285 q 886 293 861 285 q 935 309 911 301 q 992 317 960 317 q 1085 281 1044 317 q 1125 168 1125 244 q 1046 40 1125 85 q 839 -4 967 -4 q 716 14 776 -4 q 611 67 656 32 q 547 150 567 101 l 519 150 q 458 39 519 78 q 269 0 397 0 m 932 421 q 906 475 932 449 q 819 501 881 501 q 733 475 758 501 q 707 421 707 449 l 932 421 m 299 304 q 316 271 299 281 q 392 261 333 261 q 464 271 443 261 q 485 304 485 281 q 464 335 485 326 q 392 344 443 344 q 316 335 333 344 q 299 304 299 326 z "},"b":{"ha":790,"x_min":38,"x_max":765,"o":"m 519 0 q 408 29 450 0 q 346 106 365 58 q 324 210 326 154 l 297 210 l 297 132 q 263 38 297 75 q 167 0 228 0 q 70 38 103 0 q 38 132 38 75 l 38 932 q 69 1031 38 992 q 167 1071 101 1071 q 265 1031 232 1071 q 297 935 297 992 l 297 514 l 303 513 q 338 619 317 571 q 403 697 360 668 q 522 726 446 726 q 703 630 640 726 q 765 372 765 533 q 702 94 765 188 q 519 0 639 0 m 294 383 q 295 370 294 376 q 297 357 296 364 q 331 313 304 328 q 417 299 358 299 q 512 319 486 299 q 538 383 538 340 q 513 449 538 428 q 418 469 488 469 q 331 455 358 469 q 297 410 304 440 q 295 398 296 404 q 294 383 294 392 z "},"c":{"ha":719,"x_min":25,"x_max":701,"o":"m 394 -4 q 203 41 286 -4 q 72 169 119 86 q 25 365 25 253 q 72 561 25 478 q 203 690 119 644 q 397 736 288 736 q 549 718 483 736 q 653 664 615 700 q 692 574 692 628 q 658 472 692 508 q 563 435 625 435 q 480 447 521 435 q 375 460 439 460 q 286 443 322 460 q 250 382 250 426 q 286 316 250 336 q 375 296 322 296 q 447 304 418 296 q 503 321 476 313 q 563 329 529 329 q 667 288 633 329 q 701 183 701 247 q 661 87 701 129 q 551 20 621 44 q 394 -4 482 -4 z "},"ç":{"ha":719,"x_min":25,"x_max":701,"o":"m 503 -118 q 451 -242 501 -199 q 328 -286 401 -286 q 221 -256 260 -286 q 182 -171 182 -226 q 218 -85 182 -114 q 313 -65 254 -56 q 374 -60 354 -71 q 397 -25 393 -50 q 394 -4 400 -14 q 202 42 285 -4 q 72 170 119 88 q 25 365 25 253 q 72 561 25 478 q 203 690 119 644 q 397 736 288 736 q 549 718 483 736 q 653 664 615 700 q 692 574 692 628 q 658 472 692 508 q 563 435 625 435 q 480 447 521 435 q 375 460 439 460 q 286 443 322 460 q 250 382 250 426 q 286 316 250 336 q 375 296 322 296 q 447 304 418 296 q 503 321 476 313 q 563 329 529 329 q 667 288 633 329 q 701 183 701 247 q 636 65 701 114 q 469 1 571 15 q 503 -118 503 -47 z "},"d":{"ha":807,"x_min":32,"x_max":782,"o":"m 285 0 q 32 372 32 0 q 94 630 32 533 q 282 726 157 726 q 392 699 350 726 q 459 623 435 671 q 494 513 483 575 l 499 514 l 499 935 q 533 1031 499 992 q 632 1071 567 1071 q 727 1031 696 1071 q 758 932 758 992 l 758 307 q 766 220 758 260 q 778 142 774 181 q 756 51 782 89 q 665 1 731 13 q 540 31 581 -12 q 499 158 499 74 l 499 210 l 472 210 q 422 54 472 108 q 285 0 371 0 m 264 385 q 290 321 264 342 q 385 300 317 300 q 481 321 454 300 q 507 385 507 342 q 481 449 507 429 q 386 469 456 469 q 290 449 317 469 q 264 385 264 429 z "},"ð":{"ha":813,"x_min":15,"x_max":815,"o":"m 382 -6 q 115 81 214 -6 q 15 343 15 167 q 51 517 15 444 q 151 630 88 590 q 294 669 214 669 q 374 657 332 669 q 453 614 417 644 q 507 528 489 583 l 518 528 q 496 638 518 592 q 438 724 474 683 q 323 710 381 715 q 214 701 265 704 q 162 719 179 700 q 143 763 144 738 q 159 809 142 790 q 214 826 176 828 q 288 825 246 825 q 357 825 331 825 l 357 826 q 294 937 307 876 q 333 1044 282 997 q 447 1077 386 1093 q 563 1006 507 1061 q 610 950 586 981 q 654 879 633 919 l 706 901 q 771 908 744 918 q 807 865 797 897 q 803 813 815 835 q 751 779 790 790 q 729 774 743 778 q 696 767 715 769 q 726 609 715 699 q 738 403 738 519 q 694 165 738 256 q 572 35 651 75 q 382 -6 493 -6 m 226 363 q 260 301 226 318 q 365 285 293 285 q 472 301 439 285 q 504 363 504 318 q 472 422 504 407 q 365 438 439 438 q 260 422 293 438 q 226 363 226 407 z "},"e":{"ha":731,"x_min":32,"x_max":706,"o":"m 32 361 q 76 554 32 471 q 201 685 119 638 q 394 732 282 732 q 552 700 482 732 q 663 615 622 668 q 703 497 703 561 q 664 403 703 431 q 549 375 625 375 l 257 375 q 285 315 257 339 q 382 292 314 292 q 447 299 417 292 q 508 312 476 306 q 578 318 539 318 q 669 278 633 318 q 706 169 706 239 q 622 42 706 88 q 401 -4 538 -4 q 222 33 306 -4 q 85 152 138 71 q 32 361 32 233 m 482 421 q 496 440 503 421 q 463 481 490 460 q 382 501 435 501 q 291 475 321 501 q 261 421 261 449 l 482 421 z "},"é":{"ha":731,"x_min":32,"x_max":706,"o":"m 32 361 q 76 554 32 471 q 201 685 119 638 q 394 732 282 732 q 552 700 482 732 q 663 615 622 668 q 703 497 703 561 q 664 403 703 431 q 549 375 625 375 l 257 375 q 285 315 257 339 q 382 292 314 292 q 447 299 417 292 q 508 312 476 306 q 578 318 539 318 q 669 278 633 318 q 706 169 706 239 q 622 42 706 88 q 401 -4 538 -4 q 222 33 306 -4 q 85 152 138 71 q 32 361 32 233 m 482 421 q 496 440 503 421 q 463 481 490 460 q 382 501 435 501 q 291 475 321 501 q 261 421 261 449 l 482 421 m 300 938 q 378 983 339 961 q 468 1033 417 1004 q 569 1053 521 1063 q 640 993 618 1044 q 647 901 664 942 q 574 836 631 860 q 462 797 524 815 q 357 772 400 779 q 294 778 324 767 q 251 826 265 790 q 253 890 239 863 q 300 938 267 918 z "},"ê":{"ha":731,"x_min":32,"x_max":706,"o":"m 32 361 q 76 554 32 471 q 201 685 119 638 q 394 732 282 732 q 552 700 482 732 q 663 615 622 668 q 703 497 703 561 q 664 403 703 431 q 549 375 625 375 l 257 375 q 285 315 257 339 q 382 292 314 292 q 447 299 417 292 q 508 312 476 306 q 578 318 539 318 q 669 278 633 318 q 706 169 706 239 q 622 42 706 88 q 401 -4 538 -4 q 222 33 306 -4 q 85 152 138 71 q 32 361 32 233 m 482 421 q 496 440 503 421 q 463 481 490 460 q 382 501 435 501 q 291 475 321 501 q 261 421 261 449 l 482 421 m 236 771 q 159 798 183 771 q 135 860 135 825 q 149 915 135 888 q 185 964 164 942 q 283 1046 228 1008 q 394 1083 338 1083 q 512 1045 449 1083 q 621 938 575 1007 q 637 850 650 894 q 572 785 624 806 q 485 788 526 767 q 419 872 443 810 q 382 959 399 924 q 342 979 365 994 q 328 953 326 969 q 339 915 331 938 q 347 860 347 892 q 315 792 347 813 q 236 771 283 771 z "},"ë":{"ha":731,"x_min":32,"x_max":706,"o":"m 32 361 q 76 554 32 471 q 201 685 119 638 q 394 732 282 732 q 552 700 482 732 q 663 615 622 668 q 703 497 703 561 q 664 403 703 431 q 549 375 625 375 l 257 375 q 285 315 257 339 q 382 292 314 292 q 447 299 417 292 q 508 312 476 306 q 578 318 539 318 q 669 278 633 318 q 706 169 706 239 q 622 42 706 88 q 401 -4 538 -4 q 222 33 306 -4 q 85 152 138 71 q 32 361 32 233 m 482 421 q 496 440 503 421 q 463 481 490 460 q 382 501 435 501 q 291 475 321 501 q 261 421 261 449 l 482 421 m 258 771 q 166 801 199 771 q 133 883 133 832 q 167 969 133 936 q 258 1003 200 1003 q 347 970 314 1003 q 379 885 379 938 q 348 802 379 833 q 258 771 317 771 m 408 883 q 442 969 408 936 q 533 1003 475 1003 q 622 970 589 1003 q 654 885 654 938 q 623 802 654 833 q 533 771 592 771 q 441 801 474 771 q 408 883 408 832 z "},"è":{"ha":731,"x_min":32,"x_max":706,"o":"m 32 361 q 76 554 32 471 q 201 685 119 638 q 394 732 282 732 q 552 700 482 732 q 663 615 622 668 q 703 497 703 561 q 664 403 703 431 q 549 375 625 375 l 257 375 q 285 315 257 339 q 382 292 314 292 q 447 299 417 292 q 508 312 476 306 q 578 318 539 318 q 669 278 633 318 q 706 169 706 239 q 622 42 706 88 q 401 -4 538 -4 q 222 33 306 -4 q 85 152 138 71 q 32 361 32 233 m 482 421 q 496 440 503 421 q 463 481 490 460 q 382 501 435 501 q 291 475 321 501 q 261 421 261 449 l 482 421 m 493 939 q 540 892 526 919 q 542 828 554 864 q 499 780 528 792 q 436 774 469 768 q 331 799 393 781 q 219 838 269 817 q 147 902 164 861 q 153 994 129 943 q 224 1055 175 1046 q 325 1035 272 1064 q 416 984 378 1006 q 493 939 454 963 z "},"f":{"ha":611,"x_min":4,"x_max":600,"o":"m 265 0 q 170 37 207 0 q 133 129 133 74 l 133 439 q 68 449 97 431 q 22 503 39 467 q 4 582 4 539 q 22 662 4 625 q 70 718 40 699 q 136 726 100 738 q 169 909 143 829 q 251 1035 196 989 q 394 1081 306 1081 q 517 1049 471 1081 q 581 972 563 1018 q 593 879 600 926 q 556 799 586 833 q 465 765 525 765 q 396 782 424 765 q 349 823 368 799 q 317 869 331 847 q 246 907 282 925 q 226 876 228 897 q 240 826 225 854 l 271 774 q 321 723 294 735 q 388 717 347 711 l 454 726 q 558 692 518 736 q 599 582 599 647 q 558 473 599 514 q 457 439 517 432 l 399 446 l 399 129 q 363 37 399 74 q 265 0 326 0 z "},"g":{"ha":769,"x_min":18,"x_max":738,"o":"m 361 -286 q 217 -268 276 -286 q 104 -212 158 -250 q 38 -119 57 -179 q 57 1 18 -60 q 113 53 82 39 q 174 65 144 67 q 226 51 204 63 q 302 17 275 28 q 364 7 329 7 q 451 43 415 7 q 486 144 486 79 l 486 257 l 461 257 q 405 141 451 183 q 278 99 358 99 q 158 129 217 99 q 63 226 100 160 q 25 403 25 293 q 96 643 25 564 q 279 722 167 722 q 413 670 357 722 q 468 525 468 618 l 472 526 l 472 604 q 503 690 472 653 q 601 726 535 726 q 703 690 672 726 q 735 604 735 653 l 736 167 q 701 -79 738 22 q 581 -233 664 -181 q 361 -286 499 -286 m 258 426 q 358 351 258 351 q 450 369 424 351 q 476 426 476 388 q 449 482 476 467 q 357 497 422 497 q 284 482 310 497 q 258 426 258 467 z "},"h":{"ha":760,"x_min":38,"x_max":725,"o":"m 169 0 q 73 37 108 0 q 38 128 38 74 l 38 932 q 73 1031 38 990 q 174 1071 108 1071 q 270 1031 238 1071 q 303 931 303 990 l 303 515 l 328 515 q 356 640 328 594 q 430 706 385 686 q 522 726 475 726 q 649 685 606 726 q 709 576 693 644 q 725 428 725 508 l 725 128 q 688 35 725 71 q 590 0 651 0 q 492 35 528 0 q 456 128 456 71 l 456 374 q 436 451 456 424 q 379 479 417 479 q 322 449 342 479 q 303 371 303 418 l 303 128 q 267 37 303 74 q 169 0 232 0 z "},"i":{"ha":340,"x_min":32,"x_max":308,"o":"m 32 888 q 69 984 32 947 q 171 1021 106 1021 q 274 985 240 1021 q 308 889 308 949 q 274 795 308 831 q 171 760 240 760 q 67 795 103 760 q 32 888 32 831 m 171 0 q 74 36 106 0 q 42 126 42 72 l 42 601 q 74 696 42 661 q 171 731 106 731 q 269 696 236 731 q 301 604 301 661 l 301 126 q 267 36 301 72 q 171 0 233 0 z "},"ı":{"ha":322,"x_min":32,"x_max":292,"o":"m 161 0 q 64 36 96 0 q 32 126 32 72 l 32 601 q 64 696 32 661 q 161 731 96 731 q 259 696 226 731 q 292 604 292 661 l 292 126 q 258 36 292 72 q 161 0 224 0 z "},"í":{"ha":322,"x_min":15,"x_max":392,"o":"m 161 0 q 64 36 96 0 q 32 126 32 72 l 32 601 q 64 696 32 661 q 161 731 96 731 q 259 696 226 731 q 292 604 292 661 l 292 126 q 258 36 292 72 q 161 0 224 0 m 65 940 q 133 983 97 961 q 199 1024 169 1006 q 292 1049 244 1051 q 365 1001 339 1046 q 380 909 392 957 q 310 833 368 861 q 227 799 271 815 q 149 775 183 783 q 81 776 113 767 q 33 818 49 785 q 28 890 15 858 q 65 940 40 922 z "},"î":{"ha":322,"x_min":-47,"x_max":378,"o":"m 161 0 q 64 36 96 0 q 32 126 32 72 l 32 601 q 64 696 32 661 q 161 731 96 731 q 259 696 226 731 q 292 604 292 661 l 292 126 q 258 36 292 72 q 161 0 224 0 m -47 857 q -11 956 -47 911 q 74 1045 29 1008 q 164 1082 119 1082 q 255 1043 206 1082 q 347 931 304 1004 q 367 842 378 882 q 307 783 356 803 q 227 786 264 767 q 169 869 190 806 q 147 943 154 919 q 124 956 140 967 q 117 939 113 950 q 131 909 122 928 q 139 860 139 890 q 111 794 139 817 q 49 771 83 771 q -19 794 10 771 q -47 857 -47 818 z "},"ï":{"ha":322,"x_min":-43,"x_max":364,"o":"m 161 0 q 64 36 96 0 q 32 126 32 72 l 32 601 q 64 696 32 661 q 161 731 96 731 q 259 696 226 731 q 292 604 292 661 l 292 126 q 258 36 292 72 q 161 0 224 0 m -43 886 q -16 976 -43 944 q 54 1007 11 1007 q 121 976 96 1007 q 146 886 146 944 q 122 800 146 829 q 54 771 97 771 q -17 800 10 771 q -43 886 -43 829 m 174 886 q 200 976 174 944 q 269 1007 226 1007 q 338 976 311 1007 q 364 886 364 944 q 339 800 364 829 q 269 771 314 771 q 199 800 225 771 q 174 886 174 829 z "},"ì":{"ha":322,"x_min":-68,"x_max":310,"o":"m 161 0 q 64 36 96 0 q 32 126 32 72 l 32 601 q 64 696 32 661 q 161 731 96 731 q 259 696 226 731 q 292 604 292 661 l 292 126 q 258 36 292 72 q 161 0 224 0 m 258 940 q 297 890 283 922 q 290 818 310 858 q 243 776 275 785 q 175 775 211 767 q 97 799 140 783 q 14 833 54 815 q -57 909 -46 861 q -42 1001 -68 957 q 32 1049 -15 1046 q 124 1024 79 1051 q 191 983 154 1006 q 258 940 228 961 z "},"j":{"ha":354,"x_min":-49,"x_max":322,"o":"m 44 888 q 82 983 44 946 q 185 1021 119 1021 q 288 984 254 1021 q 322 889 322 947 q 288 795 322 831 q 185 760 254 760 q 81 795 117 760 q 44 888 44 831 m 118 -289 q 1 -247 50 -289 q -49 -133 -49 -206 q -10 -27 -49 -64 q 83 10 29 10 q 151 -3 124 10 q 197 -31 178 -15 q 242 -54 228 -53 q 264 -46 257 -56 q 236 8 278 -25 l 153 74 q 78 169 100 115 q 56 311 56 222 l 57 604 q 89 697 57 663 q 183 732 121 732 q 281 697 249 732 q 314 606 314 663 l 313 -64 q 257 -235 313 -181 q 118 -289 201 -289 z "},"ȷ":{"ha":346,"x_min":-49,"x_max":314,"o":"m 118 -289 q 1 -247 50 -289 q -49 -133 -49 -206 q -10 -27 -49 -64 q 83 10 29 10 q 151 -3 124 10 q 197 -31 178 -15 q 242 -54 228 -53 q 264 -46 257 -56 q 236 8 278 -25 l 153 74 q 78 169 100 115 q 56 311 56 222 l 57 604 q 89 697 57 663 q 183 732 121 732 q 281 697 249 732 q 314 606 314 663 l 313 -64 q 257 -235 313 -181 q 118 -289 201 -289 z "},"k":{"ha":828,"x_min":38,"x_max":808,"o":"m 171 0 q 74 37 110 0 q 38 128 38 74 l 38 932 q 73 1031 38 990 q 174 1071 108 1071 q 270 1031 238 1071 q 303 931 303 990 l 303 510 l 307 508 q 343 616 314 567 q 425 696 372 665 q 554 726 478 726 q 719 669 657 726 q 782 514 782 613 q 755 406 782 446 q 682 351 728 367 q 581 338 636 336 l 581 314 q 756 265 704 314 q 808 140 808 215 q 767 33 808 71 q 667 -3 725 -4 q 561 35 603 -1 q 492 132 519 71 l 432 258 q 385 313 414 296 q 303 325 357 329 l 303 128 q 267 37 303 74 q 171 0 232 0 m 332 419 q 352 391 332 400 q 436 382 372 382 q 519 390 499 382 q 540 419 540 399 q 519 449 540 439 q 438 458 499 458 q 352 449 372 458 q 332 419 332 439 z "},"l":{"ha":328,"x_min":32,"x_max":296,"o":"m 168 0 q 66 36 100 0 q 32 126 32 72 l 32 932 q 66 1031 32 992 q 168 1071 100 1071 q 263 1031 229 1071 q 296 935 296 992 l 296 126 q 263 36 296 72 q 168 0 229 0 z "},"m":{"ha":1117,"x_min":32,"x_max":1082,"o":"m 168 0 q 69 37 106 0 q 32 128 32 74 l 32 588 q 67 686 32 646 q 168 726 103 726 q 264 686 232 726 q 296 585 296 646 l 296 515 l 321 515 q 371 680 321 633 q 494 726 421 726 q 633 668 589 726 q 678 515 678 610 l 703 515 q 729 640 703 594 q 797 706 756 686 q 882 726 838 726 q 1015 683 972 726 q 1069 568 1057 640 q 1082 406 1082 496 l 1082 128 q 1045 37 1082 74 q 947 0 1008 0 q 849 37 886 0 q 811 128 811 74 l 811 374 q 799 451 811 424 q 749 479 786 479 q 697 449 708 479 q 685 371 685 418 l 685 128 q 650 37 685 74 q 554 0 615 0 q 455 37 492 0 q 418 128 418 74 l 418 374 q 406 451 418 424 q 357 479 393 479 q 306 449 317 479 q 296 371 296 418 l 296 128 q 263 37 296 74 q 168 0 229 0 z "},"n":{"ha":760,"x_min":38,"x_max":725,"o":"m 172 0 q 74 37 111 0 q 38 128 38 74 l 38 588 q 72 686 38 646 q 172 726 107 726 q 269 686 236 726 q 303 585 303 646 l 303 515 l 328 515 q 356 640 328 594 q 429 706 385 686 q 518 726 474 726 q 675 649 625 726 q 725 431 725 572 l 725 128 q 689 37 725 74 q 592 0 653 0 q 492 37 529 0 q 456 128 456 74 l 456 374 q 437 451 456 424 q 382 479 418 479 q 322 449 340 479 q 303 371 303 418 l 303 128 q 268 37 303 74 q 172 0 233 0 z "},"ñ":{"ha":760,"x_min":38,"x_max":725,"o":"m 172 0 q 74 37 111 0 q 38 128 38 74 l 38 588 q 72 686 38 646 q 172 726 107 726 q 269 686 236 726 q 303 585 303 646 l 303 515 l 328 515 q 356 640 328 594 q 429 706 385 686 q 518 726 474 726 q 675 649 625 726 q 725 431 725 572 l 725 128 q 689 37 725 74 q 592 0 653 0 q 492 37 529 0 q 456 128 456 74 l 456 374 q 437 451 456 424 q 382 479 418 479 q 322 449 340 479 q 303 371 303 418 l 303 128 q 268 37 303 74 q 172 0 233 0 m 236 999 q 303 985 272 999 q 369 944 335 972 q 412 912 397 924 q 440 901 426 900 q 460 915 453 904 q 475 944 467 925 q 576 1001 503 1014 q 632 970 613 994 q 651 901 651 946 q 619 808 651 844 q 542 771 586 771 q 472 784 504 771 q 401 828 440 797 q 365 855 378 847 q 340 860 351 863 q 301 824 314 856 q 262 776 289 792 q 199 768 235 760 q 142 806 161 776 q 122 869 122 835 q 154 960 122 922 q 236 999 186 999 z "},"o":{"ha":775,"x_min":32,"x_max":744,"o":"m 388 -3 q 128 94 225 -3 q 32 367 32 190 q 76 557 32 475 q 201 685 121 639 q 388 732 281 732 q 586 685 507 732 q 705 557 665 639 q 744 367 744 475 q 656 94 744 190 q 388 -3 568 -3 m 197 390 q 240 330 197 347 q 388 313 283 313 q 535 330 492 313 q 578 390 578 347 q 535 449 578 432 q 388 465 492 465 q 240 449 283 465 q 197 390 197 432 z "},"ó":{"ha":775,"x_min":32,"x_max":744,"o":"m 388 -3 q 128 94 225 -3 q 32 367 32 190 q 76 557 32 475 q 201 685 121 639 q 388 732 281 732 q 586 685 507 732 q 705 557 665 639 q 744 367 744 475 q 656 94 744 190 q 388 -3 568 -3 m 197 390 q 240 330 197 347 q 388 313 283 313 q 535 330 492 313 q 578 390 578 347 q 535 449 578 432 q 388 465 492 465 q 240 449 283 465 q 197 390 197 432 m 293 938 q 371 983 332 961 q 461 1033 410 1004 q 563 1053 514 1063 q 633 993 611 1044 q 640 901 657 942 q 567 836 624 860 q 455 797 517 815 q 350 772 393 779 q 288 778 317 767 q 244 826 258 790 q 246 890 232 863 q 293 938 260 918 z "},"ô":{"ha":775,"x_min":32,"x_max":744,"o":"m 388 -3 q 128 94 225 -3 q 32 367 32 190 q 76 557 32 475 q 201 685 121 639 q 388 732 281 732 q 586 685 507 732 q 705 557 665 639 q 744 367 744 475 q 656 94 744 190 q 388 -3 568 -3 m 197 390 q 240 330 197 347 q 388 313 283 313 q 535 330 492 313 q 578 390 578 347 q 535 449 578 432 q 388 465 492 465 q 240 449 283 465 q 197 390 197 432 m 229 771 q 152 798 176 771 q 128 860 128 825 q 142 915 128 888 q 178 964 157 942 q 276 1046 221 1008 q 388 1083 331 1083 q 505 1045 442 1083 q 614 938 568 1007 q 630 850 643 894 q 565 785 617 806 q 478 788 519 767 q 413 872 436 810 q 375 959 392 924 q 335 979 358 994 q 322 953 319 969 q 332 915 324 938 q 340 860 340 892 q 308 792 340 813 q 229 771 276 771 z "},"ö":{"ha":775,"x_min":32,"x_max":744,"o":"m 388 -3 q 128 94 225 -3 q 32 367 32 190 q 76 557 32 475 q 201 685 121 639 q 388 732 281 732 q 586 685 507 732 q 705 557 665 639 q 744 367 744 475 q 656 94 744 190 q 388 -3 568 -3 m 197 390 q 240 330 197 347 q 388 313 283 313 q 535 330 492 313 q 578 390 578 347 q 535 449 578 432 q 388 465 492 465 q 240 449 283 465 q 197 390 197 432 m 251 771 q 159 801 192 771 q 126 883 126 832 q 160 969 126 936 q 251 1003 193 1003 q 340 970 307 1003 q 372 885 372 938 q 341 802 372 833 q 251 771 310 771 m 401 883 q 435 969 401 936 q 526 1003 468 1003 q 615 970 582 1003 q 647 885 647 938 q 616 802 647 833 q 526 771 585 771 q 434 801 467 771 q 401 883 401 832 z "},"ò":{"ha":775,"x_min":32,"x_max":744,"o":"m 388 -3 q 128 94 225 -3 q 32 367 32 190 q 76 557 32 475 q 201 685 121 639 q 388 732 281 732 q 586 685 507 732 q 705 557 665 639 q 744 367 744 475 q 656 94 744 190 q 388 -3 568 -3 m 197 390 q 240 330 197 347 q 388 313 283 313 q 535 330 492 313 q 578 390 578 347 q 535 449 578 432 q 388 465 492 465 q 240 449 283 465 q 197 390 197 432 m 486 939 q 533 892 519 919 q 535 828 547 864 q 492 780 521 792 q 429 774 463 768 q 324 799 386 781 q 213 838 263 817 q 140 902 157 861 q 146 994 122 943 q 217 1055 168 1046 q 318 1035 265 1064 q 409 984 371 1006 q 486 939 447 963 z "},"ø":{"ha":775,"x_min":32,"x_max":744,"o":"m 388 -3 q 302 5 343 -3 q 226 29 261 13 l 203 -7 q 156 -42 185 -35 q 94 -28 126 -49 q 55 28 60 -4 q 71 85 50 60 l 104 122 q 32 367 32 215 q 76 557 32 475 q 201 685 121 639 q 388 732 281 732 q 519 714 464 732 l 551 769 q 601 807 569 800 q 667 792 633 814 q 702 738 697 771 q 683 678 707 704 l 649 636 q 721 519 697 588 q 744 367 744 450 q 656 94 744 190 q 388 -3 568 -3 m 165 383 q 185 325 165 346 q 247 293 204 304 q 322 389 288 342 q 386 485 356 436 q 215 464 264 485 q 165 383 165 443 m 388 282 q 561 303 511 282 q 611 383 611 325 q 589 445 611 424 q 518 476 567 467 q 444 379 479 426 q 378 282 410 332 l 388 282 z "},"õ":{"ha":775,"x_min":32,"x_max":744,"o":"m 388 -3 q 128 94 225 -3 q 32 367 32 190 q 76 557 32 475 q 201 685 121 639 q 388 732 281 732 q 586 685 507 732 q 705 557 665 639 q 744 367 744 475 q 656 94 744 190 q 388 -3 568 -3 m 197 390 q 240 330 197 347 q 388 313 283 313 q 535 330 492 313 q 578 390 578 347 q 535 449 578 432 q 388 465 492 465 q 240 449 283 465 q 197 390 197 432 m 243 999 q 310 985 279 999 q 376 944 342 972 q 419 912 404 924 q 447 901 433 900 q 467 915 460 904 q 482 944 474 925 q 583 1001 510 1014 q 639 970 619 994 q 658 901 658 946 q 626 808 658 844 q 549 771 593 771 q 479 784 511 771 q 408 828 447 797 q 372 855 385 847 q 347 860 358 863 q 308 824 321 856 q 269 776 296 792 q 206 768 242 760 q 149 806 168 776 q 129 869 129 835 q 161 960 129 922 q 243 999 193 999 z "},"œ":{"ha":1214,"x_min":32,"x_max":1189,"o":"m 899 732 q 1045 701 981 732 q 1148 615 1110 671 q 1186 483 1186 560 q 1157 397 1186 418 q 1067 375 1128 375 l 765 375 q 794 312 765 339 q 890 285 822 285 q 950 293 925 285 q 999 309 975 301 q 1056 317 1024 317 q 1149 281 1108 317 q 1189 168 1189 244 q 1110 40 1189 85 q 903 -4 1031 -4 q 739 33 814 -4 q 629 133 664 71 q 628 134 629 133 q 628 133 628 135 q 536 34 597 71 q 368 -3 475 -3 q 124 95 215 -3 q 32 367 32 193 q 74 557 32 475 q 192 685 117 639 q 368 732 268 732 q 538 690 474 732 q 629 593 601 647 l 631 593 q 729 691 658 650 q 899 732 800 732 m 996 421 q 969 475 996 449 q 882 501 943 501 q 796 475 822 501 q 769 421 769 449 l 996 421 m 188 390 q 228 330 188 347 q 368 313 269 313 q 506 330 465 313 q 546 390 546 347 q 506 449 546 432 q 368 465 465 465 q 228 449 269 465 q 188 390 188 432 z "},"p":{"ha":814,"x_min":33,"x_max":782,"o":"m 529 0 q 402 47 453 0 q 338 169 351 94 l 313 169 l 313 -150 q 281 -247 313 -207 q 183 -286 249 -286 q 87 -247 121 -286 q 53 -147 53 -207 l 53 372 q 48 490 53 442 q 39 576 43 538 q 63 676 33 635 q 157 725 92 717 q 277 695 242 736 q 313 568 313 654 l 313 501 l 318 500 q 351 606 325 554 q 424 692 376 658 q 543 726 471 726 q 723 630 664 726 q 782 372 782 533 q 529 0 782 0 m 307 375 q 313 340 307 353 q 348 302 321 314 q 429 290 375 290 q 524 311 499 290 q 550 375 550 332 q 525 440 550 419 q 431 460 500 460 q 348 448 375 460 q 313 410 321 436 q 307 375 307 397 z "},"þ":{"ha":807,"x_min":24,"x_max":776,"o":"m 522 0 q 395 47 446 0 q 332 169 344 94 l 307 169 l 307 -168 q 275 -265 307 -225 q 178 -306 243 -306 q 81 -265 115 -306 q 46 -167 46 -225 l 46 572 q 42 685 46 633 q 32 776 38 738 q 54 881 24 839 q 150 932 85 922 q 269 903 232 943 q 307 768 307 863 l 307 501 l 311 500 q 345 606 319 554 q 418 692 371 658 q 536 726 465 726 q 717 630 657 726 q 776 372 776 533 q 522 0 776 0 m 300 374 q 307 332 300 350 q 424 282 324 282 q 497 303 471 282 q 522 374 522 324 q 496 445 522 424 q 422 467 469 467 q 307 417 325 467 q 300 374 300 399 z "},"q":{"ha":790,"x_min":32,"x_max":758,"o":"m 276 0 q 99 94 167 0 q 32 372 32 188 q 96 630 32 533 q 282 726 160 726 q 398 692 354 726 q 465 606 442 658 q 494 500 488 554 l 499 501 l 499 588 q 533 687 499 647 q 631 726 567 726 q 727 687 696 726 q 758 590 758 647 l 758 -154 q 725 -249 758 -211 q 631 -286 692 -286 q 535 -249 571 -286 q 499 -154 499 -211 l 499 169 l 474 169 q 410 47 461 94 q 276 0 360 0 m 263 375 q 289 311 263 332 q 383 290 315 290 q 463 302 436 290 q 499 336 489 314 q 506 375 506 354 q 504 397 506 386 q 499 415 503 407 q 463 449 489 439 q 385 460 438 460 q 289 440 315 460 q 263 375 263 419 z "},"r":{"ha":669,"x_min":38,"x_max":657,"o":"m 175 0 q 74 38 110 0 q 38 132 38 75 l 38 588 q 74 687 38 647 q 175 726 110 726 q 275 687 240 726 q 310 590 310 647 l 310 561 l 336 561 q 392 682 342 635 q 510 729 442 729 q 617 688 578 729 q 657 576 657 646 q 619 468 657 511 q 524 425 582 425 q 442 448 475 425 q 394 501 410 471 q 330 492 350 507 q 310 435 310 478 l 310 132 q 275 38 310 75 q 175 0 240 0 z "},"s":{"ha":750,"x_min":32,"x_max":719,"o":"m 388 -18 q 210 1 292 -18 q 81 60 129 19 q 32 169 32 101 q 68 268 32 229 q 164 307 104 307 q 240 295 201 307 q 321 272 278 283 q 414 261 364 261 q 474 266 458 261 q 489 285 489 271 q 470 307 489 301 q 407 321 451 313 l 307 340 q 185 373 244 353 q 88 433 126 393 q 50 543 50 474 q 134 690 50 638 q 378 743 218 743 q 542 725 469 743 q 658 672 615 707 q 701 583 701 636 q 671 492 703 526 q 590 457 639 457 q 520 466 556 457 q 444 485 485 475 q 350 497 403 496 q 289 493 313 500 q 265 471 265 486 q 293 448 265 454 q 376 432 321 442 l 475 414 q 619 376 565 399 q 696 313 672 353 q 719 201 719 272 q 677 78 719 128 q 560 6 635 29 q 388 -18 485 -18 z "},"ß":{"ha":903,"x_min":47,"x_max":851,"o":"m 185 0 q 47 147 47 0 l 47 657 q 100 906 47 813 q 242 1040 153 999 q 443 1081 332 1081 q 622 1048 544 1081 q 742 953 699 1015 q 785 803 785 892 q 763 692 785 743 q 699 610 740 642 q 599 575 657 579 l 599 553 q 685 538 640 550 q 767 499 729 526 q 828 422 804 472 q 851 292 851 371 q 781 81 851 161 q 583 0 711 0 l 508 0 q 388 50 426 0 q 350 169 350 100 q 388 290 350 240 q 508 340 426 340 l 569 340 q 653 403 653 340 q 569 467 653 467 l 471 467 q 397 490 424 467 q 369 556 369 513 q 398 622 369 597 q 482 647 426 647 q 592 725 592 647 q 482 803 592 803 q 363 756 407 803 q 319 593 319 710 l 319 147 q 284 38 319 75 q 185 0 249 0 z "},"t":{"ha":721,"x_min":25,"x_max":696,"o":"m 440 -4 q 308 29 367 -4 q 215 124 249 63 q 182 269 182 186 l 182 514 l 131 507 q 57 536 89 501 q 25 624 25 571 q 57 710 25 676 q 131 739 89 744 l 182 732 l 181 826 q 213 915 179 882 q 310 947 246 947 q 408 915 374 947 q 440 826 443 882 l 438 732 l 511 742 q 625 715 586 753 q 664 624 664 676 q 626 533 664 571 q 515 504 588 494 l 438 514 l 438 307 q 450 274 438 289 q 481 265 463 260 q 524 289 501 271 q 583 307 547 307 q 667 268 638 307 q 696 172 696 229 q 665 87 696 128 q 576 21 633 46 q 440 -4 519 -4 z "},"u":{"ha":761,"x_min":38,"x_max":726,"o":"m 260 0 q 101 74 163 0 q 39 281 40 147 l 38 601 q 74 695 38 661 q 175 729 111 729 q 274 695 236 729 q 311 601 311 661 l 311 311 q 393 207 311 207 q 447 237 433 207 q 461 314 461 267 l 461 601 q 499 692 461 656 q 596 729 536 729 q 692 692 658 729 q 726 601 726 656 l 726 146 q 697 40 726 79 q 600 0 667 0 q 498 40 535 0 q 461 146 461 79 l 461 169 l 436 169 q 388 44 436 89 q 260 0 340 0 z "},"ú":{"ha":761,"x_min":38,"x_max":726,"o":"m 260 0 q 101 74 163 0 q 39 281 40 147 l 38 601 q 74 695 38 661 q 175 729 111 729 q 274 695 236 729 q 311 601 311 661 l 311 311 q 393 207 311 207 q 447 237 433 207 q 461 314 461 267 l 461 601 q 499 692 461 656 q 596 729 536 729 q 692 692 658 729 q 726 601 726 656 l 726 146 q 697 40 726 79 q 600 0 667 0 q 498 40 535 0 q 461 146 461 79 l 461 169 l 436 169 q 388 44 436 89 q 260 0 340 0 m 286 938 q 364 983 325 961 q 454 1033 403 1004 q 556 1053 507 1063 q 626 993 604 1044 q 633 901 650 942 q 560 836 617 860 q 448 797 510 815 q 343 772 386 779 q 281 778 310 767 q 238 826 251 790 q 239 890 225 863 q 286 938 253 918 z "},"û":{"ha":761,"x_min":38,"x_max":726,"o":"m 260 0 q 101 74 163 0 q 39 281 40 147 l 38 601 q 74 695 38 661 q 175 729 111 729 q 274 695 236 729 q 311 601 311 661 l 311 311 q 393 207 311 207 q 447 237 433 207 q 461 314 461 267 l 461 601 q 499 692 461 656 q 596 729 536 729 q 692 692 658 729 q 726 601 726 656 l 726 146 q 697 40 726 79 q 600 0 667 0 q 498 40 535 0 q 461 146 461 79 l 461 169 l 436 169 q 388 44 436 89 q 260 0 340 0 m 222 771 q 145 798 169 771 q 121 860 121 825 q 135 915 121 888 q 171 964 150 942 q 269 1046 214 1008 q 381 1083 324 1083 q 498 1045 435 1083 q 607 938 561 1007 q 623 850 636 894 q 558 785 610 806 q 471 788 513 767 q 406 872 429 810 q 368 959 385 924 q 328 979 351 994 q 315 953 313 969 q 325 915 317 938 q 333 860 333 892 q 301 792 333 813 q 222 771 269 771 z "},"ü":{"ha":761,"x_min":38,"x_max":726,"o":"m 260 0 q 101 74 163 0 q 39 281 40 147 l 38 601 q 74 695 38 661 q 175 729 111 729 q 274 695 236 729 q 311 601 311 661 l 311 311 q 393 207 311 207 q 447 237 433 207 q 461 314 461 267 l 461 601 q 499 692 461 656 q 596 729 536 729 q 692 692 658 729 q 726 601 726 656 l 726 146 q 697 40 726 79 q 600 0 667 0 q 498 40 535 0 q 461 146 461 79 l 461 169 l 436 169 q 388 44 436 89 q 260 0 340 0 m 244 771 q 152 801 185 771 q 119 883 119 832 q 153 969 119 936 q 244 1003 186 1003 q 333 970 300 1003 q 365 885 365 938 q 334 802 365 833 q 244 771 303 771 m 394 883 q 428 969 394 936 q 519 1003 461 1003 q 608 970 575 1003 q 640 885 640 938 q 609 802 640 833 q 519 771 578 771 q 427 801 460 771 q 394 883 394 832 z "},"ù":{"ha":761,"x_min":38,"x_max":726,"o":"m 260 0 q 101 74 163 0 q 39 281 40 147 l 38 601 q 74 695 38 661 q 175 729 111 729 q 274 695 236 729 q 311 601 311 661 l 311 311 q 393 207 311 207 q 447 237 433 207 q 461 314 461 267 l 461 601 q 499 692 461 656 q 596 729 536 729 q 692 692 658 729 q 726 601 726 656 l 726 146 q 697 40 726 79 q 600 0 667 0 q 498 40 535 0 q 461 146 461 79 l 461 169 l 436 169 q 388 44 436 89 q 260 0 340 0 m 479 939 q 526 892 513 919 q 528 828 540 864 q 485 780 514 792 q 422 774 456 768 q 317 799 379 781 q 206 838 256 817 q 133 902 150 861 q 139 994 115 943 q 210 1055 161 1046 q 311 1035 258 1064 q 402 984 364 1006 q 479 939 440 963 z "},"v":{"ha":746,"x_min":7,"x_max":728,"o":"m 399 0 q 244 53 308 0 q 139 228 181 106 l 29 544 q 30 660 7 607 q 115 726 53 713 q 213 715 171 739 q 274 636 256 692 l 382 318 q 430 236 401 263 q 500 224 458 210 q 542 274 539 239 q 526 357 546 310 q 482 431 510 400 q 432 494 454 461 q 410 578 410 528 q 456 691 410 650 q 579 729 503 732 q 686 683 644 728 q 728 571 728 639 q 715 490 728 533 q 688 400 703 447 l 632 225 q 583 105 610 156 q 513 27 556 54 q 399 0 471 0 z "},"w":{"ha":1138,"x_min":11,"x_max":1118,"o":"m 358 0 q 227 53 278 0 q 135 226 176 106 l 29 540 q 28 647 11 593 q 104 721 44 701 q 206 718 160 740 q 269 642 251 696 l 383 301 q 424 222 403 242 q 479 213 444 201 q 516 255 508 222 q 496 368 524 288 l 439 540 q 438 648 421 594 q 515 721 456 701 q 617 718 571 740 q 681 642 663 696 l 797 286 q 832 228 808 254 q 893 213 856 201 q 931 251 922 222 q 928 319 940 281 q 891 403 911 372 q 852 456 871 433 q 822 503 833 478 q 807 571 810 528 q 826 649 804 615 q 884 703 847 683 q 965 722 921 722 q 1076 677 1033 722 q 1118 571 1118 632 q 1111 513 1118 549 q 1093 446 1104 476 l 1035 294 q 994 192 1017 244 q 941 97 971 140 q 872 27 911 54 q 782 0 833 0 q 640 46 693 0 q 556 197 586 92 l 542 197 q 482 56 524 111 q 358 0 440 0 z "},"ẃ":{"ha":1138,"x_min":11,"x_max":1118,"o":"m 358 0 q 227 53 278 0 q 135 226 176 106 l 29 540 q 28 647 11 593 q 104 721 44 701 q 206 718 160 740 q 269 642 251 696 l 383 301 q 424 222 403 242 q 479 213 444 201 q 516 255 508 222 q 496 368 524 288 l 439 540 q 438 648 421 594 q 515 721 456 701 q 617 718 571 740 q 681 642 663 696 l 797 286 q 832 228 808 254 q 893 213 856 201 q 931 251 922 222 q 928 319 940 281 q 891 403 911 372 q 852 456 871 433 q 822 503 833 478 q 807 571 810 528 q 826 649 804 615 q 884 703 847 683 q 965 722 921 722 q 1076 677 1033 722 q 1118 571 1118 632 q 1111 513 1118 549 q 1093 446 1104 476 l 1035 294 q 994 192 1017 244 q 941 97 971 140 q 872 27 911 54 q 782 0 833 0 q 640 46 693 0 q 556 197 586 92 l 542 197 q 482 56 524 111 q 358 0 440 0 m 475 938 q 553 983 514 961 q 643 1033 592 1004 q 744 1053 696 1063 q 815 993 793 1044 q 822 901 839 942 q 749 836 806 860 q 637 797 699 815 q 532 772 575 779 q 469 778 499 767 q 426 826 440 790 q 428 890 414 863 q 475 938 442 918 z "},"ŵ":{"ha":1138,"x_min":11,"x_max":1118,"o":"m 358 0 q 227 53 278 0 q 135 226 176 106 l 29 540 q 28 647 11 593 q 104 721 44 701 q 206 718 160 740 q 269 642 251 696 l 383 301 q 424 222 403 242 q 479 213 444 201 q 516 255 508 222 q 496 368 524 288 l 439 540 q 438 648 421 594 q 515 721 456 701 q 617 718 571 740 q 681 642 663 696 l 797 286 q 832 228 808 254 q 893 213 856 201 q 931 251 922 222 q 928 319 940 281 q 891 403 911 372 q 852 456 871 433 q 822 503 833 478 q 807 571 810 528 q 826 649 804 615 q 884 703 847 683 q 965 722 921 722 q 1076 677 1033 722 q 1118 571 1118 632 q 1111 513 1118 549 q 1093 446 1104 476 l 1035 294 q 994 192 1017 244 q 941 97 971 140 q 872 27 911 54 q 782 0 833 0 q 640 46 693 0 q 556 197 586 92 l 542 197 q 482 56 524 111 q 358 0 440 0 m 411 771 q 334 798 358 771 q 310 860 310 825 q 324 915 310 888 q 360 964 339 942 q 458 1046 403 1008 q 569 1083 513 1083 q 687 1045 624 1083 q 796 938 750 1007 q 812 850 825 894 q 747 785 799 806 q 660 788 701 767 q 594 872 618 810 q 557 959 574 924 q 517 979 540 994 q 503 953 501 969 q 514 915 506 938 q 522 860 522 892 q 490 792 522 813 q 411 771 458 771 z "},"ẅ":{"ha":1138,"x_min":11,"x_max":1118,"o":"m 358 0 q 227 53 278 0 q 135 226 176 106 l 29 540 q 28 647 11 593 q 104 721 44 701 q 206 718 160 740 q 269 642 251 696 l 383 301 q 424 222 403 242 q 479 213 444 201 q 516 255 508 222 q 496 368 524 288 l 439 540 q 438 648 421 594 q 515 721 456 701 q 617 718 571 740 q 681 642 663 696 l 797 286 q 832 228 808 254 q 893 213 856 201 q 931 251 922 222 q 928 319 940 281 q 891 403 911 372 q 852 456 871 433 q 822 503 833 478 q 807 571 810 528 q 826 649 804 615 q 884 703 847 683 q 965 722 921 722 q 1076 677 1033 722 q 1118 571 1118 632 q 1111 513 1118 549 q 1093 446 1104 476 l 1035 294 q 994 192 1017 244 q 941 97 971 140 q 872 27 911 54 q 782 0 833 0 q 640 46 693 0 q 556 197 586 92 l 542 197 q 482 56 524 111 q 358 0 440 0 m 433 771 q 341 801 374 771 q 308 883 308 832 q 342 969 308 936 q 433 1003 375 1003 q 522 970 489 1003 q 554 885 554 938 q 523 802 554 833 q 433 771 492 771 m 583 883 q 617 969 583 936 q 708 1003 650 1003 q 797 970 764 1003 q 829 885 829 938 q 798 802 829 833 q 708 771 767 771 q 616 801 649 771 q 583 883 583 832 z "},"ẁ":{"ha":1138,"x_min":11,"x_max":1118,"o":"m 358 0 q 227 53 278 0 q 135 226 176 106 l 29 540 q 28 647 11 593 q 104 721 44 701 q 206 718 160 740 q 269 642 251 696 l 383 301 q 424 222 403 242 q 479 213 444 201 q 516 255 508 222 q 496 368 524 288 l 439 540 q 438 648 421 594 q 515 721 456 701 q 617 718 571 740 q 681 642 663 696 l 797 286 q 832 228 808 254 q 893 213 856 201 q 931 251 922 222 q 928 319 940 281 q 891 403 911 372 q 852 456 871 433 q 822 503 833 478 q 807 571 810 528 q 826 649 804 615 q 884 703 847 683 q 965 722 921 722 q 1076 677 1033 722 q 1118 571 1118 632 q 1111 513 1118 549 q 1093 446 1104 476 l 1035 294 q 994 192 1017 244 q 941 97 971 140 q 872 27 911 54 q 782 0 833 0 q 640 46 693 0 q 556 197 586 92 l 542 197 q 482 56 524 111 q 358 0 440 0 m 668 939 q 715 892 701 919 q 717 828 729 864 q 674 780 703 792 q 611 774 644 768 q 506 799 568 781 q 394 838 444 817 q 322 902 339 861 q 328 994 304 943 q 399 1055 350 1046 q 500 1035 447 1064 q 591 984 553 1006 q 668 939 629 963 z "},"x":{"ha":775,"x_min":19,"x_max":761,"o":"m 182 -6 q 60 41 101 -6 q 19 151 19 88 q 40 235 19 192 q 110 308 61 278 q 181 337 138 326 q 260 354 225 347 q 140 410 183 378 q 69 475 97 442 q 34 590 31 528 q 90 696 38 651 q 173 729 128 728 q 260 706 218 731 q 328 632 301 681 q 372 538 358 578 q 402 467 385 499 q 458 403 419 435 q 488 418 475 408 q 515 457 500 428 q 453 499 481 465 q 425 592 425 532 q 464 694 425 656 q 579 732 503 732 q 681 691 642 732 q 719 589 719 650 q 694 485 719 524 q 625 419 668 447 q 571 391 603 403 q 503 371 539 379 q 611 339 560 363 q 706 271 663 315 q 749 194 738 239 q 749 104 761 149 q 700 29 738 60 q 614 -3 661 -1 q 524 20 567 -4 q 457 90 482 44 q 418 181 432 136 q 387 265 404 226 q 336 326 369 303 q 310 297 314 314 q 312 258 306 279 q 326 212 318 236 q 333 161 333 188 q 317 81 333 119 q 266 19 300 43 q 182 -6 232 -6 z "},"y":{"ha":769,"x_min":7,"x_max":750,"o":"m 307 -286 q 155 -256 214 -286 q 63 -175 96 -225 q 31 -85 35 -132 q 49 3 28 -37 q 111 67 69 44 q 197 85 154 90 q 276 53 240 81 q 332 -17 313 26 q 374 -84 353 -62 q 431 -93 396 -106 q 455 -32 464 -82 q 418 86 446 18 l 367 86 q 247 129 307 86 q 147 265 188 172 l 33 529 q 28 644 7 592 q 107 721 50 697 q 211 724 160 744 q 292 635 263 703 l 397 389 q 455 303 424 329 q 521 294 486 276 q 554 341 551 311 q 525 414 557 371 q 492 457 511 433 q 459 512 474 481 q 444 582 444 543 q 489 690 444 647 q 606 732 533 732 q 710 690 671 732 q 750 582 750 649 q 739 478 750 535 q 714 372 728 421 l 614 7 q 556 -142 592 -75 q 460 -247 519 -208 q 307 -286 400 -286 z "},"ý":{"ha":769,"x_min":7,"x_max":750,"o":"m 307 -286 q 155 -256 214 -286 q 63 -175 96 -225 q 31 -85 35 -132 q 49 3 28 -37 q 111 67 69 44 q 197 85 154 90 q 276 53 240 81 q 332 -17 313 26 q 374 -84 353 -62 q 431 -93 396 -106 q 455 -32 464 -82 q 418 86 446 18 l 367 86 q 247 129 307 86 q 147 265 188 172 l 33 529 q 28 644 7 592 q 107 721 50 697 q 211 724 160 744 q 292 635 263 703 l 397 389 q 455 303 424 329 q 521 294 486 276 q 554 341 551 311 q 525 414 557 371 q 492 457 511 433 q 459 512 474 481 q 444 582 444 543 q 489 690 444 647 q 606 732 533 732 q 710 690 671 732 q 750 582 750 649 q 739 478 750 535 q 714 372 728 421 l 614 7 q 556 -142 592 -75 q 460 -247 519 -208 q 307 -286 400 -286 m 304 938 q 382 983 343 961 q 472 1033 421 1004 q 574 1053 525 1063 q 644 993 622 1044 q 651 901 668 942 q 578 836 635 860 q 466 797 528 815 q 361 772 404 779 q 299 778 328 767 q 256 826 269 790 q 257 890 243 863 q 304 938 271 918 z "},"ÿ":{"ha":769,"x_min":7,"x_max":750,"o":"m 307 -286 q 155 -256 214 -286 q 63 -175 96 -225 q 31 -85 35 -132 q 49 3 28 -37 q 111 67 69 44 q 197 85 154 90 q 276 53 240 81 q 332 -17 313 26 q 374 -84 353 -62 q 431 -93 396 -106 q 455 -32 464 -82 q 418 86 446 18 l 367 86 q 247 129 307 86 q 147 265 188 172 l 33 529 q 28 644 7 592 q 107 721 50 697 q 211 724 160 744 q 292 635 263 703 l 397 389 q 455 303 424 329 q 521 294 486 276 q 554 341 551 311 q 525 414 557 371 q 492 457 511 433 q 459 512 474 481 q 444 582 444 543 q 489 690 444 647 q 606 732 533 732 q 710 690 671 732 q 750 582 750 649 q 739 478 750 535 q 714 372 728 421 l 614 7 q 556 -142 592 -75 q 460 -247 519 -208 q 307 -286 400 -286 m 263 771 q 170 801 203 771 q 138 883 138 832 q 171 969 138 936 q 263 1003 204 1003 q 351 970 318 1003 q 383 885 383 938 q 352 802 383 833 q 263 771 321 771 m 413 883 q 446 969 413 936 q 538 1003 479 1003 q 626 970 593 1003 q 658 885 658 938 q 627 802 658 833 q 538 771 596 771 q 445 801 478 771 q 413 883 413 832 z "},"z":{"ha":731,"x_min":19,"x_max":710,"o":"m 215 0 q 74 43 128 0 q 19 161 19 86 q 58 275 19 238 q 143 329 97 313 l 464 449 l 464 454 l 182 454 q 78 488 119 454 q 38 590 38 522 q 78 693 38 660 q 182 726 119 726 l 522 726 q 635 694 589 726 q 682 581 682 663 q 644 475 682 518 q 533 404 606 432 l 269 304 l 269 299 l 553 299 q 665 261 621 299 q 710 149 710 224 q 665 36 710 72 q 553 0 621 0 l 215 0 z "},"ª":{"ha":469,"x_min":22,"x_max":444,"o":"m 153 594 q 57 627 92 594 q 22 719 22 660 q 63 808 22 781 q 165 835 103 835 q 232 828 201 835 q 285 807 263 822 l 288 808 l 288 828 q 274 858 288 847 q 238 869 260 869 q 202 867 217 869 q 167 857 188 864 q 98 859 126 847 q 58 907 69 871 q 63 965 49 940 q 107 1003 78 989 q 164 1024 132 1015 q 233 1032 196 1032 q 393 979 342 1032 q 444 803 444 926 l 444 674 q 424 617 444 639 q 367 594 403 594 q 308 617 328 594 q 288 672 288 639 l 288 693 l 269 693 q 262 648 269 671 q 230 610 254 625 q 153 594 206 594 m 163 776 q 172 757 163 763 q 217 751 182 751 q 260 757 247 751 q 272 776 272 763 q 260 795 272 790 q 217 800 247 800 q 172 795 182 800 q 163 776 163 790 m 93 444 q 52 461 69 444 q 35 504 35 478 q 52 547 35 531 q 93 563 69 563 l 388 563 q 427 546 411 563 q 443 504 443 529 q 427 461 443 478 q 388 444 411 444 l 93 444 z "},"º":{"ha":469,"x_min":19,"x_max":447,"o":"m 235 593 q 78 650 138 593 q 19 815 19 707 q 79 972 19 911 q 235 1033 139 1033 q 394 972 342 1033 q 447 815 447 911 q 397 650 447 707 q 235 593 346 593 m 119 829 q 146 792 119 803 q 235 782 172 782 q 324 792 297 782 q 350 829 350 803 q 324 863 350 854 q 235 872 297 872 q 146 863 172 872 q 119 829 119 854 m 94 444 q 55 461 72 444 q 38 504 38 478 q 55 547 38 531 q 94 563 72 563 l 372 563 q 412 546 396 563 q 428 504 428 529 q 412 461 428 478 q 372 444 396 444 l 94 444 z "},"가":{"ha":1210,"x_min":10,"x_max":1214,"o":"m 835 -92 q 735 -56 775 -92 q 696 33 696 -19 l 696 972 q 733 1068 696 1029 q 835 1107 771 1107 q 933 1067 897 1107 q 969 969 969 1028 l 969 633 l 992 626 q 1031 699 1003 672 q 1101 726 1058 726 q 1182 690 1150 726 q 1214 592 1214 653 q 1179 492 1214 528 q 1101 457 1144 457 q 1041 476 1065 457 q 1003 522 1017 496 q 981 534 993 539 q 969 510 969 529 l 969 33 q 932 -56 969 -19 q 835 -92 894 -92 m 26 864 q 59 965 26 924 q 164 1007 92 1007 l 439 1007 q 561 961 522 1007 q 600 832 600 915 q 574 511 600 656 q 486 265 549 367 q 315 115 424 163 q 204 89 260 90 q 106 113 149 88 q 42 192 63 139 q 46 347 10 276 q 179 444 82 418 q 282 476 229 457 q 381 523 335 496 q 456 586 428 550 q 485 669 485 622 q 471 706 485 693 q 433 719 457 719 l 164 721 q 59 763 92 721 q 26 864 26 804 z "},"각":{"ha":1210,"x_min":28,"x_max":1214,"o":"m 721 974 q 758 1066 721 1031 q 860 1101 796 1101 q 958 1065 922 1101 q 994 971 994 1029 l 994 801 l 1014 794 q 1048 860 1024 836 q 1114 885 1072 885 q 1185 852 1157 885 q 1214 763 1214 819 q 1183 672 1214 704 q 1114 640 1153 640 q 1058 658 1081 640 q 1024 700 1036 676 q 1005 712 1015 715 q 994 689 994 708 l 994 515 q 957 426 994 463 q 860 390 919 390 q 760 426 800 390 q 721 515 721 463 l 721 974 m 32 939 q 64 1035 32 996 q 151 1075 96 1075 l 472 1075 q 595 1032 558 1075 q 632 903 632 989 q 597 692 632 792 q 490 518 561 592 q 307 408 418 444 q 211 390 263 394 q 116 401 160 385 q 50 464 72 417 q 35 560 28 513 q 81 642 43 608 q 186 681 118 676 q 310 685 254 685 q 403 699 365 686 q 454 753 442 713 q 415 799 469 799 l 154 800 q 64 840 96 800 q 32 939 32 881 m 832 -97 q 756 -73 782 -94 q 719 -23 729 -51 q 708 28 710 6 q 694 74 707 60 q 644 88 682 88 l 278 88 q 172 125 210 88 q 135 225 135 163 q 172 322 135 286 q 276 358 210 358 l 813 358 q 942 315 900 358 q 985 192 985 272 q 984 133 985 158 q 981 84 983 108 q 974 25 978 60 q 934 -68 967 -35 q 832 -97 901 -101 z "},"간":{"ha":1210,"x_min":32,"x_max":1214,"o":"m 860 275 q 760 311 800 275 q 721 400 721 347 l 721 974 q 758 1066 721 1031 q 860 1101 796 1101 q 958 1065 922 1101 q 994 971 994 1029 l 994 742 l 1014 733 q 1048 801 1024 776 q 1114 825 1072 825 q 1185 792 1157 825 q 1214 703 1214 760 q 1183 613 1214 644 q 1114 581 1153 581 q 1058 598 1081 581 q 1024 640 1036 615 q 1005 652 1015 656 q 994 629 994 649 l 994 400 q 957 311 994 347 q 860 275 919 275 m 32 940 q 65 1032 32 993 q 149 1071 97 1071 l 481 1071 q 601 1028 557 1071 q 644 908 644 986 q 613 677 644 781 q 511 501 582 574 q 324 396 440 429 q 225 381 278 383 q 126 396 172 378 q 56 463 81 414 q 35 540 38 499 q 50 617 33 581 q 101 676 67 653 q 189 699 135 699 q 311 693 257 699 q 405 699 365 688 q 467 758 444 710 q 465 795 478 785 q 432 806 453 806 l 151 807 q 65 847 97 807 q 32 940 32 888 m 122 135 q 122 172 121 158 q 125 222 122 185 q 257 347 135 347 q 350 319 318 347 q 382 246 382 292 q 394 209 382 224 q 453 194 406 194 l 865 194 q 970 159 933 194 q 1007 51 1007 124 q 970 -54 1007 -17 q 865 -92 933 -92 l 382 -92 q 242 -72 299 -92 q 155 -2 185 -51 q 122 135 125 47 z "},"갇":{"ha":1210,"x_min":25,"x_max":1214,"o":"m 1114 656 q 1058 673 1081 656 q 1024 715 1036 690 q 1005 727 1015 731 q 994 704 994 724 l 994 561 q 957 472 994 508 q 860 436 919 436 q 760 472 800 436 q 721 561 721 508 l 721 974 q 758 1066 721 1031 q 860 1101 796 1101 q 958 1065 922 1101 q 994 971 994 1029 l 994 817 l 1014 808 q 1048 876 1024 851 q 1114 900 1072 900 q 1185 867 1157 900 q 1214 778 1214 835 q 1183 688 1214 719 q 1114 656 1153 656 m 32 944 q 63 1034 32 997 q 156 1071 94 1071 l 485 1071 q 608 1028 571 1071 q 644 899 644 985 q 554 607 644 722 q 292 447 464 492 q 192 437 246 436 q 96 460 139 438 q 38 533 53 482 q 36 622 25 579 q 84 692 47 665 q 181 719 121 719 q 269 713 226 719 q 350 703 313 706 q 417 713 388 700 q 467 764 447 725 q 465 799 478 788 q 424 811 453 811 l 157 811 q 63 851 93 811 q 32 944 32 890 m 157 308 q 186 381 157 356 q 263 406 215 406 l 868 406 q 952 376 924 406 q 981 301 981 347 q 952 225 981 254 q 868 196 924 196 l 358 196 q 333 193 342 196 q 325 176 325 190 q 333 160 325 163 q 358 157 342 157 l 851 157 q 957 123 925 157 q 989 36 989 89 q 957 -54 989 -17 q 851 -92 925 -92 l 404 -92 q 229 -47 289 -92 q 169 69 169 -3 q 194 167 169 133 q 250 210 219 201 l 250 211 q 184 234 211 211 q 157 308 157 257 z "},"갈":{"ha":1210,"x_min":32,"x_max":1214,"o":"m 860 439 q 758 475 796 439 q 721 564 721 511 l 721 974 q 758 1066 721 1031 q 860 1101 796 1101 q 958 1065 922 1101 q 994 971 994 1029 l 994 819 l 1014 813 q 1048 880 1024 856 q 1114 904 1072 904 q 1185 872 1157 904 q 1214 782 1214 839 q 1183 691 1214 724 q 1114 658 1153 658 q 1058 676 1081 658 q 1024 719 1036 694 q 1005 731 1015 735 q 994 707 994 726 l 994 564 q 957 475 994 511 q 860 439 919 439 m 32 946 q 65 1035 32 999 q 149 1071 97 1071 l 482 1071 q 602 1033 558 1071 q 646 917 646 994 q 600 713 646 806 q 476 553 554 619 q 299 456 397 486 q 196 438 247 439 q 106 459 144 438 q 49 531 67 481 q 42 619 33 575 q 82 694 51 663 q 163 729 113 725 q 257 726 208 733 q 349 715 306 719 q 424 720 392 711 q 471 764 457 729 q 467 806 486 796 q 425 817 447 817 l 151 818 q 65 856 97 818 q 32 946 32 893 m 106 82 q 128 178 108 149 q 188 217 147 208 q 294 225 229 225 l 760 225 q 776 228 771 225 q 781 240 781 231 q 760 256 781 256 l 240 256 q 179 274 206 256 q 153 333 153 293 q 179 392 153 376 q 240 408 206 408 l 835 408 q 938 387 908 408 q 968 289 968 365 q 955 219 968 242 q 917 189 942 196 q 858 182 892 182 l 272 182 q 249 179 256 182 q 243 165 243 176 q 249 151 243 153 q 272 150 256 150 l 869 150 q 984 121 951 150 q 1017 29 1017 92 q 984 -61 1017 -31 q 869 -92 951 -92 l 339 -92 q 208 -81 261 -92 q 128 -34 154 -71 q 106 82 103 3 z "},"갉":{"ha":1210,"x_min":35,"x_max":1217,"o":"m 863 428 q 761 464 799 428 q 724 553 724 500 l 724 974 q 761 1066 724 1031 q 863 1101 799 1101 q 960 1065 924 1101 q 996 971 996 1029 l 996 819 l 1017 813 q 1051 880 1026 856 q 1117 904 1075 904 q 1188 872 1160 904 q 1217 782 1217 839 q 1186 691 1217 724 q 1117 658 1156 658 q 1060 676 1082 658 q 1026 719 1039 694 q 1007 731 1018 735 q 996 707 996 726 l 996 553 q 959 464 996 500 q 863 428 922 428 m 35 946 q 67 1035 35 999 q 151 1071 100 1071 l 483 1071 q 605 1033 561 1071 q 649 917 649 994 q 602 713 649 806 q 477 553 556 619 q 301 456 399 486 q 199 437 250 439 q 108 455 147 435 q 51 525 69 475 q 44 613 36 571 q 84 685 53 656 q 165 719 115 715 q 259 718 211 724 q 351 710 307 713 q 426 719 394 708 q 474 764 458 729 q 469 806 489 796 q 428 817 450 817 l 154 818 q 67 856 100 818 q 35 946 35 893 m 83 64 q 106 157 86 128 q 167 194 126 186 q 272 201 208 201 l 376 201 q 392 204 388 201 q 396 217 396 207 q 376 232 396 232 l 219 232 q 158 254 185 232 q 132 319 132 276 q 158 381 132 361 q 219 401 185 401 l 464 401 q 569 360 547 401 q 660 397 603 397 l 819 397 q 949 359 906 397 q 992 225 992 321 q 990 129 992 174 q 982 24 989 85 q 951 -64 976 -32 q 863 -94 925 -96 q 771 -63 803 -93 q 739 18 739 -33 l 739 81 q 733 122 739 110 q 707 135 726 135 l 660 135 q 601 145 628 135 q 558 178 575 156 q 524 160 544 164 q 475 157 503 157 l 251 157 q 228 155 235 157 q 221 142 221 153 q 251 125 221 125 l 497 125 q 612 102 579 125 q 644 15 644 79 q 612 -69 644 -47 q 497 -92 579 -92 l 318 -92 q 186 -82 239 -92 q 108 -39 133 -72 q 83 64 82 -6 z "},"갊":{"ha":1210,"x_min":35,"x_max":1217,"o":"m 863 436 q 761 472 799 436 q 724 561 724 508 l 724 974 q 761 1066 724 1031 q 863 1101 799 1101 q 960 1065 924 1101 q 996 971 996 1029 l 996 819 l 1017 813 q 1051 880 1026 856 q 1117 904 1075 904 q 1188 872 1160 904 q 1217 782 1217 839 q 1186 691 1217 724 q 1117 658 1156 658 q 1060 676 1082 658 q 1026 719 1039 694 q 1007 731 1018 735 q 996 707 996 726 l 996 561 q 959 472 996 508 q 863 436 922 436 m 35 946 q 67 1035 35 999 q 151 1071 100 1071 l 483 1071 q 605 1033 561 1071 q 649 917 649 994 q 602 713 649 806 q 477 553 556 619 q 301 456 399 486 q 199 437 250 439 q 108 455 147 435 q 51 525 69 475 q 44 613 36 571 q 84 685 53 656 q 165 719 115 715 q 259 718 211 724 q 351 710 307 713 q 426 719 394 708 q 474 764 458 729 q 469 806 489 796 q 428 817 450 817 l 154 818 q 67 856 100 818 q 35 946 35 893 m 90 64 q 113 157 93 128 q 173 194 132 186 q 279 201 214 201 l 376 201 q 392 204 388 201 q 396 217 396 207 q 376 232 396 232 l 219 232 q 158 254 185 232 q 132 319 132 276 q 158 381 132 361 q 219 401 185 401 l 417 401 q 511 374 486 401 q 536 269 536 347 q 522 196 536 219 q 483 165 507 172 q 428 157 458 157 l 257 157 q 234 155 240 157 q 228 142 228 153 q 234 128 228 132 q 257 125 240 125 l 497 125 q 564 119 538 125 q 601 186 576 167 q 632 207 625 206 q 582 234 601 207 q 563 304 563 261 q 585 376 563 344 q 657 407 607 407 l 826 407 q 949 363 907 407 q 990 239 990 319 l 990 65 q 826 -92 990 -92 l 747 -92 q 624 -58 674 -92 q 497 -92 594 -92 l 324 -92 q 193 -82 246 -92 q 115 -39 140 -72 q 90 64 89 -6 m 685 183 q 692 165 685 169 q 721 161 700 161 l 794 161 q 824 165 817 161 q 831 183 831 169 q 824 203 831 199 q 794 207 817 207 l 721 207 q 692 203 700 207 q 685 183 685 199 z "},"갋":{"ha":1210,"x_min":35,"x_max":1217,"o":"m 863 425 q 761 461 799 425 q 724 550 724 497 l 724 974 q 761 1066 724 1031 q 863 1101 799 1101 q 960 1065 924 1101 q 996 971 996 1029 l 996 819 l 1017 813 q 1051 880 1026 856 q 1117 904 1075 904 q 1188 872 1160 904 q 1217 782 1217 839 q 1186 691 1217 724 q 1117 658 1156 658 q 1060 676 1082 658 q 1026 719 1039 694 q 1007 731 1018 735 q 996 707 996 726 l 996 550 q 959 461 996 497 q 863 425 922 425 m 35 946 q 67 1035 35 999 q 151 1071 100 1071 l 483 1071 q 605 1033 561 1071 q 649 917 649 994 q 602 713 649 806 q 477 553 556 619 q 301 456 399 486 q 199 437 250 439 q 108 455 147 435 q 51 525 69 475 q 44 613 36 571 q 84 685 53 656 q 165 719 115 715 q 259 718 211 724 q 351 710 307 713 q 426 719 394 708 q 474 764 458 729 q 469 806 489 796 q 428 817 450 817 l 154 818 q 67 856 100 818 q 35 946 35 893 m 90 64 q 113 157 93 128 q 173 194 132 186 q 279 201 214 201 l 368 201 q 383 204 379 201 q 388 217 388 207 q 368 232 388 232 l 219 232 q 158 254 185 232 q 132 319 132 276 q 158 381 132 361 q 219 401 185 401 l 407 401 q 503 374 478 401 q 528 269 528 347 q 513 196 528 219 q 474 165 499 172 q 419 157 450 157 l 257 157 q 234 155 240 157 q 228 142 228 153 q 234 128 228 132 q 257 125 240 125 l 486 125 q 565 108 539 125 l 565 307 q 591 374 565 351 q 660 396 617 396 q 731 374 704 396 q 757 307 757 351 l 757 286 l 799 286 l 799 307 q 894 399 799 399 q 992 307 992 399 l 992 81 q 957 -48 992 -4 q 835 -92 922 -92 l 744 -92 q 648 -76 683 -92 q 593 -35 613 -61 q 560 -79 585 -67 q 486 -92 535 -92 l 324 -92 q 193 -82 246 -92 q 115 -39 140 -72 q 90 64 89 -6 m 676 158 q 683 140 676 144 q 713 136 690 136 l 768 136 q 796 140 789 136 q 803 158 803 144 q 796 178 803 174 q 768 182 789 182 l 713 182 q 683 178 690 182 q 676 158 676 174 z "},"감":{"ha":1210,"x_min":28,"x_max":1214,"o":"m 721 974 q 758 1066 721 1031 q 860 1101 796 1101 q 958 1065 922 1101 q 994 971 994 1029 l 994 826 l 1014 819 q 1048 885 1024 861 q 1114 910 1072 910 q 1185 877 1157 910 q 1214 788 1214 844 q 1183 697 1214 729 q 1114 665 1153 665 q 1058 683 1081 665 q 1024 725 1036 701 q 1005 737 1015 740 q 994 714 994 733 l 994 546 q 957 457 994 493 q 860 421 919 421 q 760 457 800 421 q 721 546 721 493 l 721 974 m 35 940 q 66 1032 35 993 q 157 1071 97 1071 l 485 1071 q 608 1028 571 1071 q 644 899 644 985 q 554 601 644 722 q 292 435 464 479 q 193 424 246 424 q 98 447 140 425 q 40 519 56 468 q 38 610 28 565 q 85 683 49 654 q 181 713 121 713 q 269 706 226 713 q 350 698 313 700 q 417 708 388 696 q 467 758 447 721 q 465 794 478 782 q 424 807 453 807 l 160 807 q 65 847 96 807 q 35 940 35 888 m 383 -92 q 213 -48 268 -92 q 157 72 157 -4 q 174 139 157 111 q 211 183 190 167 q 243 200 232 199 l 243 201 q 181 228 204 201 q 157 296 157 254 q 181 367 157 336 q 256 397 206 397 l 813 397 q 935 354 893 397 q 976 232 976 311 l 976 63 q 813 -92 976 -92 l 383 -92 m 296 179 q 303 161 296 165 q 332 157 311 157 l 707 157 q 735 161 728 157 q 742 179 742 165 q 735 197 742 193 q 707 201 728 201 l 332 201 q 303 197 311 201 q 296 179 296 193 z "},"갑":{"ha":1210,"x_min":25,"x_max":1214,"o":"m 1114 665 q 1058 683 1081 665 q 1024 725 1036 701 q 1005 737 1015 740 q 994 714 994 733 l 994 571 q 957 482 994 518 q 860 446 919 446 q 760 482 800 446 q 721 571 721 518 l 721 974 q 758 1066 721 1031 q 860 1101 796 1101 q 958 1065 922 1101 q 994 971 994 1029 l 994 826 l 1014 819 q 1048 885 1024 861 q 1114 910 1072 910 q 1185 877 1157 910 q 1214 788 1214 844 q 1183 697 1214 729 q 1114 665 1153 665 m 35 940 q 66 1032 35 993 q 157 1071 97 1071 l 485 1071 q 608 1028 571 1071 q 644 899 644 985 q 604 702 644 793 q 485 547 564 611 q 292 454 407 483 q 192 444 246 443 q 96 468 139 446 q 38 543 53 490 q 36 632 25 589 q 84 703 47 675 q 181 732 121 732 q 269 724 226 732 q 350 712 313 717 q 417 716 388 707 q 467 758 447 725 q 466 794 479 782 q 424 807 453 807 l 160 807 q 65 847 96 807 q 35 940 35 888 m 126 79 q 142 163 126 138 q 157 189 157 189 l 157 325 q 197 399 157 379 q 290 419 238 419 q 383 399 343 419 q 424 325 424 379 l 424 286 l 718 286 l 718 314 q 758 392 718 368 q 853 417 799 417 q 946 392 907 417 q 985 314 985 368 l 985 81 q 938 -48 985 -4 q 804 -92 890 -92 l 381 -92 q 188 -49 250 -92 q 126 79 126 -6 m 250 157 q 258 141 250 144 q 288 138 265 138 l 694 138 q 724 141 717 138 q 732 157 732 144 q 724 171 732 168 q 694 174 717 174 l 288 174 q 258 171 265 174 q 250 157 250 168 z "},"값":{"ha":1210,"x_min":28,"x_max":1214,"o":"m 860 411 q 760 447 800 411 q 721 536 721 483 l 721 974 q 758 1066 721 1031 q 860 1101 796 1101 q 958 1065 922 1101 q 994 971 994 1029 l 994 826 l 1014 819 q 1048 885 1024 861 q 1114 910 1072 910 q 1185 877 1157 910 q 1214 788 1214 844 q 1183 697 1214 729 q 1114 665 1153 665 q 1058 683 1081 665 q 1024 725 1036 701 q 1005 737 1015 740 q 994 714 994 733 l 994 536 q 957 447 994 483 q 860 411 919 411 m 35 940 q 66 1032 35 993 q 157 1071 97 1071 l 485 1071 q 608 1028 571 1071 q 644 899 644 985 q 554 601 644 722 q 292 438 464 481 q 193 426 246 426 q 98 447 140 426 q 40 519 56 468 q 38 610 28 565 q 85 683 49 654 q 181 713 121 713 q 269 706 226 713 q 350 698 313 700 q 417 708 388 696 q 467 758 447 721 q 465 794 478 782 q 424 807 453 807 l 160 807 q 65 847 96 807 q 35 940 35 888 m 90 71 q 100 148 90 119 q 119 189 110 176 q 128 201 128 201 l 128 307 q 219 396 128 396 q 311 307 311 396 l 311 286 l 369 286 l 369 307 q 461 399 369 399 q 554 307 554 399 l 554 149 l 582 190 q 618 241 601 215 q 657 301 635 267 q 715 367 683 343 q 793 390 746 390 q 876 358 842 390 q 911 269 911 326 q 901 217 911 242 q 880 177 890 192 q 869 163 869 163 l 871 161 q 885 167 871 161 q 926 178 900 174 q 982 176 951 183 q 1063 114 1038 165 q 1071 3 1088 63 q 1028 -67 1061 -42 q 949 -92 994 -92 q 881 -69 907 -92 q 844 -25 856 -47 q 822 25 828 3 q 799 47 815 47 l 763 -12 q 714 -69 742 -47 q 642 -92 686 -92 q 531 -32 564 -92 q 481 -76 513 -61 q 397 -92 449 -92 l 282 -92 q 138 -47 186 -92 q 90 71 90 -1 m 226 158 q 233 140 226 144 q 263 136 240 136 l 343 136 q 371 140 364 136 q 378 158 378 144 q 371 178 378 174 q 343 182 364 182 l 263 182 q 233 178 240 182 q 226 158 226 174 z "},"갓":{"ha":1210,"x_min":32,"x_max":1214,"o":"m 860 389 q 760 425 800 389 q 721 514 721 461 l 721 974 q 758 1066 721 1031 q 860 1101 796 1101 q 958 1065 922 1101 q 994 971 994 1029 l 994 790 l 1014 782 q 1048 849 1024 825 q 1114 874 1072 874 q 1185 841 1157 874 q 1214 751 1214 808 q 1183 661 1214 693 q 1114 629 1153 629 q 1058 647 1081 629 q 1024 689 1036 665 q 1005 701 1015 704 q 994 678 994 697 l 994 514 q 957 425 994 461 q 860 389 919 389 m 36 935 q 69 1029 36 990 q 153 1068 101 1068 l 481 1068 q 601 1025 557 1068 q 644 906 644 982 q 602 677 644 788 q 483 482 560 567 q 307 354 407 397 q 213 334 263 336 q 122 352 164 332 q 57 419 81 372 q 39 528 32 472 q 84 624 46 585 q 188 663 122 663 q 309 661 256 663 q 403 678 363 660 q 467 757 443 697 q 460 794 478 785 q 419 803 442 803 l 156 804 q 68 842 100 804 q 36 935 36 879 m 101 7 q 102 131 71 72 q 219 232 133 189 q 338 292 289 267 q 438 350 386 318 q 551 412 501 389 q 649 435 600 435 q 716 414 688 435 q 761 362 744 393 q 781 299 778 331 q 759 214 783 249 q 703 160 735 179 l 740 122 q 804 192 763 165 q 896 218 846 218 q 1010 174 968 218 q 1051 58 1051 131 q 1010 -53 1051 -8 q 896 -97 968 -97 q 801 -69 839 -97 q 739 -8 763 -40 q 681 60 707 32 q 621 89 654 88 q 555 74 586 90 q 487 32 524 58 q 399 -28 450 6 q 279 -83 336 -67 q 177 -80 222 -100 q 101 7 132 -60 z "},"갔":{"ha":1210,"x_min":25,"x_max":1214,"o":"m 860 394 q 760 431 800 394 q 721 519 721 467 l 721 974 q 758 1066 721 1031 q 860 1101 796 1101 q 958 1065 922 1101 q 994 971 994 1029 l 994 813 l 1014 806 q 1048 872 1024 847 q 1114 896 1072 896 q 1185 863 1157 896 q 1214 774 1214 831 q 1183 683 1214 715 q 1114 651 1153 651 q 1058 669 1081 651 q 1024 711 1036 688 q 1005 723 1015 726 q 994 700 994 719 l 994 519 q 957 431 994 467 q 860 394 919 394 m 33 943 q 64 1033 33 996 q 149 1071 94 1071 l 481 1071 q 601 1028 557 1071 q 644 908 644 986 q 600 696 644 797 q 479 519 556 594 q 308 407 403 443 q 213 388 264 390 q 119 403 163 385 q 50 469 75 422 q 33 574 25 519 q 80 668 40 629 q 188 707 119 707 q 281 701 238 707 q 359 693 324 694 q 422 706 394 692 q 467 758 449 719 q 460 796 478 786 q 419 806 442 806 l 151 807 q 64 848 94 807 q 33 943 33 889 m 63 35 q 78 108 63 78 q 131 176 94 139 q 192 238 160 207 q 251 294 225 268 q 321 354 286 331 q 406 378 356 378 q 499 340 471 378 q 528 261 528 301 q 514 199 528 222 q 500 175 500 175 l 529 158 q 566 215 551 190 q 600 269 581 239 q 667 346 631 318 q 761 374 704 374 q 851 337 822 374 q 879 256 879 300 q 864 186 879 215 q 832 138 849 157 l 832 136 q 897 178 860 163 q 974 193 933 193 q 1076 151 1035 193 q 1117 49 1117 110 q 1076 -57 1117 -14 q 974 -99 1036 -100 q 893 -70 926 -97 q 843 -6 860 -43 q 824 28 833 17 q 796 40 814 40 q 768 27 778 40 q 747 -1 758 14 l 733 -22 q 678 -81 714 -54 q 583 -108 642 -108 q 509 -90 540 -108 q 461 -43 478 -71 q 444 13 444 -15 q 456 69 444 49 q 468 90 468 90 q 465 94 468 90 q 451 97 461 97 q 428 86 438 97 q 403 56 418 75 l 351 -7 q 285 -69 318 -46 q 192 -92 253 -92 q 129 -74 158 -92 q 81 -26 100 -56 q 63 35 63 3 z "},"강":{"ha":1210,"x_min":28,"x_max":1214,"o":"m 860 407 q 760 442 800 407 q 721 532 721 478 l 721 974 q 758 1066 721 1031 q 860 1101 796 1101 q 958 1065 922 1101 q 994 971 994 1029 l 994 801 l 1014 794 q 1048 860 1024 836 q 1114 885 1072 885 q 1185 852 1157 885 q 1214 763 1214 819 q 1183 672 1214 704 q 1114 640 1153 640 q 1058 658 1081 640 q 1024 700 1036 676 q 1005 712 1015 715 q 994 689 994 708 l 994 532 q 957 442 994 478 q 860 407 919 407 m 32 940 q 65 1032 32 993 q 149 1071 97 1071 l 485 1071 q 608 1028 571 1071 q 644 899 644 985 q 607 690 644 788 q 495 522 569 593 q 310 417 421 451 q 213 399 265 403 q 117 412 161 394 q 50 476 72 429 q 35 576 28 525 q 81 662 43 626 q 186 697 118 697 q 280 692 236 697 q 359 688 324 688 q 422 704 394 689 q 467 758 449 719 q 460 796 478 786 q 419 806 442 806 l 151 807 q 65 847 97 807 q 32 940 32 888 m 133 150 q 151 254 133 207 q 214 336 168 301 q 343 390 260 371 q 557 408 426 408 q 767 390 685 408 q 895 336 849 371 q 960 254 942 301 q 978 150 978 207 q 940 22 978 79 q 811 -71 903 -36 q 557 -106 719 -106 q 302 -71 394 -106 q 172 22 210 -36 q 133 150 133 79 m 368 254 q 382 230 368 239 q 434 217 396 221 q 546 214 472 214 q 694 223 656 214 q 733 254 733 232 q 694 286 733 278 q 546 294 656 294 q 434 290 472 294 q 382 278 396 286 q 368 254 368 269 z "},"갖":{"ha":1210,"x_min":29,"x_max":1214,"o":"m 860 446 q 760 482 800 446 q 721 571 721 518 l 721 974 q 758 1066 721 1031 q 860 1101 796 1101 q 958 1065 922 1101 q 994 971 994 1029 l 994 838 l 1014 831 q 1048 897 1024 872 q 1114 921 1072 921 q 1185 888 1157 921 q 1214 799 1214 856 q 1183 708 1214 740 q 1114 676 1153 676 q 1058 694 1081 676 q 1024 736 1036 713 q 1005 748 1015 751 q 994 725 994 744 l 994 571 q 957 482 994 518 q 860 446 919 446 m 32 943 q 65 1033 32 996 q 149 1071 97 1071 l 479 1071 q 601 1028 557 1071 q 644 908 644 986 q 613 717 644 797 q 528 583 581 636 q 412 499 475 529 q 288 456 349 468 q 188 448 239 446 q 99 473 138 450 q 44 546 60 496 q 40 640 29 596 q 90 710 51 683 q 194 738 129 738 q 278 729 236 738 q 356 716 319 721 q 422 720 393 711 q 467 764 450 729 q 431 818 490 818 l 151 818 q 65 853 97 818 q 32 943 32 889 m 82 38 q 123 131 82 99 q 232 164 164 164 q 327 160 288 164 q 401 157 367 156 q 468 208 446 161 l 215 208 q 138 238 169 208 q 107 315 107 267 q 139 390 107 364 q 210 415 171 415 l 893 414 q 963 388 932 414 q 994 315 994 361 q 963 236 994 264 q 885 208 932 208 l 725 208 l 690 132 l 736 104 q 797 140 760 125 q 875 160 833 156 q 953 157 917 165 q 1026 108 1001 146 q 1043 14 1050 71 q 995 -66 1036 -40 q 903 -92 954 -92 q 815 -70 860 -92 q 739 -26 769 -49 q 681 15 711 -3 q 618 32 650 32 q 527 8 568 32 q 422 -49 486 -17 q 315 -84 368 -76 q 233 -92 261 -92 q 119 -54 156 -92 q 82 38 82 -17 z "},"갗":{"ha":1210,"x_min":29,"x_max":1214,"o":"m 860 446 q 760 482 800 446 q 721 571 721 518 l 721 974 q 758 1066 721 1031 q 860 1101 796 1101 q 958 1065 922 1101 q 994 971 994 1029 l 994 835 l 1014 828 q 1048 894 1024 869 q 1114 919 1072 919 q 1185 886 1157 919 q 1214 796 1214 853 q 1183 706 1214 739 q 1114 674 1153 674 q 1058 692 1081 674 q 1024 733 1036 710 q 1005 745 1015 749 q 994 722 994 742 l 994 571 q 957 482 994 518 q 860 446 919 446 m 32 943 q 65 1033 32 996 q 149 1071 97 1071 l 479 1071 q 601 1028 557 1071 q 644 908 644 986 q 613 717 644 797 q 528 583 581 636 q 412 499 475 529 q 288 456 349 468 q 188 448 239 446 q 99 473 138 450 q 44 546 60 496 q 40 640 29 596 q 90 710 51 683 q 194 738 129 738 q 278 729 236 738 q 356 716 319 721 q 422 720 393 711 q 467 764 450 729 q 431 818 490 818 l 151 818 q 65 853 97 818 q 32 943 32 889 m 82 35 q 123 127 82 96 q 232 158 164 158 q 327 155 288 158 q 401 153 367 151 q 440 166 425 156 q 467 203 456 176 l 215 203 q 138 231 169 203 q 107 307 107 260 q 139 381 107 356 q 210 406 171 406 l 446 406 q 444 413 444 408 q 444 419 444 417 q 486 494 444 468 q 589 519 528 519 q 690 493 647 519 q 729 419 732 467 l 728 404 l 893 404 q 963 378 932 404 q 994 307 994 353 q 963 231 994 258 q 885 203 932 203 l 725 203 l 690 128 l 736 100 q 797 135 760 121 q 875 156 833 150 q 953 151 917 161 q 1026 104 1001 140 q 1043 11 1050 68 q 995 -67 1036 -42 q 903 -92 954 -92 q 815 -71 860 -92 q 739 -28 769 -50 q 618 18 683 18 q 527 1 568 18 q 422 -50 486 -17 q 315 -84 368 -76 q 233 -92 261 -92 q 119 -55 156 -92 q 82 35 82 -18 z "},"같":{"ha":1210,"x_min":25,"x_max":1214,"o":"m 860 433 q 760 469 800 433 q 721 558 721 506 l 721 974 q 758 1066 721 1031 q 860 1101 796 1101 q 958 1065 922 1101 q 994 971 994 1029 l 994 813 l 1014 806 q 1048 872 1024 847 q 1114 896 1072 896 q 1185 863 1157 896 q 1214 774 1214 831 q 1183 683 1214 715 q 1114 651 1153 651 q 1058 669 1081 651 q 1024 711 1036 688 q 1005 723 1015 726 q 994 700 994 719 l 994 558 q 957 469 994 506 q 860 433 919 433 m 35 946 q 67 1035 35 999 q 151 1071 100 1071 l 482 1071 q 602 1033 558 1071 q 646 917 646 994 q 602 701 646 799 q 480 538 558 604 q 296 444 401 472 q 199 432 250 432 q 108 453 149 432 q 49 525 67 474 q 57 651 25 596 q 164 713 89 707 q 260 713 213 717 q 351 707 308 708 q 425 717 393 706 q 471 764 457 729 q 467 806 486 796 q 425 817 447 817 l 154 818 q 67 856 100 818 q 35 946 35 893 m 144 324 q 174 385 144 368 q 250 403 203 403 l 864 403 q 945 383 919 403 q 971 319 971 364 q 945 256 971 275 q 864 236 919 236 l 336 236 q 319 230 326 236 q 313 206 311 224 l 869 207 q 907 174 907 207 q 869 142 907 142 l 318 143 q 330 119 321 125 q 354 114 339 114 l 857 114 q 951 87 922 114 q 981 11 981 60 q 951 -65 981 -37 q 857 -93 922 -93 l 407 -93 q 222 -48 283 -93 q 157 75 160 -3 q 179 182 154 140 q 238 240 204 224 l 238 242 q 172 261 199 242 q 144 324 144 281 z "},"갚":{"ha":1210,"x_min":28,"x_max":1214,"o":"m 721 974 q 758 1066 721 1031 q 860 1101 796 1101 q 958 1065 922 1101 q 994 971 994 1029 l 994 826 l 1014 819 q 1048 885 1024 861 q 1114 910 1072 910 q 1185 877 1157 910 q 1214 788 1214 844 q 1183 697 1214 729 q 1114 665 1153 665 q 1058 683 1081 665 q 1024 725 1036 701 q 1005 737 1015 740 q 994 714 994 733 l 994 574 q 957 485 994 521 q 860 449 919 449 q 760 485 800 449 q 721 574 721 521 l 721 974 m 35 940 q 66 1032 35 993 q 157 1071 97 1071 l 485 1071 q 608 1028 571 1071 q 644 899 644 985 q 553 614 644 731 q 292 463 463 497 q 192 454 246 454 q 97 475 139 454 q 40 547 56 496 q 38 638 28 593 q 85 711 49 682 q 181 740 121 740 q 269 730 226 740 q 350 712 313 719 q 417 713 388 704 q 467 758 447 721 q 465 794 478 782 q 424 807 453 807 l 160 807 q 65 847 96 807 q 35 940 35 888 m 261 -92 q 167 -60 206 -92 q 128 38 128 -29 q 165 133 128 101 q 257 164 201 164 l 285 164 l 285 194 l 257 194 q 168 221 201 194 q 135 307 135 247 q 168 390 135 364 q 257 417 201 417 l 844 417 q 941 390 910 417 q 972 307 972 364 q 940 221 972 247 q 846 194 908 194 l 819 194 l 819 164 l 846 164 q 948 133 908 164 q 988 38 988 103 q 951 -60 988 -29 q 850 -92 915 -92 l 261 -92 m 368 174 q 377 159 368 161 q 404 157 386 157 l 650 157 q 678 159 671 157 q 686 174 686 161 l 686 182 q 678 196 686 193 q 650 199 671 199 l 404 199 q 377 196 386 199 q 368 182 368 193 l 368 174 z "},"갛":{"ha":1210,"x_min":18,"x_max":1214,"o":"m 721 974 q 758 1066 721 1031 q 860 1101 796 1101 q 958 1065 922 1101 q 994 971 994 1029 l 994 813 l 1014 806 q 1048 872 1024 847 q 1114 896 1072 896 q 1185 863 1157 896 q 1214 774 1214 831 q 1183 683 1214 715 q 1114 651 1153 651 q 1058 669 1081 651 q 1024 711 1036 688 q 1005 723 1015 726 q 994 700 994 719 l 994 546 q 957 457 994 493 q 860 421 919 421 q 760 457 800 421 q 721 546 721 493 l 721 974 m 32 544 q 54 664 18 617 q 185 721 90 711 q 273 723 229 725 q 355 721 317 721 q 422 731 393 721 q 467 768 451 740 q 469 807 481 793 q 431 821 458 821 l 151 821 q 65 856 97 821 q 32 944 32 892 q 65 1034 32 997 q 149 1071 97 1071 l 479 1071 q 601 1028 557 1071 q 644 908 644 986 q 612 717 644 800 q 525 576 579 635 q 406 484 471 518 q 276 439 342 450 q 169 433 221 429 q 81 463 118 438 q 32 544 44 489 m 107 290 q 138 360 107 331 q 242 389 169 389 l 407 389 q 451 460 410 435 q 551 485 492 485 q 649 459 608 485 q 692 389 690 433 l 857 389 q 960 360 928 389 q 993 290 993 331 q 963 219 993 249 q 863 190 933 190 q 942 159 914 190 q 969 78 969 128 q 546 -111 969 -111 q 329 -92 425 -111 q 178 -33 233 -74 q 124 68 124 7 q 158 158 124 125 q 232 190 192 190 q 133 219 160 190 q 107 290 107 249 m 540 125 q 683 132 646 125 q 719 153 719 139 q 683 177 719 172 q 540 182 646 182 q 433 179 469 182 q 383 170 396 176 q 369 153 369 164 q 383 137 369 143 q 433 128 396 131 q 540 125 469 125 z "},"개":{"ha":1233,"x_min":56,"x_max":1138,"o":"m 1022 -92 q 940 -62 972 -92 q 907 25 907 -32 l 907 522 l 864 522 l 864 25 q 833 -56 864 -26 q 754 -85 801 -85 q 676 -56 707 -85 q 644 25 644 -26 l 644 988 q 676 1069 644 1040 q 754 1097 707 1097 q 833 1069 801 1097 q 864 988 864 1040 l 864 657 l 882 657 q 901 660 894 657 q 907 681 907 663 l 907 992 q 940 1078 907 1049 q 1022 1107 972 1107 q 1106 1078 1074 1107 q 1138 992 1138 1049 l 1138 25 q 1106 -62 1138 -32 q 1022 -92 1074 -92 m 79 863 q 112 963 79 922 q 217 1003 144 1003 l 419 1003 q 543 957 504 1003 q 582 828 582 911 q 564 509 582 653 q 497 263 546 365 q 357 111 449 161 q 249 78 303 82 q 153 100 196 75 q 90 178 111 125 q 96 330 56 263 q 228 426 136 397 q 344 478 289 446 q 433 556 399 510 q 467 665 467 603 q 452 703 467 689 q 415 717 438 717 l 217 718 q 112 760 144 718 q 79 863 79 803 z "},"객":{"ha":1210,"x_min":50,"x_max":1086,"o":"m 607 989 q 637 1062 607 1033 q 719 1090 667 1090 q 797 1062 768 1090 q 825 986 825 1033 l 825 796 l 842 796 q 858 813 858 796 l 858 994 q 890 1072 858 1042 q 975 1101 921 1101 q 1057 1072 1028 1101 q 1086 993 1086 1042 l 1086 493 q 1055 417 1086 447 q 975 388 1024 388 q 891 417 924 388 q 858 493 858 447 l 858 708 l 825 708 l 825 496 q 796 424 825 453 q 719 396 767 396 q 638 424 669 396 q 607 496 607 453 l 607 989 m 319 407 q 219 385 271 386 q 125 406 167 383 q 67 479 83 428 q 63 574 50 529 q 115 646 75 618 q 217 674 154 674 q 341 688 288 674 q 419 747 394 701 q 422 788 433 774 q 382 801 410 801 l 176 801 q 83 842 113 801 q 53 936 53 883 q 83 1030 53 989 q 176 1071 113 1071 l 414 1071 q 533 1028 492 1071 q 574 908 574 986 q 540 667 574 768 q 450 503 507 567 q 319 407 393 439 m 194 225 q 232 322 194 286 q 336 358 269 358 l 903 358 q 1033 315 990 358 q 1075 192 1075 272 q 1073 104 1075 140 q 1064 25 1071 68 q 1023 -68 1054 -35 q 921 -97 992 -101 q 844 -73 871 -94 q 809 -23 818 -51 q 799 28 800 6 q 784 74 797 60 q 733 88 771 88 l 338 88 q 232 125 269 88 q 194 225 194 163 z "},"갠":{"ha":1210,"x_min":42,"x_max":1082,"o":"m 600 989 q 631 1062 600 1033 q 713 1090 661 1090 q 790 1062 761 1090 q 819 986 819 1033 l 819 747 l 836 747 q 854 764 854 747 l 854 994 q 885 1072 854 1042 q 969 1101 915 1101 q 1052 1072 1022 1101 q 1082 993 1082 1042 l 1082 381 q 1050 305 1082 335 q 969 275 1018 275 q 886 305 918 275 q 854 381 854 335 l 854 660 l 819 660 l 819 383 q 790 312 819 340 q 713 283 760 283 q 631 312 663 283 q 600 383 600 340 l 600 989 m 319 399 q 220 374 272 378 q 126 388 168 369 q 61 457 83 407 q 48 551 42 504 q 90 632 54 597 q 192 675 125 667 q 289 683 243 682 q 369 699 335 685 q 419 758 403 714 q 415 794 429 782 q 374 806 400 806 l 174 807 q 79 847 110 807 q 49 940 49 888 q 80 1032 49 993 q 171 1071 111 1071 l 392 1071 q 517 1028 469 1071 q 565 908 565 986 q 543 697 565 799 q 467 518 521 596 q 319 399 414 440 m 172 135 q 172 172 171 158 q 175 222 172 185 q 307 347 185 347 q 400 319 368 347 q 432 246 432 292 q 444 209 432 224 q 503 194 456 194 l 928 194 q 1033 159 996 194 q 1069 51 1069 124 q 1033 -54 1069 -17 q 928 -92 996 -92 l 432 -92 q 292 -72 349 -92 q 205 -2 235 -51 q 172 135 175 47 z "},"갣":{"ha":1210,"x_min":54,"x_max":1086,"o":"m 719 443 q 638 472 669 443 q 607 543 607 500 l 607 989 q 637 1062 607 1033 q 719 1090 667 1090 q 797 1062 768 1090 q 825 986 825 1033 l 825 835 l 842 835 q 858 851 858 835 l 858 994 q 890 1072 858 1042 q 975 1101 921 1101 q 1057 1072 1028 1101 q 1086 993 1086 1042 l 1086 539 q 1055 464 1086 494 q 975 433 1024 433 q 891 464 924 433 q 858 539 858 494 l 858 747 l 825 747 l 825 543 q 796 472 825 500 q 719 443 767 443 m 63 943 q 96 1033 63 996 q 193 1071 129 1071 l 411 1071 q 530 1028 489 1071 q 571 908 571 986 q 539 677 571 768 q 449 532 507 586 q 317 450 392 478 q 218 431 268 433 q 128 450 168 429 q 71 519 89 471 q 67 614 54 569 q 119 686 79 658 q 225 714 160 714 q 308 712 272 714 q 371 718 344 710 q 417 757 397 726 q 420 796 432 782 q 381 810 408 810 l 194 810 q 96 849 129 810 q 63 943 63 889 m 207 308 q 236 381 207 356 q 313 406 265 406 l 943 406 q 1027 376 999 406 q 1056 301 1056 347 q 1027 225 1056 254 q 943 196 999 196 l 408 196 q 383 193 392 196 q 375 176 375 190 q 383 160 375 163 q 408 157 392 157 l 926 157 q 1032 123 1000 157 q 1064 36 1064 89 q 1032 -54 1064 -17 q 926 -92 1000 -92 l 454 -92 q 279 -47 339 -92 q 219 69 219 -3 q 244 167 219 133 q 300 210 269 201 l 300 211 q 234 234 261 211 q 207 308 207 257 z "},"갤":{"ha":1210,"x_min":50,"x_max":1104,"o":"m 719 444 q 638 473 669 444 q 607 544 607 501 l 607 989 q 637 1062 607 1033 q 719 1090 667 1090 q 797 1062 768 1090 q 825 986 825 1033 l 825 818 l 842 818 q 858 833 858 818 l 858 994 q 890 1072 858 1042 q 975 1101 921 1101 q 1057 1072 1028 1101 q 1086 993 1086 1042 l 1086 542 q 1055 467 1086 497 q 975 436 1024 436 q 891 467 924 436 q 858 542 858 497 l 858 731 l 825 731 l 825 544 q 796 473 825 501 q 719 444 767 444 m 60 946 q 92 1035 60 999 q 183 1071 124 1071 l 411 1071 q 530 1028 489 1071 q 571 908 571 986 q 537 679 571 771 q 446 534 503 588 q 317 454 389 481 q 216 434 268 438 q 123 451 164 431 q 65 524 82 472 q 60 617 50 574 q 110 688 71 661 q 214 714 149 714 q 299 714 261 714 q 366 725 338 714 q 414 768 394 736 q 418 805 428 792 q 381 818 408 818 l 186 818 q 91 856 122 818 q 60 946 60 893 m 176 82 q 199 178 179 149 q 260 217 219 208 q 365 225 300 225 l 857 225 q 872 228 867 225 q 876 240 876 231 q 857 256 876 256 l 311 256 q 250 274 276 256 q 224 333 224 293 q 250 392 224 376 q 311 408 276 408 l 932 408 q 1035 387 1006 408 q 1064 289 1064 365 q 1051 219 1064 242 q 1013 189 1038 196 q 956 182 989 182 l 344 182 q 320 179 326 182 q 314 165 314 176 q 320 151 314 153 q 344 150 326 150 l 957 150 q 1072 121 1039 150 q 1104 29 1104 92 q 1072 -61 1104 -31 q 957 -92 1039 -92 l 410 -92 q 278 -81 331 -92 q 199 -34 225 -71 q 176 82 174 3 z "},"갬":{"ha":1210,"x_min":61,"x_max":1086,"o":"m 719 432 q 638 460 669 432 q 607 532 607 489 l 607 989 q 637 1062 607 1033 q 719 1090 667 1090 q 797 1062 768 1090 q 825 986 825 1033 l 825 813 l 842 813 q 858 829 858 813 l 858 994 q 890 1072 858 1042 q 975 1101 921 1101 q 1057 1072 1028 1101 q 1086 993 1086 1042 l 1086 529 q 1055 454 1086 485 q 975 424 1024 424 q 891 454 924 424 q 858 529 858 485 l 858 725 l 825 725 l 825 532 q 796 460 825 489 q 719 432 767 432 m 68 943 q 99 1033 68 996 q 197 1071 131 1071 l 411 1071 q 530 1033 489 1071 q 571 908 571 996 q 539 674 571 768 q 451 525 507 581 q 321 442 394 469 q 222 422 274 424 q 131 442 171 421 q 76 515 92 464 q 74 608 61 565 q 126 678 86 651 q 231 704 165 704 q 310 704 275 704 q 371 715 344 704 q 417 757 397 725 q 419 793 431 781 q 381 806 407 806 l 200 806 q 99 847 131 806 q 68 943 68 889 m 217 72 q 233 139 217 111 q 271 183 250 167 q 303 200 292 199 l 303 201 q 240 230 264 201 q 217 301 217 258 q 241 369 217 342 q 315 397 265 397 l 908 397 q 1031 354 990 397 q 1072 232 1072 311 l 1072 63 q 908 -92 1072 -92 l 444 -92 q 272 -48 328 -92 q 217 72 217 -4 m 357 179 q 364 161 357 165 q 393 157 371 157 l 803 157 q 831 161 825 157 q 838 179 838 165 q 831 197 838 193 q 803 201 825 201 l 393 201 q 364 197 371 201 q 357 179 357 193 z "},"갭":{"ha":1210,"x_min":58,"x_max":1086,"o":"m 719 443 q 638 472 669 443 q 607 543 607 500 l 607 989 q 637 1062 607 1033 q 719 1090 667 1090 q 797 1062 768 1090 q 825 986 825 1033 l 825 813 l 842 813 q 858 829 858 813 l 858 994 q 890 1072 858 1042 q 975 1101 921 1101 q 1057 1072 1028 1101 q 1086 993 1086 1042 l 1086 539 q 1055 464 1086 494 q 975 433 1024 433 q 891 464 924 433 q 858 539 858 494 l 858 725 l 825 725 l 825 543 q 796 472 825 500 q 719 443 767 443 m 68 943 q 99 1033 68 996 q 197 1071 131 1071 l 411 1071 q 530 1033 489 1071 q 571 908 571 996 q 539 678 571 768 q 451 537 507 589 q 321 457 394 485 q 222 437 274 439 q 130 457 169 435 q 76 531 90 479 q 95 652 58 600 q 231 704 132 704 q 310 704 275 704 q 371 715 344 704 q 417 757 397 725 q 419 793 431 781 q 381 806 407 806 l 200 806 q 99 847 131 806 q 68 943 68 889 m 186 79 q 202 163 186 138 q 218 189 218 189 l 218 313 q 258 387 218 367 q 350 407 297 407 q 443 387 403 407 q 483 313 483 367 l 483 286 l 803 286 l 803 301 q 843 380 803 356 q 938 404 883 404 q 1031 380 992 404 q 1069 301 1069 356 l 1069 81 q 1023 -48 1069 -4 q 889 -92 976 -92 l 440 -92 q 186 79 186 -92 m 310 157 q 318 141 310 144 q 347 138 326 138 l 781 138 q 809 141 801 138 q 817 157 817 144 q 809 171 817 168 q 781 174 801 174 l 347 174 q 318 171 326 174 q 310 157 310 168 z "},"갯":{"ha":1210,"x_min":64,"x_max":1097,"o":"m 607 989 q 637 1062 607 1033 q 719 1090 667 1090 q 797 1062 768 1090 q 825 986 825 1033 l 825 796 l 842 796 q 858 813 858 796 l 858 994 q 890 1072 858 1042 q 975 1101 921 1101 q 1057 1072 1028 1101 q 1086 993 1086 1042 l 1086 454 q 1055 379 1086 410 q 975 349 1024 349 q 891 379 924 349 q 858 454 858 410 l 858 708 l 825 708 l 825 529 q 796 458 825 486 q 719 429 767 429 q 638 458 669 429 q 607 529 607 486 l 607 989 m 329 351 q 231 325 281 328 q 143 344 182 322 q 88 418 104 367 q 103 543 64 493 q 232 614 143 593 q 347 662 303 631 q 415 736 392 693 q 418 778 429 763 q 379 794 407 794 l 204 794 q 106 837 138 794 q 74 932 74 879 q 106 1026 74 985 q 204 1067 138 1067 l 410 1067 q 528 1024 488 1067 q 569 904 569 982 q 503 540 569 675 q 329 351 436 406 m 151 -4 q 151 110 126 53 q 267 207 176 168 q 384 263 336 239 q 483 315 432 286 q 598 373 549 351 q 694 394 647 394 q 762 375 733 394 q 807 327 790 356 q 826 269 824 299 q 806 191 831 222 q 749 140 782 160 l 786 107 q 851 169 810 144 q 943 193 892 193 q 1056 153 1014 193 q 1097 47 1097 113 q 1056 -56 1097 -15 q 943 -97 1014 -97 q 848 -72 886 -97 q 785 -15 810 -46 q 725 44 754 22 q 664 67 696 65 q 561 42 613 68 q 433 -32 510 15 q 319 -84 374 -69 q 221 -81 264 -99 q 151 -4 178 -64 z "},"갰":{"ha":1210,"x_min":60,"x_max":1157,"o":"m 607 989 q 637 1062 607 1033 q 719 1090 667 1090 q 797 1062 768 1090 q 825 986 825 1033 l 825 796 l 842 796 q 858 813 858 796 l 858 994 q 890 1072 858 1042 q 975 1101 921 1101 q 1057 1072 1028 1101 q 1086 993 1086 1042 l 1086 475 q 1055 400 1086 431 q 975 369 1024 369 q 891 400 924 369 q 858 475 858 431 l 858 708 l 825 708 l 825 492 q 796 420 825 449 q 719 392 767 392 q 638 420 669 392 q 607 492 607 449 l 607 989 m 319 390 q 226 365 274 368 q 140 383 178 361 q 83 457 101 406 q 99 582 60 532 q 228 653 139 632 q 345 683 299 669 q 415 742 392 697 q 418 784 429 768 q 379 800 407 800 l 204 800 q 106 842 138 800 q 74 938 74 885 q 106 1031 74 990 q 204 1071 138 1071 l 410 1071 q 528 1028 488 1071 q 569 908 569 986 q 538 656 569 757 q 451 492 507 554 q 319 390 394 429 m 104 35 q 120 108 104 78 q 171 176 136 139 q 233 238 200 207 q 293 294 267 268 q 363 354 328 331 q 446 378 397 378 q 540 340 511 378 q 569 261 569 301 q 556 199 569 222 q 542 175 542 175 l 569 158 q 608 215 593 190 q 642 269 622 239 q 708 344 672 318 q 800 369 743 369 q 890 335 861 369 q 919 256 919 300 q 904 186 919 215 q 872 138 889 157 l 874 136 q 938 178 901 163 q 1015 193 974 193 q 1117 151 1076 193 q 1157 49 1157 110 q 1117 -57 1157 -14 q 1015 -99 1076 -100 q 935 -70 968 -97 q 883 -6 901 -43 q 864 28 874 17 q 838 40 854 40 q 810 27 819 40 q 789 -1 800 14 l 775 -22 q 719 -81 754 -54 q 625 -108 683 -108 q 550 -90 582 -108 q 501 -43 518 -71 q 485 13 485 -15 q 497 69 485 49 q 508 90 508 90 q 506 94 508 90 q 493 97 503 97 q 469 86 479 97 q 444 56 460 75 l 393 -7 q 327 -69 360 -46 q 232 -92 294 -92 q 170 -74 200 -92 q 122 -26 140 -56 q 104 35 104 3 z "},"갱":{"ha":1210,"x_min":61,"x_max":1086,"o":"m 719 440 q 638 469 669 440 q 607 540 607 497 l 607 989 q 637 1062 607 1033 q 719 1090 667 1090 q 797 1062 768 1090 q 825 986 825 1033 l 825 813 l 842 813 q 858 829 858 813 l 858 994 q 890 1072 858 1042 q 975 1101 921 1101 q 1057 1072 1028 1101 q 1086 993 1086 1042 l 1086 494 q 1055 419 1086 449 q 975 389 1024 389 q 891 419 924 389 q 858 494 858 449 l 858 725 l 825 725 l 825 540 q 796 469 825 497 q 719 440 767 440 m 68 943 q 99 1033 68 996 q 197 1071 131 1071 l 411 1071 q 530 1033 489 1071 q 571 908 571 996 q 501 581 571 699 q 321 421 431 463 q 222 401 274 403 q 131 422 171 400 q 76 494 92 444 q 74 588 61 544 q 126 657 86 631 q 231 683 165 683 q 342 697 297 683 q 417 757 388 710 q 419 793 431 781 q 381 806 407 806 l 200 806 q 99 847 131 806 q 68 943 68 889 m 186 150 q 203 254 186 207 q 265 335 219 301 q 395 388 310 369 q 618 407 481 407 q 832 388 749 407 q 963 335 915 369 q 1028 254 1010 301 q 1047 150 1047 207 q 1009 22 1047 79 q 878 -71 971 -36 q 618 -106 785 -106 q 358 -71 453 -106 q 225 22 264 -36 q 186 150 186 79 m 425 250 q 440 230 425 238 q 493 218 454 222 q 607 214 532 214 q 758 223 718 214 q 799 250 799 232 q 758 285 799 276 q 607 294 718 294 q 493 290 532 294 q 440 276 454 286 q 425 250 425 267 z "},"갸":{"ha":1210,"x_min":10,"x_max":1211,"o":"m 1094 281 q 1031 300 1057 281 q 992 346 1006 319 q 969 358 982 363 q 957 333 957 354 l 957 33 q 919 -56 957 -19 q 822 -92 882 -92 q 723 -56 763 -92 q 683 33 683 -19 l 683 972 q 721 1068 683 1029 q 822 1107 758 1107 q 921 1067 885 1107 q 957 969 957 1028 l 957 753 l 982 744 q 1019 819 992 790 q 1094 847 1047 847 q 1178 811 1144 847 q 1211 715 1211 775 q 1175 617 1211 651 q 1094 582 1139 582 q 1031 601 1057 582 q 992 647 1006 621 q 969 660 982 664 q 957 636 957 656 l 957 451 l 981 443 q 1019 517 992 488 q 1094 546 1047 546 q 1178 510 1144 546 q 1211 414 1211 475 q 1175 315 1211 350 q 1094 281 1139 281 m 26 867 q 59 966 26 925 q 164 1007 92 1007 l 439 1007 q 561 961 522 1007 q 600 832 600 915 q 574 511 600 656 q 486 265 549 367 q 315 115 424 163 q 204 89 260 90 q 106 113 149 88 q 42 192 63 139 q 46 347 10 276 q 179 444 82 418 q 282 476 229 457 q 381 523 335 496 q 456 586 428 550 q 485 669 485 622 q 471 706 485 693 q 433 719 457 719 l 164 721 q 59 764 92 721 q 26 867 26 807 z "},"갹":{"ha":1210,"x_min":40,"x_max":1214,"o":"m 721 974 q 758 1066 721 1031 q 860 1101 796 1101 q 958 1065 922 1101 q 994 971 994 1029 l 994 921 l 1015 908 q 1049 970 1025 947 q 1114 993 1072 993 q 1186 962 1158 993 q 1214 878 1214 931 q 1184 792 1214 822 q 1114 763 1154 763 q 1060 780 1082 763 q 1025 819 1038 797 q 1006 830 1017 833 q 994 807 994 826 l 994 664 l 1015 651 q 1049 713 1025 690 q 1114 735 1072 735 q 1186 703 1158 735 q 1214 619 1214 672 q 1184 535 1214 564 q 1114 506 1154 506 q 1060 522 1082 506 q 1025 561 1038 539 q 1006 573 1017 576 q 994 550 994 569 l 994 515 q 957 426 994 463 q 860 390 919 390 q 760 426 800 390 q 721 515 721 463 l 721 974 m 44 935 q 76 1031 44 992 q 164 1071 108 1071 l 485 1071 q 608 1028 571 1071 q 644 899 644 985 q 609 688 644 788 q 502 514 574 588 q 319 406 431 440 q 224 387 275 392 q 128 398 172 382 q 63 460 85 414 q 48 557 40 508 q 93 640 56 606 q 199 676 131 674 q 322 681 267 681 q 416 695 378 682 q 467 749 454 708 q 428 794 481 794 l 167 796 q 76 836 108 796 q 44 935 44 876 m 832 -97 q 756 -73 782 -94 q 719 -23 729 -51 q 708 28 710 6 q 694 74 707 60 q 644 88 682 88 l 293 88 q 188 125 225 88 q 150 225 150 163 q 188 322 150 286 q 292 358 225 358 l 813 358 q 942 315 900 358 q 985 192 985 272 q 984 133 985 158 q 981 84 983 108 q 974 25 978 60 q 934 -68 967 -35 q 832 -97 901 -101 z "},"갼":{"ha":1210,"x_min":32,"x_max":1214,"o":"m 860 275 q 760 311 800 275 q 721 400 721 347 l 721 974 q 758 1066 721 1031 q 860 1101 796 1101 q 958 1065 922 1101 q 994 971 994 1029 l 994 882 l 1015 869 q 1049 930 1025 907 q 1114 953 1072 953 q 1186 922 1158 953 q 1214 838 1214 890 q 1184 752 1214 782 q 1114 722 1154 722 q 1060 740 1082 722 q 1025 779 1038 757 q 1006 790 1017 793 q 994 768 994 788 l 994 614 l 1015 601 q 1049 663 1025 640 q 1114 685 1072 685 q 1186 653 1158 685 q 1214 569 1214 622 q 1184 485 1214 514 q 1114 456 1154 456 q 1060 472 1082 456 q 1025 511 1038 489 q 1006 523 1017 526 q 994 500 994 519 l 994 400 q 957 311 994 347 q 860 275 919 275 m 32 940 q 65 1032 32 993 q 149 1071 97 1071 l 481 1071 q 601 1028 557 1071 q 644 908 644 986 q 613 677 644 781 q 511 501 582 574 q 324 396 440 429 q 225 381 278 383 q 126 396 172 378 q 56 463 81 414 q 35 540 38 499 q 50 617 33 581 q 101 676 67 653 q 189 699 135 699 q 311 693 257 699 q 405 699 365 688 q 467 758 444 710 q 465 795 478 785 q 432 806 453 806 l 151 807 q 65 847 97 807 q 32 940 32 888 m 122 135 q 122 172 121 158 q 125 222 122 185 q 257 347 135 347 q 350 319 318 347 q 382 246 382 292 q 394 209 382 224 q 453 194 406 194 l 865 194 q 970 159 933 194 q 1007 51 1007 124 q 970 -54 1007 -17 q 865 -92 933 -92 l 382 -92 q 242 -72 299 -92 q 155 -2 185 -51 q 122 135 125 47 z "},"걀":{"ha":1210,"x_min":32,"x_max":1214,"o":"m 860 439 q 758 475 796 439 q 721 564 721 511 l 721 974 q 758 1066 721 1031 q 860 1101 796 1101 q 958 1065 922 1101 q 994 971 994 1029 l 994 944 l 1015 932 q 1049 992 1025 969 q 1114 1015 1072 1015 q 1186 984 1158 1015 q 1214 900 1214 953 q 1184 815 1214 844 q 1114 785 1154 785 q 1060 802 1082 785 q 1025 842 1038 819 q 1006 853 1017 856 q 994 831 994 850 l 994 686 l 1015 674 q 1049 735 1025 713 q 1114 757 1072 757 q 1186 726 1158 757 q 1214 643 1214 696 q 1184 558 1214 588 q 1114 528 1154 528 q 1060 545 1082 528 q 1025 583 1038 563 q 1006 595 1017 599 q 994 572 994 592 l 994 564 q 957 475 994 511 q 860 439 919 439 m 32 946 q 65 1035 32 999 q 149 1071 97 1071 l 482 1071 q 602 1033 558 1071 q 646 917 646 994 q 600 713 646 806 q 476 553 554 619 q 299 456 397 486 q 196 438 247 439 q 106 459 144 438 q 49 531 67 481 q 42 619 33 575 q 82 694 51 663 q 163 729 113 725 q 257 726 208 733 q 349 715 306 719 q 424 720 392 711 q 471 764 457 729 q 467 806 486 796 q 425 817 447 817 l 151 818 q 65 856 97 818 q 32 946 32 893 m 110 82 q 133 178 113 149 q 194 217 153 208 q 299 225 235 225 l 765 225 q 781 228 776 225 q 785 240 785 231 q 765 256 785 256 l 244 256 q 183 274 210 256 q 157 333 157 293 q 183 392 157 376 q 244 408 210 408 l 840 408 q 943 387 914 408 q 972 289 972 365 q 959 219 972 242 q 922 189 946 196 q 864 182 897 182 l 278 182 q 254 179 261 182 q 247 165 247 176 q 254 151 247 153 q 278 150 261 150 l 874 150 q 988 121 956 150 q 1021 29 1021 92 q 988 -61 1021 -31 q 874 -92 956 -92 l 344 -92 q 212 -81 265 -92 q 133 -34 158 -71 q 110 82 107 3 z "},"걋":{"ha":1210,"x_min":32,"x_max":1214,"o":"m 860 389 q 760 425 800 389 q 721 514 721 461 l 721 974 q 758 1066 721 1031 q 860 1101 796 1101 q 958 1065 922 1101 q 994 971 994 1029 l 994 925 l 1015 913 q 1049 974 1025 951 q 1114 996 1072 996 q 1186 965 1158 996 q 1214 882 1214 935 q 1184 797 1214 826 q 1114 767 1154 767 q 1060 784 1082 767 q 1025 822 1038 801 q 1006 834 1017 838 q 994 811 994 831 l 994 664 l 1015 651 q 1049 713 1025 690 q 1114 735 1072 735 q 1186 703 1158 735 q 1214 619 1214 672 q 1184 535 1214 564 q 1114 506 1154 506 q 1060 522 1082 506 q 1025 561 1038 539 q 1006 573 1017 576 q 994 550 994 569 l 994 514 q 957 425 994 461 q 860 389 919 389 m 36 935 q 69 1029 36 990 q 153 1068 101 1068 l 481 1068 q 601 1025 557 1068 q 644 906 644 982 q 602 677 644 788 q 483 482 560 567 q 307 354 407 397 q 213 334 263 336 q 122 352 164 332 q 57 419 81 372 q 39 528 32 472 q 84 624 46 585 q 188 663 122 663 q 309 661 256 663 q 403 678 363 660 q 467 757 443 697 q 460 794 478 785 q 419 803 442 803 l 156 804 q 68 842 100 804 q 36 935 36 879 m 104 7 q 105 131 74 72 q 222 232 136 189 q 340 292 292 267 q 440 350 388 318 q 553 412 504 389 q 651 435 603 435 q 719 414 690 435 q 764 362 747 393 q 782 299 781 331 q 762 214 786 249 q 706 160 738 179 l 743 122 q 807 192 765 165 q 899 218 849 218 q 1013 174 971 218 q 1054 58 1054 131 q 1013 -53 1054 -8 q 899 -97 971 -97 q 803 -69 842 -97 q 742 -8 765 -40 q 683 60 710 32 q 624 89 657 88 q 558 74 589 90 q 490 32 526 58 q 401 -28 453 6 q 282 -83 339 -67 q 180 -80 225 -100 q 104 7 135 -60 z "},"걍":{"ha":1210,"x_min":28,"x_max":1214,"o":"m 860 408 q 760 444 800 408 q 721 533 721 481 l 721 974 q 758 1066 721 1031 q 860 1101 796 1101 q 958 1065 922 1101 q 994 971 994 1029 l 994 932 l 1015 919 q 1049 981 1025 958 q 1114 1004 1072 1004 q 1186 973 1158 1004 q 1214 889 1214 942 q 1184 803 1214 833 q 1114 774 1154 774 q 1060 791 1082 774 q 1025 831 1038 808 q 1006 842 1017 844 q 994 819 994 839 l 994 671 l 1015 658 q 1049 720 1025 697 q 1114 743 1072 743 q 1186 712 1158 743 q 1214 628 1214 681 q 1184 542 1214 572 q 1114 513 1154 513 q 1060 530 1082 513 q 1025 569 1038 547 q 1006 580 1017 583 q 994 557 994 576 l 994 533 q 957 444 994 481 q 860 408 919 408 m 32 940 q 65 1032 32 993 q 149 1071 97 1071 l 485 1071 q 608 1028 571 1071 q 644 899 644 985 q 607 690 644 788 q 495 522 569 593 q 310 417 421 451 q 213 399 265 403 q 117 412 161 394 q 50 476 72 429 q 35 576 28 525 q 81 662 43 626 q 186 697 118 697 q 280 692 236 697 q 359 688 324 688 q 422 704 394 689 q 467 758 449 719 q 460 796 478 786 q 419 806 442 806 l 151 807 q 65 847 97 807 q 32 940 32 888 m 142 150 q 159 254 142 207 q 222 336 176 301 q 351 390 268 371 q 564 408 433 408 q 774 390 692 408 q 903 336 857 371 q 967 254 949 301 q 985 150 985 207 q 947 22 985 79 q 818 -71 910 -36 q 564 -106 726 -106 q 310 -71 401 -106 q 180 22 218 -36 q 142 150 142 79 m 375 254 q 389 230 375 239 q 442 217 403 221 q 554 214 481 214 q 702 223 663 214 q 742 254 742 232 q 702 286 742 278 q 554 294 663 294 q 442 290 481 294 q 389 278 403 286 q 375 254 375 269 z "},"걔":{"ha":1233,"x_min":43,"x_max":1142,"o":"m 1026 -92 q 943 -62 975 -92 q 911 25 911 -32 l 911 379 l 864 379 l 864 25 q 833 -56 864 -26 q 754 -85 801 -85 q 676 -56 707 -85 q 644 25 644 -26 l 644 988 q 676 1069 644 1040 q 754 1097 707 1097 q 833 1069 801 1097 q 864 988 864 1040 l 864 769 l 885 769 q 911 794 911 769 l 911 992 q 943 1078 911 1049 q 1026 1107 975 1107 q 1110 1078 1078 1107 q 1142 992 1142 1049 l 1142 25 q 1110 -62 1142 -32 q 1026 -92 1078 -92 m 67 863 q 99 963 67 922 q 204 1003 132 1003 l 419 1003 q 543 957 504 1003 q 582 828 582 911 q 562 509 582 653 q 492 263 542 365 q 351 111 442 161 q 242 78 297 82 q 143 100 188 75 q 78 178 99 125 q 81 330 43 263 q 215 426 119 397 q 334 478 276 446 q 429 556 392 510 q 467 665 467 603 q 452 703 467 689 q 415 717 438 717 l 204 718 q 99 760 132 718 q 67 863 67 803 m 885 513 q 911 539 911 513 l 911 635 l 864 635 l 864 513 l 885 513 z "},"걘":{"ha":1210,"x_min":42,"x_max":1086,"o":"m 600 989 q 631 1062 600 1033 q 713 1090 661 1090 q 790 1062 761 1090 q 819 986 819 1033 l 819 842 l 842 842 q 858 857 858 842 l 858 994 q 890 1072 858 1042 q 975 1101 921 1101 q 1057 1072 1028 1101 q 1086 993 1086 1042 l 1086 381 q 1055 305 1086 335 q 975 275 1024 275 q 891 305 924 275 q 858 381 858 335 l 858 567 l 819 567 l 819 383 q 790 312 819 340 q 713 283 760 283 q 631 312 663 283 q 600 383 600 340 l 600 989 m 319 399 q 220 374 272 378 q 126 388 168 369 q 61 457 83 407 q 48 551 42 504 q 90 632 54 597 q 192 675 125 667 q 289 683 243 682 q 369 699 335 685 q 419 758 403 714 q 415 794 429 782 q 374 806 400 806 l 174 807 q 79 847 110 807 q 49 940 49 888 q 80 1032 49 993 q 171 1071 111 1071 l 392 1071 q 517 1028 469 1071 q 565 908 565 986 q 543 697 565 799 q 467 518 521 596 q 319 399 414 440 m 842 654 q 858 669 858 654 l 858 754 l 819 754 l 819 654 l 842 654 m 176 135 q 176 172 175 158 q 179 222 176 185 q 310 347 188 347 q 403 319 371 347 q 436 246 436 292 q 448 209 436 224 q 507 194 460 194 l 932 194 q 1036 159 999 194 q 1074 51 1074 124 q 1036 -54 1074 -17 q 932 -92 999 -92 l 436 -92 q 296 -72 353 -92 q 209 -2 239 -51 q 176 135 179 47 z "},"걜":{"ha":1210,"x_min":50,"x_max":1104,"o":"m 719 442 q 638 470 669 442 q 607 542 607 499 l 607 989 q 637 1062 607 1033 q 719 1090 667 1090 q 797 1062 768 1090 q 825 986 825 1033 l 825 910 l 844 910 q 863 926 863 910 l 863 994 q 894 1072 863 1042 q 979 1101 925 1101 q 1060 1072 1031 1101 q 1090 993 1090 1042 l 1090 539 q 1059 464 1090 494 q 979 433 1028 433 q 895 464 928 433 q 863 539 863 494 l 863 635 l 825 635 l 825 542 q 796 470 825 499 q 719 442 767 442 m 60 946 q 92 1035 60 999 q 183 1071 124 1071 l 411 1071 q 530 1028 489 1071 q 571 908 571 986 q 537 678 571 771 q 446 532 503 586 q 317 451 389 478 q 216 432 268 435 q 123 449 164 429 q 65 521 82 469 q 60 615 50 571 q 110 685 71 658 q 214 711 149 711 q 299 712 261 711 q 366 724 338 713 q 414 768 394 736 q 418 805 428 792 q 381 818 408 818 l 186 818 q 91 856 122 818 q 60 946 60 893 m 844 722 q 863 739 863 722 l 863 822 l 825 822 l 825 722 l 844 722 m 176 81 q 199 176 179 146 q 260 214 219 206 q 365 222 300 222 l 857 222 q 872 225 867 222 q 876 238 876 228 q 857 253 876 253 l 311 253 q 250 272 276 253 q 224 332 224 290 q 250 390 224 374 q 311 407 276 407 l 932 407 q 1035 385 1006 407 q 1064 286 1064 363 q 1051 216 1064 239 q 1013 186 1038 193 q 956 179 989 179 l 344 179 q 320 176 326 179 q 314 163 314 174 q 320 149 314 150 q 344 147 326 147 l 957 147 q 1072 119 1039 147 q 1104 28 1104 90 q 1072 -62 1104 -32 q 957 -92 1039 -92 l 410 -92 q 278 -81 331 -92 q 199 -35 225 -71 q 176 81 174 1 z "},"걥":{"ha":1210,"x_min":58,"x_max":1090,"o":"m 719 440 q 638 469 669 440 q 607 540 607 497 l 607 989 q 637 1062 607 1033 q 719 1090 667 1090 q 797 1062 768 1090 q 825 986 825 1033 l 825 907 l 844 907 q 863 924 863 907 l 863 994 q 894 1072 863 1042 q 979 1101 925 1101 q 1060 1072 1031 1101 q 1090 993 1090 1042 l 1090 536 q 1059 462 1090 492 q 979 432 1028 432 q 895 462 928 432 q 863 536 863 492 l 863 632 l 825 632 l 825 540 q 796 469 825 497 q 719 440 767 440 m 68 943 q 99 1033 68 996 q 197 1071 131 1071 l 411 1071 q 530 1033 489 1071 q 571 908 571 996 q 539 678 571 768 q 451 535 507 588 q 321 454 394 482 q 222 435 274 436 q 130 455 169 433 q 76 528 90 476 q 95 649 58 597 q 231 701 132 701 q 310 701 275 701 q 371 712 344 701 q 417 754 397 722 q 419 792 431 778 q 381 806 407 806 l 200 806 q 99 847 131 806 q 68 943 68 889 m 844 719 q 863 736 863 719 l 863 819 l 825 819 l 825 719 l 844 719 m 186 79 q 202 163 186 138 q 218 189 218 189 l 218 313 q 258 385 218 365 q 350 406 297 406 q 443 385 403 406 q 483 313 483 365 l 483 286 l 803 286 l 803 301 q 843 378 803 354 q 938 401 883 401 q 1031 378 992 401 q 1069 301 1069 354 l 1069 81 q 1023 -48 1069 -4 q 889 -92 976 -92 l 440 -92 q 186 79 186 -92 m 310 157 q 318 141 310 144 q 347 138 326 138 l 781 138 q 809 141 801 138 q 817 157 817 144 q 809 171 817 168 q 781 174 801 174 l 347 174 q 318 171 326 174 q 310 157 310 168 z "},"거":{"ha":1210,"x_min":90,"x_max":1072,"o":"m 390 111 q 281 85 336 86 q 184 110 226 85 q 121 188 142 135 q 126 344 90 272 q 257 440 163 415 q 358 472 306 453 q 455 519 410 492 q 528 582 500 546 q 557 665 557 618 q 542 703 557 689 q 507 717 528 717 l 242 718 q 139 760 171 718 q 107 863 107 803 q 139 963 107 922 q 242 1003 171 1003 l 511 1003 q 631 957 593 1003 q 669 828 669 911 q 669 781 669 804 q 668 735 669 758 l 760 735 q 794 749 782 735 q 806 786 806 764 l 806 972 q 842 1068 806 1029 q 942 1107 878 1107 q 1038 1067 1003 1107 q 1072 969 1072 1028 l 1072 33 q 1036 -56 1072 -19 q 942 -92 1000 -92 q 844 -56 882 -92 q 806 33 806 -19 l 806 585 l 656 585 q 572 288 635 413 q 390 111 510 164 z "},"걱":{"ha":1210,"x_min":90,"x_max":1069,"o":"m 936 388 q 837 424 876 388 q 797 513 797 460 l 797 706 l 657 706 q 556 517 626 600 q 369 399 486 435 q 274 380 325 385 q 178 391 222 375 q 113 454 135 407 q 98 551 90 503 q 143 633 106 599 q 249 669 181 667 q 369 676 317 674 q 457 692 422 678 q 504 746 492 706 q 465 793 518 793 l 217 794 q 126 835 158 794 q 94 932 94 875 q 126 1029 94 989 q 214 1069 158 1069 l 522 1069 q 645 1026 608 1069 q 682 896 682 982 l 682 849 l 760 849 q 790 858 782 849 q 797 893 797 867 l 797 974 q 835 1066 797 1031 q 936 1101 872 1101 q 1034 1065 999 1101 q 1069 971 1069 1029 l 1069 513 q 1033 424 1069 460 q 936 388 996 388 m 203 224 q 240 321 203 286 q 344 356 278 356 l 888 356 q 1060 193 1060 356 q 1058 108 1060 142 q 1049 25 1056 74 q 1009 -68 1042 -35 q 907 -97 976 -101 q 831 -72 857 -94 q 794 -20 804 -50 q 783 32 785 10 q 769 75 782 61 q 719 89 757 89 l 344 89 q 240 125 276 89 q 203 224 203 161 z "},"건":{"ha":1210,"x_min":72,"x_max":1069,"o":"m 936 275 q 837 311 876 275 q 797 400 797 347 l 797 682 l 656 682 q 523 480 610 556 q 335 382 436 404 q 234 374 285 371 q 144 401 183 376 q 92 478 106 425 q 108 612 72 556 q 242 678 144 668 q 351 683 299 683 q 442 692 403 682 q 500 742 482 703 q 503 780 514 768 q 464 792 492 792 l 207 792 q 112 835 140 792 q 83 932 83 878 q 112 1028 83 985 q 207 1071 140 1071 l 528 1071 q 649 1028 606 1071 q 693 908 693 986 q 692 867 693 888 q 688 826 690 846 l 760 826 q 790 835 782 826 q 797 869 797 843 l 797 974 q 835 1066 797 1031 q 936 1101 872 1101 q 1034 1065 999 1101 q 1069 971 1069 1029 l 1069 400 q 1033 311 1069 347 q 936 275 996 275 m 199 135 q 198 177 197 158 q 201 233 199 196 q 335 344 210 344 q 427 317 396 344 q 458 246 458 290 q 470 209 458 224 q 529 194 482 194 l 925 194 q 1031 159 993 194 q 1068 51 1068 124 q 1031 -54 1068 -17 q 925 -92 993 -92 l 458 -92 q 318 -72 375 -92 q 231 -2 261 -51 q 199 135 201 47 z "},"걷":{"ha":1210,"x_min":92,"x_max":1069,"o":"m 936 453 q 837 488 876 453 q 797 579 797 524 l 797 725 l 667 725 q 540 537 628 601 q 344 451 451 472 q 236 444 289 442 q 147 471 183 447 q 100 547 110 494 q 104 633 92 593 q 153 698 117 674 q 250 722 189 722 q 357 715 307 722 q 444 714 407 708 q 500 757 482 719 q 503 795 514 783 q 464 807 492 807 l 222 807 q 124 848 153 807 q 94 943 94 889 q 124 1035 94 996 q 219 1074 153 1074 l 528 1074 q 649 1031 606 1074 q 693 911 693 989 q 693 890 693 900 q 692 869 693 879 l 760 869 q 790 878 782 869 q 797 913 797 886 l 797 974 q 835 1066 797 1031 q 936 1101 872 1101 q 1034 1065 999 1101 q 1069 971 1069 1029 l 1069 579 q 1033 488 1069 524 q 936 453 996 453 m 207 311 q 235 385 207 358 q 311 411 264 411 l 938 411 q 1022 381 993 411 q 1050 304 1050 350 q 1022 226 1050 257 q 938 194 993 194 l 407 194 q 382 192 390 194 q 374 175 374 189 q 382 158 374 161 q 407 156 390 156 l 921 156 q 1026 119 994 156 q 1058 32 1058 83 q 1026 -57 1058 -22 q 921 -92 994 -92 l 432 -92 q 272 -47 325 -92 q 218 71 218 -1 q 243 163 218 128 q 299 208 268 199 l 299 210 q 233 235 260 210 q 207 311 207 260 z "},"걸":{"ha":1210,"x_min":86,"x_max":1083,"o":"m 936 442 q 837 477 876 442 q 797 567 797 513 l 797 710 l 660 710 q 529 533 617 594 q 338 451 442 471 q 230 444 282 442 q 141 471 178 447 q 94 547 104 494 q 99 633 86 593 q 147 698 111 674 q 244 722 183 722 q 353 715 301 722 q 443 714 404 708 q 500 757 482 719 q 503 795 514 783 q 464 807 492 807 l 217 807 q 117 848 146 807 q 89 943 89 889 q 117 1035 89 996 q 214 1074 146 1074 l 528 1074 q 649 1031 606 1074 q 693 911 693 989 q 692 883 693 897 q 690 854 692 868 l 760 854 q 790 863 782 854 q 797 897 797 871 l 797 974 q 835 1066 797 1031 q 936 1101 872 1101 q 1034 1065 999 1101 q 1069 971 1069 1029 l 1069 567 q 1033 477 1069 513 q 936 442 996 442 m 168 78 q 190 174 171 143 q 250 213 210 204 q 356 222 290 222 l 844 222 q 859 225 854 222 q 864 238 864 228 q 844 253 864 253 l 299 253 q 240 272 264 253 q 215 332 215 290 q 240 392 215 374 q 299 410 264 410 l 914 410 q 1022 390 988 410 q 1057 297 1057 371 q 1031 203 1057 226 q 943 179 1004 179 l 335 179 q 312 176 318 179 q 306 163 306 174 q 312 149 306 150 q 335 147 318 147 l 939 147 q 1052 119 1021 147 q 1083 29 1083 92 q 1050 -61 1083 -31 q 926 -92 1017 -92 l 400 -92 q 269 -81 322 -92 q 190 -33 215 -69 q 168 78 165 3 z "},"걺":{"ha":1210,"x_min":86,"x_max":1069,"o":"m 936 439 q 837 475 876 439 q 797 564 797 511 l 797 710 l 660 710 q 531 528 618 592 q 338 444 444 464 q 224 438 275 435 q 138 465 172 440 q 94 542 104 489 q 99 627 86 588 q 147 692 111 667 q 244 717 183 717 q 353 711 301 717 q 443 713 404 706 q 500 757 482 719 q 503 795 514 783 q 464 807 492 807 l 217 807 q 117 848 146 807 q 89 943 89 889 q 117 1035 89 996 q 214 1074 146 1074 l 528 1074 q 649 1031 606 1074 q 693 911 693 989 q 692 883 693 897 q 690 854 692 868 l 760 854 q 790 863 782 854 q 797 897 797 871 l 797 974 q 835 1066 797 1031 q 936 1101 872 1101 q 1034 1065 999 1101 q 1069 971 1069 1029 l 1069 564 q 1033 475 1069 511 q 936 439 996 439 m 147 64 q 170 157 150 128 q 231 194 190 186 q 336 201 272 201 l 433 201 q 449 204 444 201 q 454 217 454 207 q 433 232 454 232 l 276 232 q 215 254 242 232 q 189 319 189 276 q 215 381 189 361 q 276 401 242 401 l 474 401 q 569 374 544 401 q 594 269 594 347 q 580 196 594 219 q 540 165 565 172 q 485 157 515 157 l 315 157 q 292 155 299 157 q 285 142 285 153 q 315 125 285 125 l 556 125 q 621 119 597 125 q 658 186 633 167 q 689 207 683 206 q 639 234 658 207 q 619 304 619 261 q 642 376 619 344 q 714 407 664 407 l 899 407 q 1022 363 981 407 q 1063 239 1063 319 l 1063 65 q 899 -92 1063 -92 l 806 -92 q 682 -58 732 -92 q 556 -92 650 -92 l 382 -92 q 250 -82 303 -92 q 172 -39 197 -72 q 147 64 146 -6 m 743 183 q 750 165 743 169 q 779 161 757 161 l 868 161 q 896 165 889 161 q 903 183 903 169 q 896 203 903 199 q 868 207 889 207 l 779 207 q 750 203 757 207 q 743 183 743 199 z "},"검":{"ha":1210,"x_min":79,"x_max":1069,"o":"m 82 943 q 111 1035 82 996 q 207 1074 140 1074 l 528 1074 q 649 1031 606 1074 q 693 911 693 989 q 693 890 693 900 q 692 869 693 879 l 760 869 q 790 878 782 869 q 797 913 797 886 l 797 974 q 835 1066 797 1031 q 936 1101 872 1101 q 1034 1065 999 1101 q 1069 971 1069 1029 l 1069 568 q 1033 477 1069 513 q 936 442 996 442 q 837 477 876 442 q 797 568 797 513 l 797 725 l 664 725 q 530 537 621 601 q 332 451 439 472 q 224 444 276 442 q 134 471 171 447 q 88 547 97 494 q 92 633 79 593 q 140 698 104 674 q 238 722 176 722 q 347 715 294 722 q 441 714 400 708 q 500 757 482 719 q 503 795 514 783 q 464 807 492 807 l 210 807 q 111 848 140 807 q 82 943 82 889 m 432 -92 q 261 -49 317 -92 q 206 71 206 -6 q 222 147 206 117 q 260 193 239 176 q 292 211 281 210 l 292 213 q 229 242 253 213 q 206 314 206 271 q 230 384 206 354 q 304 414 254 414 l 882 414 q 1003 372 963 414 q 1044 253 1044 331 l 1044 63 q 882 -92 1044 -92 l 432 -92 m 344 190 q 352 172 344 176 q 382 168 360 168 l 775 168 q 803 172 797 168 q 810 190 810 176 q 803 208 810 204 q 775 213 797 213 l 382 213 q 352 208 360 213 q 344 190 344 204 z "},"겁":{"ha":1210,"x_min":75,"x_max":1069,"o":"m 936 444 q 837 479 876 444 q 797 569 797 514 l 797 725 l 664 725 q 530 536 621 601 q 332 451 439 471 q 222 445 274 442 q 133 474 169 449 q 88 553 97 500 q 110 672 75 622 q 238 722 146 722 q 347 715 294 722 q 441 714 400 708 q 500 757 482 719 q 503 795 514 783 q 464 807 492 807 l 210 807 q 111 848 140 807 q 82 943 82 889 q 111 1035 82 996 q 207 1074 140 1074 l 528 1074 q 649 1031 606 1074 q 693 911 693 989 q 693 890 693 900 q 692 869 693 879 l 760 869 q 790 878 782 869 q 797 913 797 886 l 797 974 q 835 1066 797 1031 q 936 1101 872 1101 q 1034 1065 999 1101 q 1069 971 1069 1029 l 1069 569 q 1033 479 1069 514 q 936 444 996 444 m 186 79 q 202 167 186 136 q 218 199 218 199 l 218 319 q 258 393 218 371 q 350 415 297 415 q 443 393 403 415 q 483 319 483 371 l 483 293 l 790 293 l 790 308 q 831 385 790 360 q 925 411 871 411 q 1018 385 979 411 q 1057 308 1057 360 l 1057 81 q 1010 -48 1057 -4 q 876 -92 964 -92 l 440 -92 q 186 79 186 -92 m 310 167 q 318 151 310 154 q 347 147 326 147 l 768 147 q 797 151 789 147 q 804 167 804 154 q 797 181 804 178 q 768 183 789 183 l 347 183 q 318 181 326 183 q 310 167 310 178 z "},"겂":{"ha":1210,"x_min":79,"x_max":1151,"o":"m 936 413 q 837 448 876 413 q 797 539 797 483 l 797 725 l 665 725 q 531 526 622 597 q 332 435 439 456 q 224 428 276 425 q 134 455 171 431 q 88 532 97 479 q 92 617 79 578 q 140 682 104 657 q 238 707 176 707 q 347 703 294 707 q 441 710 400 700 q 500 757 482 719 q 503 795 514 783 q 464 807 492 807 l 210 807 q 111 848 140 807 q 82 943 82 889 q 111 1035 82 996 q 207 1074 140 1074 l 528 1074 q 649 1031 606 1074 q 693 911 693 989 q 693 890 693 900 q 692 869 693 879 l 760 869 q 790 878 782 869 q 797 913 797 886 l 797 974 q 835 1066 797 1031 q 936 1101 872 1101 q 1034 1065 999 1101 q 1069 971 1069 1029 l 1069 539 q 1033 448 1069 483 q 936 413 996 413 m 151 71 q 161 148 151 119 q 180 189 171 176 q 189 201 189 201 l 189 307 q 282 396 189 396 q 374 307 374 396 l 374 286 l 432 286 l 432 307 q 525 399 432 399 q 619 307 619 399 l 619 149 l 647 190 q 683 241 665 215 q 722 301 700 267 q 780 367 749 343 q 858 390 811 390 q 944 358 910 390 q 979 269 979 326 q 969 217 979 242 q 948 177 958 192 q 938 163 938 163 l 939 161 q 971 174 939 161 q 1051 176 1003 186 q 1128 114 1106 165 q 1135 3 1151 63 q 1094 -67 1124 -42 q 1017 -92 1064 -92 q 949 -69 974 -92 q 911 -25 924 -47 q 890 25 896 3 q 865 47 883 47 l 829 -12 q 781 -69 808 -47 q 707 -92 753 -92 q 594 -32 629 -92 q 546 -76 578 -61 q 461 -92 514 -92 l 344 -92 q 200 -47 249 -92 q 151 71 151 -1 m 289 158 q 296 140 289 144 q 325 136 303 136 l 407 136 q 435 140 428 136 q 442 158 442 144 q 435 178 442 174 q 407 182 428 182 l 325 182 q 296 178 303 182 q 289 158 289 174 z "},"것":{"ha":1210,"x_min":76,"x_max":1131,"o":"m 76 932 q 109 1029 76 989 q 206 1069 142 1069 l 503 1069 q 624 1027 581 1069 q 668 907 668 985 q 667 877 668 892 q 665 847 667 863 l 760 847 q 790 856 782 847 q 797 892 797 865 l 797 974 q 835 1066 797 1031 q 936 1101 872 1101 q 1034 1065 999 1101 q 1069 971 1069 1029 l 1069 486 q 1033 397 1069 433 q 936 361 996 361 q 837 397 876 361 q 797 486 797 433 l 797 704 l 643 704 q 532 486 608 575 q 344 357 456 397 q 246 338 296 339 q 156 360 196 338 q 96 433 117 383 q 86 534 76 486 q 136 615 96 582 q 246 653 176 647 q 356 663 311 658 q 429 685 400 668 q 475 742 458 701 q 439 792 497 792 l 207 792 q 109 835 142 792 q 76 932 76 879 m 971 -93 q 874 -58 911 -93 q 799 19 836 -22 q 749 68 772 47 q 693 90 725 89 q 593 56 646 92 q 472 -25 540 21 q 288 -96 371 -94 q 163 0 206 -97 q 169 118 135 65 q 288 219 204 171 q 369 267 335 247 q 433 304 403 286 q 497 344 463 322 q 587 402 544 375 q 692 429 629 429 q 768 401 736 429 q 814 333 800 372 q 821 265 828 294 q 798 215 814 235 q 769 182 782 194 l 808 140 q 895 197 847 179 q 989 209 943 214 q 1069 177 1035 204 q 1117 101 1104 150 q 1117 8 1131 53 q 1066 -65 1103 -36 q 971 -93 1029 -93 z "},"겄":{"ha":1210,"x_min":90,"x_max":1158,"o":"m 94 932 q 126 1029 94 989 q 214 1069 158 1069 l 522 1069 q 645 1026 608 1069 q 682 896 682 982 l 682 849 l 760 849 q 790 858 782 849 q 797 893 797 867 l 797 974 q 835 1066 797 1031 q 936 1101 872 1101 q 1034 1065 999 1101 q 1069 971 1069 1029 l 1069 513 q 1033 424 1069 460 q 936 388 996 388 q 837 424 876 388 q 797 513 797 460 l 797 706 l 654 706 q 545 521 619 601 q 357 399 471 440 q 269 380 318 385 q 178 391 221 375 q 113 454 135 407 q 98 551 90 503 q 143 633 106 599 q 249 669 181 667 q 369 676 317 674 q 457 692 422 678 q 504 746 492 706 q 465 793 518 793 l 217 794 q 126 835 158 794 q 94 932 94 875 m 488 13 q 499 69 488 49 q 511 90 511 90 q 507 97 511 90 q 489 103 503 103 q 463 89 475 103 q 436 56 451 75 l 385 -7 q 319 -69 353 -46 q 225 -92 286 -92 q 163 -74 192 -92 q 115 -26 133 -56 q 96 35 96 3 q 111 110 96 78 q 164 176 126 142 q 227 238 196 208 q 286 294 258 267 q 359 358 321 332 q 440 383 397 383 q 518 365 490 383 q 558 319 546 346 q 569 264 569 292 q 554 204 569 225 q 539 183 539 183 l 569 158 q 617 218 594 186 q 663 282 640 250 q 724 351 693 324 q 813 379 756 379 q 903 344 874 379 q 933 265 933 310 q 914 191 933 225 q 878 138 894 157 l 879 136 q 940 181 907 163 q 1024 199 972 199 q 1119 158 1081 199 q 1158 54 1158 118 q 1118 -52 1158 -10 q 1017 -93 1078 -94 q 939 -67 971 -92 q 889 -6 907 -43 q 869 28 879 17 q 843 40 860 40 q 815 27 825 40 q 794 -1 804 14 l 781 -22 q 724 -81 760 -54 q 631 -108 688 -108 q 555 -90 588 -108 q 505 -43 522 -71 q 488 13 488 -15 z "},"겅":{"ha":1210,"x_min":79,"x_max":1069,"o":"m 82 943 q 111 1035 82 996 q 207 1074 140 1074 l 528 1074 q 649 1031 606 1074 q 693 911 693 989 l 693 882 l 760 882 q 790 890 782 882 q 797 925 797 899 l 797 974 q 835 1066 797 1031 q 936 1101 872 1101 q 1034 1065 999 1101 q 1069 971 1069 1029 l 1069 543 q 1033 452 1069 488 q 936 417 996 417 q 837 452 876 417 q 797 543 797 488 l 797 738 l 671 738 q 594 578 646 642 q 475 478 543 514 q 332 429 407 443 q 224 422 276 418 q 134 452 171 426 q 88 531 97 478 q 92 617 79 576 q 140 684 104 658 q 238 710 176 710 q 347 706 294 710 q 441 710 400 701 q 500 757 482 719 q 503 795 514 783 q 464 807 492 807 l 210 807 q 111 848 140 807 q 82 943 82 889 m 622 -106 q 363 -69 457 -106 q 229 27 268 -33 q 190 160 190 88 q 208 267 190 218 q 273 352 226 317 q 404 407 319 388 q 622 426 489 426 q 837 407 753 426 q 968 352 921 388 q 1034 267 1015 317 q 1053 160 1053 218 q 1015 27 1053 88 q 883 -69 976 -33 q 622 -106 789 -106 m 429 268 q 444 244 429 253 q 498 231 458 235 q 613 226 538 226 q 764 236 724 226 q 804 268 804 246 q 764 300 804 292 q 613 308 724 308 q 498 304 538 308 q 444 292 458 300 q 429 268 429 283 z "},"겆":{"ha":1210,"x_min":78,"x_max":1099,"o":"m 83 944 q 116 1034 83 997 q 200 1071 149 1071 l 517 1071 q 638 1028 594 1071 q 682 908 682 986 l 682 888 l 758 888 q 788 897 781 888 q 796 932 796 906 l 796 974 q 833 1066 796 1031 q 935 1101 871 1101 q 1033 1065 997 1101 q 1069 971 1069 1029 l 1069 575 q 1032 486 1069 522 q 935 450 994 450 q 835 486 875 450 q 796 575 796 522 l 796 744 l 660 744 q 583 596 635 654 q 466 506 532 538 q 331 460 400 474 q 230 453 281 450 q 140 480 179 456 q 89 556 101 504 q 91 645 78 603 q 142 715 104 688 q 244 742 181 742 q 347 735 301 742 q 428 731 393 728 q 489 767 464 735 q 494 803 507 790 q 453 817 481 817 l 203 817 q 116 854 149 817 q 83 944 83 892 m 283 208 q 204 235 236 208 q 172 314 172 263 q 206 392 172 365 q 279 418 240 418 l 951 417 q 1024 391 992 417 q 1056 314 1056 365 q 1024 235 1056 263 q 944 208 992 208 l 768 208 l 735 128 l 785 99 q 883 160 824 147 q 996 160 942 174 q 1074 104 1049 149 q 1088 7 1099 60 q 1042 -67 1078 -42 q 956 -92 1007 -92 q 861 -69 908 -92 q 782 -24 814 -46 q 724 10 751 0 q 653 19 697 19 q 593 11 619 19 q 538 -12 567 3 q 467 -49 510 -26 q 363 -84 413 -76 q 286 -92 314 -92 q 171 -55 208 -92 q 133 36 133 -18 q 175 131 133 97 q 285 164 217 164 q 375 157 339 164 q 446 153 411 150 q 485 167 471 156 q 513 208 500 179 l 283 208 z "},"겉":{"ha":1210,"x_min":79,"x_max":1069,"o":"m 82 943 q 111 1035 82 996 q 207 1074 140 1074 l 528 1074 q 649 1031 606 1074 q 693 911 693 989 q 693 890 693 900 q 692 869 693 879 l 760 869 q 790 878 782 869 q 797 913 797 886 l 797 974 q 835 1066 797 1031 q 936 1101 872 1101 q 1034 1065 999 1101 q 1069 971 1069 1029 l 1069 568 q 1033 477 1069 513 q 936 442 996 442 q 837 477 876 442 q 797 568 797 513 l 797 725 l 664 725 q 530 537 621 601 q 332 451 439 472 q 224 444 276 442 q 134 471 171 447 q 88 547 97 494 q 92 633 79 593 q 140 698 104 674 q 238 722 176 722 q 347 715 294 722 q 441 714 400 708 q 500 757 482 719 q 503 795 514 783 q 464 807 492 807 l 210 807 q 111 848 140 807 q 82 943 82 889 m 478 -92 q 292 -47 354 -92 q 228 81 229 -1 q 253 177 226 144 q 308 225 281 210 l 308 226 q 243 248 269 226 q 217 319 217 269 q 245 388 217 367 q 321 408 274 408 l 946 408 q 1026 387 1001 408 q 1051 319 1051 365 q 1026 247 1051 272 q 946 221 1001 221 l 407 221 q 390 215 397 221 q 383 192 382 208 l 969 193 q 996 188 986 193 q 1006 167 1006 182 q 996 146 1006 151 q 968 140 986 140 l 389 142 q 401 113 392 119 q 425 107 410 107 l 939 107 q 1033 83 1006 107 q 1060 7 1060 60 q 1032 -67 1060 -43 q 939 -92 1004 -92 l 478 -92 z "},"겊":{"ha":1210,"x_min":86,"x_max":1069,"o":"m 936 456 q 837 493 876 456 q 797 586 797 531 l 797 725 l 665 725 q 538 542 625 606 q 344 457 451 478 q 236 452 289 447 q 147 483 183 457 q 100 561 110 508 q 122 682 86 631 q 250 733 158 733 q 358 726 307 733 q 446 723 408 719 q 500 757 483 726 q 503 796 515 782 q 464 810 492 810 l 222 810 q 124 851 153 810 q 94 944 94 892 q 124 1035 94 997 q 219 1074 153 1074 l 528 1074 q 649 1031 606 1074 q 693 911 693 989 q 693 890 693 900 q 692 869 693 879 l 760 869 q 790 878 782 869 q 797 913 797 886 l 797 974 q 835 1066 797 1031 q 936 1101 872 1101 q 1034 1065 999 1101 q 1069 971 1069 1029 l 1069 586 q 1033 493 1069 531 q 936 456 996 456 m 192 36 q 228 134 192 108 q 321 160 265 160 l 349 160 l 349 194 l 321 194 q 232 222 265 194 q 199 308 199 249 q 232 394 199 365 q 321 422 265 422 l 925 422 q 1053 310 1053 422 q 926 194 1053 194 l 899 194 l 899 160 l 926 160 q 1028 134 988 160 q 1068 36 1068 108 q 1032 -62 1068 -31 q 931 -94 996 -94 l 325 -94 q 231 -62 269 -94 q 192 36 192 -31 m 432 169 q 441 156 432 158 q 468 153 450 153 l 731 153 q 758 156 750 153 q 767 169 767 158 l 767 183 q 758 197 767 194 q 731 200 750 200 l 468 200 q 441 197 450 200 q 432 183 432 194 l 432 169 z "},"겋":{"ha":1210,"x_min":86,"x_max":1069,"o":"m 94 944 q 124 1035 94 997 q 219 1074 153 1074 l 528 1074 q 649 1031 606 1074 q 693 911 693 989 q 693 890 693 900 q 692 869 693 879 l 760 869 q 790 878 782 869 q 797 913 797 886 l 797 974 q 835 1066 797 1031 q 936 1101 872 1101 q 1034 1065 999 1101 q 1069 971 1069 1029 l 1069 561 q 1033 468 1069 506 q 936 431 996 431 q 837 468 876 431 q 797 561 797 506 l 797 725 l 664 725 q 534 533 622 601 q 344 444 446 464 q 183 449 251 428 q 100 549 115 469 q 122 669 86 618 q 250 721 158 721 q 358 717 307 721 q 446 719 408 713 q 500 757 483 726 q 503 796 515 782 q 464 810 492 810 l 222 810 q 124 851 153 810 q 94 944 94 892 m 624 -111 q 406 -95 503 -111 q 253 -42 310 -79 q 197 57 197 -4 q 233 149 197 114 q 308 188 269 185 l 308 189 q 212 219 235 189 q 189 292 189 249 q 217 363 189 332 q 319 394 244 394 l 490 394 l 490 425 q 522 479 490 458 q 628 500 554 500 q 733 479 704 500 q 763 425 763 458 l 763 394 l 933 394 q 1037 363 1007 394 q 1067 292 1067 332 q 1040 219 1067 249 q 940 189 1014 189 l 940 188 q 1019 150 989 185 q 1050 67 1050 115 q 942 -69 1050 -26 q 624 -111 835 -111 m 439 163 q 453 145 439 151 q 506 136 467 139 q 618 133 544 133 q 766 140 726 133 q 806 163 806 146 q 766 183 806 178 q 618 189 726 189 q 506 187 544 189 q 453 179 467 185 q 439 163 439 174 z "},"게":{"ha":1210,"x_min":99,"x_max":1151,"o":"m 926 992 q 958 1078 926 1049 q 1039 1107 989 1107 q 1120 1078 1089 1107 q 1151 992 1151 1049 l 1151 25 q 1120 -62 1151 -32 q 1039 -92 1089 -92 q 958 -62 989 -92 q 926 25 926 -32 l 926 992 m 782 -69 q 704 -40 735 -69 q 674 40 674 -11 l 674 600 l 607 600 q 548 297 593 424 q 400 111 503 169 q 292 78 346 82 q 196 100 239 75 q 132 178 153 125 q 136 330 99 263 q 267 426 174 397 q 380 478 326 446 q 467 556 433 510 q 500 665 500 603 q 486 703 500 689 q 450 717 472 717 l 256 718 q 152 760 185 718 q 119 863 119 803 q 152 963 119 922 q 256 1003 185 1003 l 456 1003 q 575 957 538 1003 q 613 828 613 911 l 611 750 l 632 750 q 674 794 674 750 l 674 976 q 704 1057 674 1028 q 782 1086 735 1086 q 859 1057 828 1086 q 890 976 890 1028 l 890 40 q 859 -40 890 -11 q 782 -69 828 -69 z "},"겍":{"ha":1210,"x_min":82,"x_max":1107,"o":"m 883 997 q 914 1072 883 1043 q 997 1101 944 1101 q 1078 1072 1049 1101 q 1107 994 1107 1043 l 1107 500 q 1076 427 1107 457 q 997 397 1046 397 q 915 427 947 397 q 883 500 883 457 l 883 997 m 749 408 q 669 435 700 408 q 639 504 639 461 l 639 724 l 567 724 q 472 519 538 597 q 322 415 406 442 q 228 401 275 400 q 147 424 182 401 q 96 496 111 447 q 94 588 82 546 q 146 657 107 631 q 250 683 185 683 q 360 697 318 683 q 431 757 401 710 q 433 793 444 781 q 394 806 421 806 l 219 806 q 119 847 151 806 q 88 943 88 889 q 119 1033 88 996 q 218 1071 151 1071 l 425 1071 q 544 1033 503 1071 q 585 908 585 996 q 585 879 585 894 q 583 849 585 864 l 607 849 q 633 856 626 849 q 639 886 639 864 l 639 992 q 668 1063 639 1036 q 749 1090 697 1090 q 825 1063 797 1090 q 853 989 853 1035 l 853 504 q 824 435 853 461 q 749 408 794 408 m 199 236 q 236 336 199 299 q 340 374 274 374 l 917 374 q 1046 327 1003 374 q 1089 199 1089 281 q 1087 113 1089 149 q 1078 25 1085 78 q 1042 -60 1071 -29 q 944 -92 1014 -92 q 841 -55 869 -92 q 813 24 813 -18 q 799 80 813 65 q 747 94 785 94 l 342 94 q 236 134 274 94 q 199 236 199 174 z "},"겐":{"ha":1210,"x_min":51,"x_max":1107,"o":"m 885 997 q 915 1072 885 1043 q 999 1101 946 1101 q 1078 1072 1050 1101 q 1107 994 1107 1043 l 1107 378 q 1078 305 1107 335 q 1000 275 1049 275 q 917 305 949 275 q 885 378 885 335 l 885 997 m 747 310 q 668 338 699 310 q 638 407 638 365 l 638 708 l 546 708 q 476 521 526 604 q 329 394 426 438 q 230 370 282 375 q 135 385 178 365 q 71 454 93 404 q 58 547 51 500 q 101 629 65 594 q 201 671 136 664 q 297 681 254 678 q 370 699 339 683 q 418 758 401 714 q 413 794 426 782 q 371 806 399 806 l 183 807 q 89 847 119 807 q 58 940 58 888 q 90 1032 58 993 q 182 1071 121 1071 l 389 1071 q 515 1028 467 1071 q 563 908 563 986 q 563 872 563 890 q 560 833 563 853 l 606 833 q 631 841 625 833 q 638 871 638 849 l 638 992 q 667 1063 638 1036 q 747 1090 696 1090 q 824 1063 796 1090 q 851 989 851 1035 l 851 407 q 822 338 851 365 q 747 310 793 310 m 185 135 q 184 172 183 158 q 188 222 185 185 q 319 347 197 347 q 413 319 381 347 q 444 246 444 292 q 456 209 444 224 q 515 194 468 194 l 953 194 q 1058 159 1021 194 q 1094 51 1094 124 q 1058 -54 1094 -17 q 953 -92 1021 -92 l 444 -92 q 304 -72 361 -92 q 217 -2 247 -51 q 185 135 188 47 z "},"겔":{"ha":1210,"x_min":61,"x_max":1113,"o":"m 876 997 q 907 1072 876 1043 q 990 1101 938 1101 q 1069 1072 1040 1101 q 1099 994 1099 1043 l 1099 538 q 1069 465 1099 494 q 990 435 1039 435 q 908 465 939 435 q 876 538 876 494 l 876 997 m 742 444 q 663 472 693 444 q 632 542 632 499 l 632 733 l 551 733 q 465 551 525 619 q 322 454 404 483 q 224 435 275 438 q 133 453 172 432 q 76 526 93 475 q 74 619 61 576 q 126 688 88 663 q 225 714 165 714 q 307 714 272 714 q 367 725 342 714 q 413 768 393 736 q 417 805 428 792 q 379 818 407 818 l 197 818 q 102 856 133 818 q 71 946 71 893 q 103 1035 71 999 q 194 1071 135 1071 l 410 1071 q 528 1028 488 1071 q 569 908 569 986 l 569 858 l 599 858 q 625 866 618 858 q 632 896 632 874 l 632 992 q 661 1063 632 1036 q 742 1090 690 1090 q 817 1063 790 1090 q 844 989 844 1035 l 844 542 q 816 472 844 499 q 742 444 788 444 m 182 82 q 204 178 185 149 q 265 217 224 208 q 369 225 306 225 l 875 225 q 890 228 886 225 q 894 240 894 231 q 875 256 894 256 l 317 256 q 256 274 282 256 q 229 333 229 293 q 256 392 229 376 q 317 408 282 408 l 950 408 q 1053 387 1024 408 q 1082 289 1082 365 q 1069 219 1082 242 q 1031 189 1056 196 q 974 182 1007 182 l 349 182 q 326 179 332 182 q 319 165 319 176 q 326 151 319 153 q 349 150 332 150 l 965 150 q 1080 121 1047 150 q 1113 29 1113 92 q 1080 -61 1113 -31 q 965 -92 1047 -92 l 415 -92 q 283 -81 336 -92 q 204 -34 229 -71 q 182 82 179 3 z "},"겜":{"ha":1210,"x_min":82,"x_max":1107,"o":"m 885 997 q 915 1072 885 1043 q 999 1101 946 1101 q 1078 1072 1050 1101 q 1107 994 1107 1043 l 1107 524 q 1077 451 1107 481 q 999 421 1047 421 q 917 451 949 421 q 885 524 885 481 l 885 997 m 750 431 q 671 458 701 431 q 640 528 640 485 l 640 721 l 564 721 q 469 537 535 603 q 322 444 404 471 q 228 428 275 429 q 147 449 182 428 q 96 518 111 469 q 94 610 82 568 q 146 678 107 653 q 250 704 185 704 q 328 704 296 704 q 386 715 361 704 q 431 757 411 725 q 433 793 444 781 q 394 806 421 806 l 219 806 q 119 847 151 806 q 88 943 88 889 q 119 1033 88 996 q 218 1071 151 1071 l 425 1071 q 544 1033 503 1071 q 585 908 585 996 q 584 877 585 893 q 582 846 583 861 l 607 846 q 633 853 626 846 q 640 883 640 861 l 640 992 q 669 1063 640 1036 q 750 1090 699 1090 q 826 1063 799 1090 q 854 989 854 1035 l 854 528 q 825 458 854 485 q 750 431 796 431 m 207 72 q 224 139 207 111 q 261 183 240 167 q 293 200 282 199 l 293 201 q 231 230 254 201 q 207 301 207 258 q 231 369 207 342 q 306 397 256 397 l 932 397 q 1053 354 1013 397 q 1094 232 1094 311 l 1094 63 q 932 -92 1094 -92 l 433 -92 q 263 -48 318 -92 q 207 72 207 -4 m 346 179 q 353 161 346 165 q 382 157 361 157 l 825 157 q 853 161 847 157 q 860 179 860 165 q 853 197 860 193 q 825 201 847 201 l 382 201 q 353 197 361 201 q 346 179 346 193 z "},"겝":{"ha":1210,"x_min":74,"x_max":1107,"o":"m 885 997 q 915 1072 885 1043 q 999 1101 946 1101 q 1078 1072 1050 1101 q 1107 994 1107 1043 l 1107 538 q 1077 465 1107 494 q 999 435 1047 435 q 917 465 949 435 q 885 538 885 494 l 885 997 m 750 444 q 671 472 701 444 q 640 542 640 499 l 640 721 l 564 721 q 469 537 535 603 q 322 444 404 471 q 228 428 275 429 q 147 449 182 428 q 96 519 111 471 q 113 649 74 594 q 250 704 153 704 q 328 704 296 704 q 386 715 361 704 q 431 757 411 725 q 433 793 444 781 q 394 806 421 806 l 219 806 q 119 847 151 806 q 88 943 88 889 q 119 1033 88 996 q 218 1071 151 1071 l 425 1071 q 544 1033 503 1071 q 585 908 585 996 q 584 877 585 893 q 582 846 583 861 l 607 846 q 633 853 626 846 q 640 883 640 861 l 640 992 q 669 1063 640 1036 q 750 1090 699 1090 q 826 1063 799 1090 q 854 989 854 1035 l 854 542 q 825 472 854 499 q 750 444 796 444 m 194 79 q 210 163 194 138 q 226 189 226 189 l 226 313 q 266 387 226 367 q 358 407 306 407 q 453 387 413 407 q 493 313 493 367 l 493 286 l 826 286 l 826 301 q 867 380 826 356 q 961 404 907 404 q 1055 380 1015 404 q 1094 301 1094 356 l 1094 81 q 1047 -48 1094 -4 q 913 -92 1000 -92 l 449 -92 q 194 79 194 -92 m 319 157 q 327 141 319 144 q 357 138 335 138 l 804 138 q 833 141 825 138 q 840 157 840 144 q 833 171 840 168 q 804 174 825 174 l 357 174 q 327 171 335 174 q 319 157 319 168 z "},"겟":{"ha":1210,"x_min":76,"x_max":1115,"o":"m 883 997 q 914 1072 883 1043 q 997 1101 944 1101 q 1078 1072 1049 1101 q 1107 994 1107 1043 l 1107 451 q 1076 378 1107 408 q 997 349 1046 349 q 915 378 947 349 q 883 451 883 408 l 883 997 m 749 425 q 669 453 700 425 q 639 522 639 481 l 639 688 l 553 688 q 474 475 528 557 q 342 353 419 393 q 244 325 293 329 q 156 342 194 321 q 100 415 117 364 q 116 540 76 490 q 244 615 156 590 q 353 665 314 635 q 415 738 392 694 q 418 780 429 764 q 379 796 407 796 l 217 796 q 118 838 150 796 q 86 933 86 881 q 118 1027 86 986 q 217 1068 150 1068 l 410 1068 q 528 1026 488 1068 q 569 906 569 983 q 569 858 569 881 q 568 813 569 836 l 607 813 q 633 820 626 813 q 639 850 639 828 l 639 992 q 668 1063 639 1036 q 749 1090 697 1090 q 825 1063 797 1090 q 853 989 853 1035 l 853 522 q 824 453 853 481 q 749 425 794 425 m 169 -4 q 169 110 143 53 q 283 207 194 168 q 401 263 353 239 q 501 315 450 286 q 615 373 565 351 q 713 394 664 394 q 780 375 751 394 q 825 327 808 356 q 844 269 842 299 q 823 191 847 222 q 767 140 799 160 l 804 107 q 868 169 826 144 q 960 193 910 193 q 1074 153 1032 193 q 1115 47 1115 113 q 1074 -56 1115 -15 q 960 -97 1032 -97 q 865 -72 903 -97 q 803 -15 826 -46 q 742 44 771 22 q 682 67 714 65 q 578 42 629 68 q 451 -32 528 15 q 337 -84 392 -69 q 238 -81 282 -99 q 169 -4 194 -64 z "},"겠":{"ha":1210,"x_min":72,"x_max":1175,"o":"m 883 997 q 914 1072 883 1043 q 997 1101 944 1101 q 1078 1072 1049 1101 q 1107 994 1107 1043 l 1107 478 q 1076 405 1107 435 q 997 375 1046 375 q 915 405 947 375 q 883 478 883 435 l 883 997 m 749 399 q 669 426 700 399 q 639 496 639 454 l 639 699 l 550 699 q 462 499 522 574 q 319 382 401 425 q 187 364 251 347 q 96 457 122 381 q 112 582 72 532 q 240 653 151 632 q 351 683 311 669 q 415 742 392 697 q 418 784 429 768 q 379 800 407 800 l 217 800 q 118 842 150 800 q 86 938 86 885 q 118 1031 86 990 q 217 1071 150 1071 l 410 1071 q 528 1028 488 1071 q 569 908 569 986 q 569 865 569 886 q 568 824 569 843 l 607 824 q 633 831 626 824 q 639 861 639 839 l 639 992 q 668 1063 639 1036 q 749 1090 697 1090 q 825 1063 797 1090 q 853 989 853 1035 l 853 496 q 824 426 853 454 q 749 399 794 399 m 121 35 q 138 108 121 78 q 189 176 154 139 q 251 238 218 207 q 310 294 283 268 q 380 354 346 331 q 464 378 414 378 q 558 340 529 378 q 586 261 586 301 q 572 199 586 222 q 558 175 558 175 l 588 158 q 625 215 611 190 q 658 269 639 239 q 725 344 689 318 q 818 369 761 369 q 908 335 878 369 q 938 256 938 300 q 922 186 938 215 q 890 138 907 157 l 892 136 q 956 178 919 163 q 1032 193 992 193 q 1134 151 1093 193 q 1175 49 1175 110 q 1135 -57 1175 -14 q 1032 -99 1094 -100 q 951 -70 985 -97 q 901 -6 918 -43 q 882 28 892 17 q 856 40 872 40 q 827 27 838 40 q 807 -1 817 14 l 793 -22 q 736 -81 772 -54 q 643 -108 700 -108 q 568 -90 600 -108 q 519 -43 536 -71 q 503 13 503 -15 q 515 69 503 49 q 526 90 526 90 q 523 94 526 90 q 510 97 519 97 q 487 86 497 97 q 461 56 476 75 l 410 -7 q 344 -69 378 -46 q 250 -92 311 -92 q 188 -74 217 -92 q 140 -26 158 -56 q 121 35 121 3 z "},"겡":{"ha":1210,"x_min":74,"x_max":1107,"o":"m 885 997 q 915 1072 885 1043 q 999 1101 946 1101 q 1078 1072 1050 1101 q 1107 994 1107 1043 l 1107 493 q 1077 419 1107 449 q 999 390 1047 390 q 917 419 949 390 q 885 493 885 449 l 885 997 m 750 436 q 671 464 701 436 q 640 533 640 492 l 640 708 l 550 708 q 462 515 522 589 q 321 411 401 442 q 226 393 274 393 q 141 416 178 393 q 89 490 104 439 q 86 584 74 540 q 138 656 99 628 q 243 683 178 683 q 349 697 310 683 q 417 757 388 710 q 419 793 431 781 q 381 806 407 806 l 213 806 q 112 847 143 806 q 81 943 81 889 q 112 1033 81 996 q 210 1071 143 1071 l 411 1071 q 530 1033 489 1071 q 571 908 571 996 q 570 870 571 889 q 569 833 569 851 l 607 833 q 633 841 626 833 q 640 871 640 849 l 640 992 q 669 1063 640 1036 q 750 1090 699 1090 q 826 1063 799 1090 q 854 989 854 1035 l 854 533 q 825 464 854 492 q 750 436 796 436 m 207 150 q 223 254 207 207 q 285 335 239 301 q 417 388 331 369 q 644 407 504 407 q 862 388 776 407 q 995 335 947 369 q 1063 254 1043 301 q 1082 150 1082 207 q 1043 22 1082 79 q 909 -71 1004 -36 q 644 -106 814 -106 q 381 -71 476 -106 q 246 22 285 -36 q 207 150 207 79 m 449 250 q 463 230 449 238 q 518 218 478 222 q 633 214 558 214 q 786 223 744 214 q 828 250 828 232 q 787 285 828 276 q 633 294 746 294 q 518 290 558 294 q 463 276 478 286 q 449 250 449 267 z "},"겨":{"ha":1210,"x_min":79,"x_max":1082,"o":"m 383 111 q 272 85 328 86 q 174 110 217 85 q 110 188 131 135 q 115 344 79 272 q 247 440 151 415 q 351 472 297 453 q 451 519 404 492 q 526 582 497 546 q 554 665 554 618 q 540 703 554 689 q 503 717 525 717 l 232 718 q 127 760 160 718 q 94 863 94 803 q 127 963 94 922 q 232 1003 160 1003 l 507 1003 q 631 957 592 1003 q 669 828 669 911 l 669 810 l 767 810 q 799 824 789 810 q 810 860 810 838 l 810 972 q 847 1068 810 1029 q 949 1107 885 1107 q 1047 1067 1011 1107 q 1082 969 1082 1028 l 1082 33 q 1045 -56 1082 -19 q 949 -92 1008 -92 q 849 -56 889 -92 q 810 33 810 -19 l 810 431 l 625 431 q 535 235 594 317 q 383 111 476 153 m 767 572 q 799 586 789 572 q 810 622 810 600 l 810 668 l 664 668 q 660 619 663 643 q 654 572 657 596 l 767 572 z "},"격":{"ha":1210,"x_min":78,"x_max":1069,"o":"m 936 388 q 837 424 876 388 q 797 513 797 460 l 797 565 l 586 565 q 489 465 546 508 q 357 399 432 422 q 261 380 313 385 q 166 391 210 375 q 100 454 122 407 q 85 551 78 503 q 131 633 93 599 q 236 669 168 667 q 360 676 304 674 q 453 692 415 678 q 504 746 492 706 q 465 793 518 793 l 204 794 q 114 835 146 794 q 82 932 82 875 q 114 1029 82 989 q 201 1069 146 1069 l 522 1069 q 644 1028 607 1069 q 682 904 681 986 l 763 904 q 790 912 783 904 q 797 944 797 919 l 797 974 q 835 1066 797 1031 q 936 1101 872 1101 q 1034 1065 999 1101 q 1069 971 1069 1029 l 1069 513 q 1033 424 1069 460 q 936 388 996 388 m 763 701 q 790 709 783 701 q 797 743 797 717 l 797 768 l 669 768 q 663 733 668 750 q 654 701 658 717 l 763 701 m 203 224 q 240 321 203 286 q 344 356 278 356 l 888 356 q 1060 193 1060 356 q 1058 108 1060 142 q 1049 25 1056 74 q 1009 -68 1042 -35 q 907 -97 976 -101 q 831 -72 857 -94 q 794 -20 804 -50 q 783 32 785 10 q 769 75 782 61 q 719 89 757 89 l 344 89 q 240 125 276 89 q 203 224 203 161 z "},"겪":{"ha":1210,"x_min":78,"x_max":1069,"o":"m 936 403 q 837 439 876 403 q 797 528 797 475 l 797 571 l 585 571 q 489 478 546 518 q 357 414 432 438 q 261 396 313 400 q 166 408 210 392 q 100 471 122 425 q 85 569 78 519 q 131 653 93 618 q 236 692 168 688 q 360 692 304 696 q 453 697 415 688 q 504 746 492 706 q 465 793 518 793 l 204 794 q 114 835 146 794 q 82 932 82 875 q 114 1029 82 989 q 201 1069 146 1069 l 522 1069 q 642 1030 604 1069 q 682 910 681 990 l 763 910 q 790 918 783 910 q 797 951 797 926 l 797 974 q 835 1066 797 1031 q 936 1101 872 1101 q 1034 1065 999 1101 q 1069 971 1069 1029 l 1069 528 q 1033 439 1069 475 q 936 403 996 403 m 763 707 q 790 715 783 707 q 797 749 797 724 l 797 774 l 671 774 q 654 707 665 740 l 763 707 m 210 240 q 246 334 210 303 q 333 365 282 365 l 494 365 q 565 351 535 365 q 617 315 594 338 q 660 358 632 343 q 725 372 689 372 l 886 372 q 1016 328 974 372 q 1058 207 1058 285 q 1057 114 1058 157 q 1051 22 1056 71 q 1017 -62 1046 -32 q 919 -92 989 -93 q 831 -57 861 -89 q 801 29 801 -25 l 801 78 q 794 108 801 97 q 761 119 788 119 l 732 119 q 668 132 696 119 q 666 80 667 101 q 663 25 665 58 q 627 -61 658 -29 q 526 -92 596 -93 q 446 -58 478 -89 q 417 26 414 -26 l 419 79 q 413 108 419 99 q 379 117 406 117 l 336 117 q 246 147 282 117 q 210 240 210 178 z "},"견":{"ha":1210,"x_min":72,"x_max":1069,"o":"m 936 275 q 837 311 876 275 q 797 400 797 347 l 797 553 l 588 553 q 472 440 538 483 q 335 382 407 397 q 234 374 285 371 q 144 401 183 376 q 92 478 106 425 q 108 612 72 556 q 242 678 144 668 q 351 683 299 683 q 442 692 403 682 q 500 742 482 703 q 503 780 514 768 q 464 792 492 792 l 207 792 q 112 835 140 792 q 83 932 83 878 q 112 1028 83 985 q 207 1071 140 1071 l 528 1071 q 649 1028 606 1071 q 693 908 693 986 l 693 904 l 763 904 q 790 912 783 904 q 797 944 797 919 l 797 974 q 835 1066 797 1031 q 936 1101 872 1101 q 1034 1065 999 1101 q 1069 971 1069 1029 l 1069 400 q 1033 311 1069 347 q 936 275 996 275 m 763 689 q 790 697 783 689 q 797 731 797 704 l 797 768 l 679 768 q 669 728 675 747 q 657 689 664 708 l 763 689 m 199 135 q 198 177 197 158 q 201 233 199 196 q 332 344 210 344 q 426 317 393 344 q 458 246 458 290 q 470 209 458 224 q 529 194 482 194 l 925 194 q 1031 159 993 194 q 1068 51 1068 124 q 1031 -54 1068 -17 q 925 -92 993 -92 l 458 -92 q 318 -72 375 -92 q 231 -2 261 -51 q 199 135 201 47 z "},"겯":{"ha":1210,"x_min":79,"x_max":1069,"o":"m 936 453 q 837 488 876 453 q 797 579 797 524 l 797 593 l 590 593 q 472 499 539 533 q 332 451 406 465 q 224 444 276 442 q 134 471 171 447 q 88 547 97 494 q 92 633 79 593 q 140 698 104 674 q 238 722 176 722 q 347 715 294 722 q 441 714 400 708 q 500 757 482 719 q 503 795 514 783 q 464 807 492 807 l 210 807 q 111 848 140 807 q 82 943 82 889 q 111 1035 82 996 q 207 1074 140 1074 l 528 1074 q 643 1037 600 1074 q 692 932 686 1000 l 763 932 q 790 940 783 932 q 797 972 797 947 l 797 974 q 835 1066 797 1031 q 936 1101 872 1101 q 1034 1065 999 1101 q 1069 971 1069 1029 l 1069 579 q 1033 488 1069 524 q 936 453 996 453 m 763 729 q 790 737 783 729 q 797 769 797 744 l 797 794 l 682 794 q 665 729 676 763 l 763 729 m 194 311 q 223 385 194 358 q 299 411 251 411 l 938 411 q 1022 381 993 411 q 1050 304 1050 350 q 1022 226 1050 257 q 938 194 993 194 l 394 194 q 369 192 378 194 q 361 175 361 189 q 369 158 361 161 q 394 156 378 156 l 921 156 q 1026 119 994 156 q 1058 32 1058 83 q 1026 -57 1058 -22 q 921 -92 994 -92 l 432 -92 q 260 -47 315 -92 q 206 71 206 -1 q 231 163 206 128 q 286 208 256 199 l 286 210 q 221 235 247 210 q 194 311 194 260 z "},"결":{"ha":1210,"x_min":79,"x_max":1083,"o":"m 936 442 q 837 477 876 442 q 797 567 797 513 l 797 593 l 590 593 q 472 499 539 533 q 332 451 406 465 q 224 444 276 442 q 134 471 171 447 q 88 547 97 494 q 92 633 79 593 q 140 698 104 674 q 238 722 176 722 q 347 715 294 722 q 441 714 400 708 q 500 757 482 719 q 503 795 514 783 q 464 807 492 807 l 210 807 q 111 848 140 807 q 82 943 82 889 q 111 1035 82 996 q 207 1074 140 1074 l 528 1074 q 643 1037 600 1074 q 692 932 686 1000 l 763 932 q 790 940 783 932 q 797 972 797 947 l 797 974 q 835 1066 797 1031 q 936 1101 872 1101 q 1034 1065 999 1101 q 1069 971 1069 1029 l 1069 567 q 1033 477 1069 513 q 936 442 996 442 m 763 729 q 790 737 783 729 q 797 769 797 744 l 797 794 l 682 794 q 665 729 676 763 l 763 729 m 161 78 q 183 174 164 143 q 244 213 203 204 q 349 222 285 222 l 844 222 q 859 225 854 222 q 864 238 864 228 q 844 253 864 253 l 293 253 q 233 272 258 253 q 208 332 208 290 q 233 392 208 374 q 293 410 258 410 l 914 410 q 1022 390 988 410 q 1057 297 1057 371 q 1031 203 1057 226 q 943 179 1004 179 l 329 179 q 306 176 313 179 q 299 163 299 174 q 306 149 299 150 q 329 147 313 147 l 939 147 q 1052 119 1021 147 q 1083 29 1083 92 q 1050 -61 1083 -31 q 926 -92 1017 -92 l 394 -92 q 263 -81 315 -92 q 184 -33 210 -69 q 161 78 158 3 z "},"겷":{"ha":1210,"x_min":86,"x_max":1094,"o":"m 936 443 q 837 478 876 443 q 797 568 797 514 l 797 593 l 596 593 q 481 494 549 529 q 338 444 413 458 q 224 438 275 435 q 138 465 172 440 q 94 542 104 489 q 99 627 86 588 q 147 692 111 667 q 244 717 183 717 q 353 711 301 717 q 443 713 404 706 q 500 757 482 719 q 503 795 514 783 q 464 807 492 807 l 217 807 q 117 848 146 807 q 89 943 89 889 q 117 1035 89 996 q 214 1074 146 1074 l 528 1074 q 643 1037 600 1074 q 692 932 686 1000 l 763 932 q 790 940 783 932 q 797 972 797 947 l 797 974 q 835 1066 797 1031 q 936 1101 872 1101 q 1034 1065 999 1101 q 1069 971 1069 1029 l 1069 568 q 1033 478 1069 514 q 936 443 996 443 m 763 729 q 790 737 783 729 q 797 769 797 744 l 797 794 l 682 794 q 676 760 681 776 q 668 729 672 744 l 763 729 m 143 64 q 165 157 144 128 q 226 194 185 186 q 332 201 267 201 l 404 201 q 419 204 415 201 q 424 217 424 207 q 404 232 424 232 l 271 232 q 210 254 236 232 q 183 319 183 276 q 210 381 183 361 q 271 401 236 401 l 444 401 q 538 374 514 401 q 563 269 563 347 q 549 196 563 219 q 510 165 535 172 q 456 157 486 157 l 310 157 q 287 155 293 157 q 281 142 281 153 q 287 128 281 132 q 310 125 293 125 l 501 125 q 567 117 542 125 q 607 88 593 108 q 639 148 617 126 q 671 176 661 169 l 671 178 l 667 178 q 610 206 628 178 q 593 269 593 235 q 610 334 593 306 q 667 363 628 363 l 735 363 l 735 365 q 767 409 735 397 q 842 421 800 421 q 916 409 883 421 q 949 365 949 397 l 949 363 l 1017 363 q 1078 334 1061 363 q 1094 269 1094 306 q 1078 206 1094 235 q 1017 178 1061 178 l 1017 176 q 1056 138 1031 167 q 1081 56 1081 110 q 1024 -60 1081 -15 q 836 -104 968 -104 q 693 -81 744 -104 q 621 -19 642 -58 q 583 -76 613 -61 q 501 -92 554 -92 l 376 -92 q 246 -82 299 -92 q 167 -39 193 -72 q 143 64 142 -6 m 721 138 q 742 119 721 124 q 821 114 764 114 q 894 119 875 114 q 914 138 914 124 q 894 156 914 153 q 818 160 875 160 q 742 156 763 160 q 721 138 721 153 z "},"겸":{"ha":1210,"x_min":79,"x_max":1069,"o":"m 82 943 q 111 1035 82 996 q 207 1074 140 1074 l 528 1074 q 643 1037 600 1074 q 692 932 686 1000 l 763 932 q 790 940 783 932 q 797 972 797 947 l 797 974 q 835 1066 797 1031 q 936 1101 872 1101 q 1034 1065 999 1101 q 1069 971 1069 1029 l 1069 568 q 1033 477 1069 513 q 936 442 996 442 q 837 477 876 442 q 797 568 797 513 l 797 593 l 590 593 q 472 499 539 533 q 332 451 406 465 q 224 444 276 442 q 134 471 171 447 q 88 547 97 494 q 92 633 79 593 q 140 698 104 674 q 238 722 176 722 q 347 715 294 722 q 441 714 400 708 q 500 757 482 719 q 503 795 514 783 q 464 807 492 807 l 210 807 q 111 848 140 807 q 82 943 82 889 m 763 729 q 790 737 783 729 q 797 769 797 744 l 797 794 l 682 794 q 665 729 676 763 l 763 729 m 432 -92 q 261 -49 317 -92 q 206 71 206 -6 q 222 147 206 117 q 260 193 239 176 q 292 211 281 210 l 292 213 q 229 242 253 213 q 206 314 206 271 q 230 384 206 354 q 304 414 254 414 l 882 414 q 1003 372 963 414 q 1044 253 1044 331 l 1044 63 q 882 -92 1044 -92 l 432 -92 m 344 190 q 352 172 344 176 q 382 168 360 168 l 775 168 q 803 172 797 168 q 810 190 810 176 q 803 208 810 204 q 775 213 797 213 l 382 213 q 352 208 360 213 q 344 190 344 204 z "},"겹":{"ha":1210,"x_min":75,"x_max":1069,"o":"m 936 444 q 837 479 876 444 q 797 569 797 514 l 797 593 l 590 593 q 472 499 539 533 q 332 451 406 465 q 222 445 274 442 q 133 474 169 449 q 88 553 97 500 q 110 672 75 622 q 238 722 146 722 q 347 715 294 722 q 441 714 400 708 q 500 757 482 719 q 503 795 514 783 q 464 807 492 807 l 210 807 q 111 848 140 807 q 82 943 82 889 q 111 1035 82 996 q 207 1074 140 1074 l 528 1074 q 643 1037 600 1074 q 692 932 686 1000 l 763 932 q 790 940 783 932 q 797 972 797 947 l 797 974 q 835 1066 797 1031 q 936 1101 872 1101 q 1034 1065 999 1101 q 1069 971 1069 1029 l 1069 569 q 1033 479 1069 514 q 936 444 996 444 m 763 729 q 790 737 783 729 q 797 769 797 744 l 797 794 l 682 794 q 665 729 676 763 l 763 729 m 186 79 q 202 167 186 136 q 218 199 218 199 l 218 319 q 258 393 218 371 q 350 415 297 415 q 443 393 403 415 q 483 319 483 371 l 483 293 l 790 293 l 790 308 q 831 385 790 360 q 925 411 871 411 q 1018 385 979 411 q 1057 308 1057 360 l 1057 81 q 1010 -48 1057 -4 q 876 -92 964 -92 l 440 -92 q 186 79 186 -92 m 310 167 q 318 151 310 154 q 347 147 326 147 l 768 147 q 797 151 789 147 q 804 167 804 154 q 797 181 804 178 q 768 183 789 183 l 347 183 q 318 181 326 183 q 310 167 310 178 z "},"겻":{"ha":1210,"x_min":88,"x_max":1131,"o":"m 101 932 q 134 1029 101 989 q 231 1069 167 1069 l 515 1069 q 637 1027 593 1069 q 681 907 681 985 l 763 907 q 790 915 783 907 q 797 947 797 922 l 797 974 q 835 1066 797 1031 q 936 1101 872 1101 q 1034 1065 999 1101 q 1069 971 1069 1029 l 1069 486 q 1033 397 1069 433 q 936 361 996 361 q 837 397 876 361 q 797 486 797 433 l 797 556 l 594 556 q 357 357 507 411 q 258 338 308 339 q 169 360 208 338 q 108 433 129 383 q 98 534 88 486 q 149 615 108 582 q 258 653 189 647 q 368 663 324 658 q 442 685 413 668 q 488 742 471 701 q 451 792 510 792 l 232 792 q 134 835 167 792 q 101 932 101 879 m 763 692 q 790 699 783 692 q 797 732 797 707 l 797 769 l 669 769 q 662 731 667 750 q 651 692 657 711 l 763 692 m 971 -93 q 874 -58 911 -93 q 799 19 836 -22 q 749 68 772 47 q 693 90 725 89 q 593 56 646 92 q 472 -25 540 21 q 288 -96 371 -94 q 163 0 206 -97 q 169 118 135 65 q 288 219 204 171 q 369 267 335 247 q 433 304 403 286 q 497 344 463 322 q 587 402 544 375 q 692 429 629 429 q 768 401 736 429 q 814 333 800 372 q 821 265 828 294 q 798 215 814 235 q 769 182 782 194 l 808 140 q 895 197 847 179 q 989 209 943 214 q 1069 177 1035 204 q 1117 101 1104 150 q 1117 8 1131 53 q 1066 -65 1103 -36 q 971 -93 1029 -93 z "},"겼":{"ha":1210,"x_min":78,"x_max":1158,"o":"m 82 932 q 114 1029 82 989 q 201 1069 146 1069 l 522 1069 q 643 1029 606 1069 q 682 907 681 989 l 763 907 q 790 915 783 907 q 797 947 797 922 l 797 974 q 835 1066 797 1031 q 936 1101 872 1101 q 1034 1065 999 1101 q 1069 971 1069 1029 l 1069 513 q 1033 424 1069 460 q 936 388 996 388 q 837 424 876 388 q 797 513 797 460 l 797 556 l 579 556 q 485 462 540 501 q 357 399 429 422 q 261 380 313 385 q 166 391 210 375 q 100 454 122 407 q 85 551 78 503 q 131 633 93 599 q 236 669 168 667 q 360 676 304 674 q 453 692 415 678 q 504 746 492 706 q 465 793 518 793 l 204 794 q 114 835 146 794 q 82 932 82 875 m 763 692 q 790 699 783 692 q 797 732 797 707 l 797 769 l 671 769 q 650 692 663 728 l 763 692 m 488 13 q 499 69 488 49 q 511 90 511 90 q 507 97 511 90 q 489 103 503 103 q 463 89 475 103 q 436 56 451 75 l 385 -7 q 319 -69 353 -46 q 225 -92 286 -92 q 163 -74 192 -92 q 115 -26 133 -56 q 96 35 96 3 q 111 110 96 78 q 164 176 126 142 q 227 238 196 208 q 286 294 258 267 q 359 358 321 332 q 440 383 397 383 q 518 365 490 383 q 558 319 546 346 q 569 264 569 292 q 554 204 569 225 q 539 183 539 183 l 569 158 q 617 218 594 186 q 663 282 640 250 q 724 351 693 324 q 813 379 756 379 q 903 344 874 379 q 933 265 933 310 q 914 191 933 225 q 878 138 894 157 l 879 136 q 940 181 907 163 q 1024 199 972 199 q 1119 158 1081 199 q 1158 54 1158 118 q 1118 -52 1158 -10 q 1017 -93 1078 -94 q 939 -67 971 -92 q 889 -6 907 -43 q 869 28 879 17 q 843 40 860 40 q 815 27 825 40 q 794 -1 804 14 l 781 -22 q 724 -81 760 -54 q 631 -108 688 -108 q 555 -90 588 -108 q 505 -43 522 -71 q 488 13 488 -15 z "},"경":{"ha":1210,"x_min":79,"x_max":1069,"o":"m 82 943 q 111 1035 82 996 q 207 1074 140 1074 l 528 1074 q 643 1037 600 1074 q 692 932 686 1000 l 763 932 q 790 940 783 932 q 797 972 797 947 l 797 974 q 835 1066 797 1031 q 936 1101 872 1101 q 1034 1065 999 1101 q 1069 971 1069 1029 l 1069 543 q 1033 452 1069 488 q 936 417 996 417 q 837 452 876 417 q 797 543 797 488 l 797 593 l 606 593 q 483 483 554 521 q 332 429 411 444 q 224 422 276 418 q 134 452 171 426 q 88 531 97 478 q 92 617 79 576 q 140 684 104 658 q 238 710 176 710 q 347 706 294 710 q 441 710 400 701 q 500 757 482 719 q 503 795 514 783 q 464 807 492 807 l 210 807 q 111 848 140 807 q 82 943 82 889 m 763 729 q 790 737 783 729 q 797 769 797 744 l 797 794 l 683 794 q 678 760 682 776 q 669 729 674 744 l 763 729 m 625 -106 q 365 -69 460 -106 q 232 27 271 -33 q 193 160 193 88 q 211 267 193 218 q 276 352 229 317 q 407 407 322 388 q 625 426 492 426 q 840 407 756 426 q 971 352 924 388 q 1037 267 1018 317 q 1056 160 1056 218 q 1017 27 1056 88 q 885 -69 979 -33 q 625 -106 792 -106 m 432 268 q 447 244 432 253 q 501 231 461 235 q 615 226 540 226 q 767 236 726 226 q 807 268 807 246 q 767 300 807 292 q 615 308 726 308 q 501 304 540 308 q 447 292 461 300 q 432 268 432 283 z "}}}
